Geomini-800.ufo
<glyph name=".notdef" format="2">
  <advance width="737"/>
  <unicode hex="0000"/>
  <outline>
    <contour>
      <point x="92" y="0" type="line"/>
      <point x="645" y="0" type="line"/>
      <point x="645" y="737" type="line"/>
      <point x="92" y="737" type="line"/>
    </contour>
  </outline>
</glyph>
<glyph name="uni0021" format="2">
  <advance width="292"/>
  <unicode hex="0021"/>
  <outline>
    <contour>
      <point x="63.34066362447701" y="736.7627532128251" type="line"/>
      <point x="228.9316495088186" y="736.7627532128251" type="line"/>
      <point x="228.9316495088186" y="257.5474925989703" type="line"/>
      <point x="63.34066362447701" y="257.5474925989703" type="line"/>
    </contour>
    <contour>
      <point x="146.13615656664786" y="187.11487019114634" type="curve" smooth="yes"/>
      <point x="201.46741167952317" y="187.11487019114634"/>
      <point x="244.30442107901047" y="147.3309262174175"/>
      <point x="244.30442107901044" y="89.47986600150148" type="curve" smooth="yes"/>
      <point x="244.30442107901044" y="31.628805785585804"/>
      <point x="201.46741167952317" y="-8.155138188143042"/>
      <point x="146.13615656664786" y="-8.155138188143042" type="curve" smooth="yes"/>
      <point x="90.80490145377254" y="-8.155138188143042"/>
      <point x="47.96789205428526" y="31.628805785585804"/>
      <point x="47.96789205428525" y="89.47986600150148" type="curve" smooth="yes"/>
      <point x="47.96789205428525" y="147.33092621741747"/>
      <point x="90.80490145377253" y="187.11487019114634"/>
    </contour>
  </outline>
</glyph>
<glyph name="uni0022" format="2">
  <advance width="489"/>
  <unicode hex="0022"/>
  <outline>
    <contour>
      <point x="50.38734132889927" y="736.7627532128251" type="line"/>
      <point x="215.97832721324087" y="736.7627532128251" type="line"/>
      <point x="208.22237892255137" y="410.65347693017253" type="line"/>
      <point x="58.14328961958877" y="410.65347693017253" type="line"/>
    </contour>
    <contour>
      <point x="272.7134919757702" y="736.7627532128251" type="line"/>
      <point x="438.30447786011183" y="736.7627532128251" type="line"/>
      <point x="430.5485295694222" y="410.65347693017253" type="line"/>
      <point x="280.4694402664597" y="410.65347693017253" type="line"/>
    </contour>
  </outline>
</glyph>
<glyph name="uni0023" format="2">
  <advance width="763"/>
  <unicode hex="0023"/>
  <outline>
    <contour>
      <point x="271.49302301302333" y="736.762753212825" type="line"/>
      <point x="421.4328452845618" y="736.762753212825" type="line"/>
      <point x="227.5299465512284" y="1.706162954975218" type="line"/>
      <point x="77.59012427968993" y="1.706162954975218" type="line"/>
    </contour>
    <contour>
      <point x="531.9278173524423" y="736.7627532128251" type="line"/>
      <point x="681.8676396239803" y="736.7627532128251" type="line"/>
      <point x="487.9647408906467" y="1.706162954975218" type="line"/>
      <point x="338.0249186191088" y="1.706162954975218" type="line"/>
    </contour>
    <contour>
      <point x="71.05800982619928" y="589.4102025702601" type="line"/>
      <point x="747.4181492564484" y="589.4102025702601" type="line"/>
      <point x="747.4181492564484" y="444.30547193842364" type="line"/>
      <point x="71.05800982619928" y="444.30547193842364" type="line"/>
    </contour>
    <contour>
      <point x="16.23200467178316" y="327.37525403765125" type="line"/>
      <point x="692.5921441020324" y="327.37525403765125" type="line"/>
      <point x="692.5921441020324" y="182.2705234058147" type="line"/>
      <point x="16.23200467178316" y="182.2705234058147" type="line"/>
    </contour>
  </outline>
</glyph>
<glyph name="uni0024" format="2">
  <advance width="576"/>
  <unicode hex="0024"/>
  <outline>
    <contour>
      <point x="531.9525868151776" y="651.0109444251285" type="curve"/>
      <point x="440.69423166782184" y="519.170064340915" type="line"/>
      <point x="399.26401708088486" y="559.2982898342282"/>
      <point x="354.5563408183931" y="586.5560739291276"/>
      <point x="301.8443735414264" y="586.5560739291276" type="curve" smooth="yes"/>
      <point x="233.98101707148885" y="586.5560739291276"/>
      <point x="205.86024431813573" y="565.2515461135739"/>
      <point x="205.86024431813576" y="533.6090268941408" type="curve" smooth="yes"/>
      <point x="205.86024431813576" y="501.53413260328546"/>
      <point x="228.3202325935937" y="486.18697071627474"/>
      <point x="314.4455666944497" y="456.622219418849" type="curve" smooth="yes"/>
      <point x="474.9845266549827" y="401.5130639731066"/>
      <point x="540.5481803629198" y="339.19887680279936"/>
      <point x="540.5481803629198" y="224.2581175779098" type="curve" smooth="yes"/>
      <point x="540.5481803629198" y="95.47627402455888"/>
      <point x="456.269927711996" y="0.9220980239004462"/>
      <point x="302.34094657342786" y="0.9220980239004564" type="curve" smooth="yes"/>
      <point x="170.57147076085775" y="0.9220980239004564"/>
      <point x="85.36517202380332" y="33.92091199830414"/>
      <point x="17.666149691564744" y="103.47194821603216" type="curve"/>
      <point x="111.4034092665833" y="234.88727003811374" type="line"/>
      <point x="163.77360122921596" y="185.5656485612284"/>
      <point x="223.6659901682113" y="155.44292257805955"/>
      <point x="282.4123956778908" y="155.44292257805952" type="curve" smooth="yes"/>
      <point x="328.996473710036" y="155.44292257805952"/>
      <point x="365.3594318131738" y="175.20762975901445"/>
      <point x="365.3594318131738" y="217.7055389069701" type="curve" smooth="yes"/>
      <point x="365.3594318131738" y="251.9673985782769"/>
      <point x="340.4298512660965" y="267.4776378180245"/>
      <point x="256.28238428602003" y="296.8090118899835" type="curve" smooth="yes"/>
      <point x="95.78097646474458" y="352.75516215255254"/>
      <point x="38.167044175263584" y="407.20017580890044"/>
      <point x="38.16704417526357" y="521.803848203462" type="curve" smooth="yes"/>
      <point x="38.16704417526357" y="657.110925122735"/>
      <point x="139.55899199017762" y="740.9115904279364"/>
      <point x="299.26300490232006" y="740.9115904279364" type="curve" smooth="yes"/>
      <point x="385.48898916797435" y="740.9115904279364"/>
      <point x="471.29878495002356" y="715.9858153618318"/>
    </contour>
    <contour>
      <point x="213.5276706146605" y="124.24231346984149" type="line"/>
      <point x="369.13705716687764" y="124.24231346984149" type="line"/>
      <point x="369.13705716687764" y="-118.6450384315695" type="line"/>
      <point x="213.5276706146605" y="-118.6450384315695" type="line"/>
    </contour>
    <contour>
      <point x="227.16540842018952" y="853.3085011181778" type="line"/>
      <point x="382.77479497240665" y="853.3085011181778" type="line"/>
      <point x="382.77479497240665" y="643.9275534430861" type="line"/>
      <point x="227.16540842018952" y="643.9275534430861" type="line"/>
    </contour>
  </outline>
</glyph>
<glyph name="uni0025" format="2">
  <advance width="967"/>
  <unicode hex="0025"/>
  <outline>
    <contour>
      <point x="599.2223464804825" y="736.762753212825" type="line"/>
      <point x="760.9745889534364" y="736.762753212825" type="line"/>
      <point x="368.08556840113096" y="1.706162954975218" type="line"/>
      <point x="206.3333259281775" y="1.706162954975218" type="line"/>
    </contour>
    <contour>
      <point x="743.2083998144328" y="419.56048867177554" type="curve" smooth="yes"/>
      <point x="858.7713411132937" y="419.56048867177554"/>
      <point x="935.8133019792014" y="334.1993682480054"/>
      <point x="935.8133019792014" y="206.15768761235043" type="curve" smooth="yes"/>
      <point x="935.8133019792014" y="78.11600697669613"/>
      <point x="858.7713411132937" y="-7.245113447074033"/>
      <point x="743.2083998144328" y="-7.2451134470740355" type="curve"/>
      <point x="627.6454585155717" y="-7.2451134470740355"/>
      <point x="550.6034976496642" y="78.11600697669611"/>
      <point x="550.6034976496642" y="206.15768761235043" type="curve" smooth="yes"/>
      <point x="550.6034976496642" y="334.1993682480054"/>
      <point x="627.6454585155718" y="419.5604886717756"/>
    </contour>
    <contour>
      <point x="228.24596452659006" y="751.2728107579061" type="curve" smooth="yes"/>
      <point x="343.80890582545095" y="751.2728107579061"/>
      <point x="420.8508666913586" y="665.911690334136"/>
      <point x="420.8508666913586" y="537.870009698481" type="curve" smooth="yes"/>
      <point x="420.8508666913586" y="409.8283290628266"/>
      <point x="343.808905825451" y="324.4672086390566"/>
      <point x="228.24596452659006" y="324.4672086390566" type="curve" smooth="yes"/>
      <point x="112.68302322772898" y="324.4672086390566"/>
      <point x="35.64106236182161" y="409.8283290628266"/>
      <point x="35.641062361821625" y="537.870009698481" type="curve" smooth="yes"/>
      <point x="35.641062361821625" y="665.911690334136"/>
      <point x="112.68302322772898" y="751.2728107579062"/>
    </contour>
    <contour>
      <point x="688.7587567512475" y="206.15768761235043" type="curve" smooth="yes"/>
      <point x="688.7587567512475" y="151.45318964564223"/>
      <point x="712.8446722216077" y="117.2253921344931"/>
      <point x="743.2083998144328" y="117.2253921344931" type="curve" smooth="yes"/>
      <point x="773.5721274072581" y="117.2253921344931"/>
      <point x="797.6580428776183" y="151.45318964564223"/>
      <point x="797.6580428776183" y="206.15768761235043" type="curve" smooth="yes"/>
      <point x="797.6580428776183" y="260.8621855790593"/>
      <point x="773.5721274072581" y="295.08998309020825"/>
      <point x="743.2083998144328" y="295.08998309020825" type="curve" smooth="yes"/>
      <point x="712.8446722216077" y="295.08998309020825"/>
      <point x="688.7587567512475" y="260.8621855790593"/>
    </contour>
    <contour>
      <point x="173.79632146340472" y="537.870009698481" type="curve" smooth="yes"/>
      <point x="173.79632146340472" y="483.1655117317727"/>
      <point x="197.8822369337649" y="448.9377142206235"/>
      <point x="228.24596452659006" y="448.9377142206235" type="curve" smooth="yes"/>
      <point x="258.60969211941546" y="448.9377142206235"/>
      <point x="282.6956075897756" y="483.16551173177265"/>
      <point x="282.6956075897756" y="537.870009698481" type="curve" smooth="yes"/>
      <point x="282.6956075897756" y="592.5745076651899"/>
      <point x="258.60969211941546" y="626.802305176339"/>
      <point x="228.24596452659006" y="626.802305176339" type="curve" smooth="yes"/>
      <point x="197.8822369337649" y="626.802305176339"/>
      <point x="173.79632146340472" y="592.57450766519"/>
    </contour>
  </outline>
</glyph>
<glyph name="uni0026" format="2">
  <advance width="852"/>
  <unicode hex="0026"/>
  <outline>
    <contour>
      <point x="278.6084493074976" y="329.1043816423863" type="line" smooth="yes"/>
      <point x="186.48036925491357" y="417.94297913555795"/>
      <point x="147.89438652679704" y="486.1806346156525"/>
      <point x="147.894386526797" y="555.0544470381762" type="curve"/>
      <point x="303.81382079331985" y="555.8419361269562" type="line"/>
      <point x="303.81382079331985" y="523.6768966305501"/>
      <point x="334.1736606759976" y="488.2661542048805"/>
      <point x="397.4610244748566" y="428.54994125807673" type="curve" smooth="yes"/>
      <point x="851.6391228505873" y="0.0" type="line"/>
      <point x="619.898785638352" y="0.0" type="line"/>
    </contour>
    <contour>
      <point x="278.62462380698616" y="457.93844707670246" type="curve" smooth="yes"/>
      <point x="409.9517317450005" y="506.8155481436654"/>
      <point x="421.60810698557697" y="527.9347151086741"/>
      <point x="421.608106985577" y="559.2092602914626" type="curve"/>
      <point x="475.1492570902484" y="604.3817794073456" type="line"/>
      <point x="576.1544828961198" y="563.4152038953238" type="line"/>
      <point x="576.1544828961198" y="475.05766020508435"/>
      <point x="530.257756217671" y="408.0432790118284"/>
      <point x="346.0550112629032" y="333.4882939614603" type="curve" smooth="yes"/>
      <point x="208.03021337079363" y="277.6235632488253"/>
      <point x="189.2447893379341" y="253.14612938011885"/>
      <point x="189.24478933793407" y="209.90647685566316" type="curve"/>
      <point x="27.37076454828874" y="194.7945325940063" type="line"/>
      <point x="27.37076454828876" y="301.00689721491926"/>
      <point x="81.53078241600187" y="384.5843943103079"/>
    </contour>
    <contour>
      <point x="396.93952287917733" y="196.06509698272882" type="curve" smooth="yes"/>
      <point x="717.0630196050643" y="535.3114392698019" type="line"/>
      <point x="830.6748677725598" y="427.7904956063461" type="line"/>
      <point x="507.23987274254614" y="93.36904340644489" type="line" smooth="yes"/>
      <point x="411.3622511979143" y="-5.765354302909088"/>
      <point x="318.8871608235322" y="-13.321205305241065"/>
      <point x="262.1507714158818" y="-13.321205305241074" type="curve"/>
      <point x="277.01574747451167" y="132.57242882326344" type="line"/>
      <point x="316.0654045851342" y="132.57242882326344"/>
      <point x="352.3009300638266" y="148.75998038762725"/>
    </contour>
    <contour>
      <point x="421.608106985577" y="559.2092602914626" type="line"/>
      <point x="421.608106985577" y="580.5974364299406"/>
      <point x="404.87669358858534" y="612.0105509171998"/>
      <point x="363.53020019524314" y="612.0105509171998" type="curve" smooth="yes"/>
      <point x="322.550670988117" y="612.0105509171998"/>
      <point x="303.8138207933198" y="587.1335505224804"/>
      <point x="303.81382079331985" y="555.8419361269562" type="curve"/>
      <point x="224.01709215586342" y="524.1649349436614" type="line"/>
      <point x="147.894386526797" y="555.0544470381762" type="line"/>
      <point x="147.894386526797" y="677.5088341104207"/>
      <point x="257.4243245454818" y="743.8089226750246"/>
      <point x="366.5102532554179" y="743.8089226750247" type="curve" smooth="yes"/>
      <point x="487.1812309058979" y="743.8089226750247"/>
      <point x="576.1544828961198" y="665.2935978486771"/>
      <point x="576.1544828961198" y="563.4152038953238" type="curve"/>
    </contour>
    <contour>
      <point x="277.01574747451167" y="132.57242882326344" type="curve"/>
      <point x="303.2581432659533" y="61.49940228301558" type="line"/>
      <point x="262.1507714158818" y="-13.321205305241074" type="line"/>
      <point x="117.22393614463118" y="-13.321205305241074"/>
      <point x="27.370764548288747" y="86.5552908270346"/>
      <point x="27.37076454828874" y="194.7945325940063" type="curve"/>
      <point x="102.4275530707825" y="250.07077025472472" type="line"/>
      <point x="189.24478933793407" y="209.90647685566316" type="line"/>
      <point x="189.24478933793407" y="169.714764693153"/>
      <point x="230.70916032891807" y="132.57242882326346"/>
    </contour>
  </outline>
</glyph>
<glyph name="uni0027" format="2">
  <advance width="266"/>
  <unicode hex="0027"/>
  <outline>
    <contour>
      <point x="50.38734132889927" y="736.7627532128251" type="line"/>
      <point x="215.97832721324087" y="736.7627532128251" type="line"/>
      <point x="208.22237892255137" y="412.4578545365688" type="line"/>
      <point x="58.14328961958877" y="412.4578545365688" type="line"/>
    </contour>
  </outline>
</glyph>
<glyph name="uni0028" format="2">
  <advance width="425"/>
  <unicode hex="0028"/>
  <outline>
    <contour>
      <point x="6.0219233300116555" y="311.0691878797023" type="curve" smooth="yes"/>
      <point x="6.021923330011907" y="661.4366996001716"/>
      <point x="211.75881956670506" y="830.5669352110077"/>
      <point x="408.1793206441486" y="830.5669352110078" type="curve"/>
      <point x="408.17932064414873" y="680.6395788578025" type="line"/>
      <point x="276.01367083113837" y="655.6127940493615"/>
      <point x="167.44957686908833" y="565.3514643571101"/>
      <point x="167.4495768690883" y="320.1517720066058" type="curve" smooth="yes"/>
      <point x="167.4495768690883" y="61.29513140423364"/>
      <point x="276.53196754448265" y="-11.402001142306801"/>
      <point x="408.17932064414856" y="-42.71530268951612" type="curve"/>
      <point x="408.1793206441482" y="-198.17630165865538" type="line"/>
      <point x="204.44806571765227" y="-198.17630165865538"/>
      <point x="6.021923330011418" y="-29.771754181683008"/>
    </contour>
  </outline>
</glyph>
<glyph name="uni0029" format="2">
  <advance width="426"/>
  <unicode hex="0029"/>
  <outline>
    <contour>
      <point x="419.9282278178904" y="321.32144567264993" type="curve" smooth="yes"/>
      <point x="419.9282278178902" y="-29.04606604781935"/>
      <point x="214.19133158119706" y="-198.17630165865546"/>
      <point x="17.77083050375351" y="-198.17630165865555" type="curve"/>
      <point x="17.770830503753384" y="-48.24894530545025" type="line"/>
      <point x="149.93648031676378" y="-23.222160497009245"/>
      <point x="258.50057427881376" y="67.03916919524212"/>
      <point x="258.50057427881376" y="312.23886154574643" type="curve" smooth="yes"/>
      <point x="258.50057427881376" y="571.0955021481186"/>
      <point x="149.41818360341932" y="643.792634694659"/>
      <point x="17.770830503753466" y="675.1059362418683" type="curve"/>
      <point x="17.77083050375376" y="830.5669352110076" type="line"/>
      <point x="221.5020854302497" y="830.5669352110076"/>
      <point x="419.92822781789056" y="662.1623877340353"/>
    </contour>
  </outline>
</glyph>
<glyph name="uni002A" format="2">
  <advance width="570"/>
  <unicode hex="002A"/>
  <outline>
    <contour>
      <point x="350.5818361769545" y="502.0171874830009" type="line"/>
      <point x="297.6073118348984" y="542.2265085628919" type="line"/>
      <point x="520.5206746503122" y="613.7697810492344" type="line"/>
      <point x="565.2321586218983" y="485.4670470132255" type="line"/>
      <point x="333.8105320694903" y="419.27746402534655" type="line"/>
      <point x="358.62653771575026" y="468.0510563655217" type="line"/>
      <point x="503.48162475940785" y="283.36122525819343" type="line"/>
      <point x="400.2582030720167" y="191.02847381514684" type="line"/>
      <point x="251.45821601105865" y="397.1499857214404" type="line"/>
      <point x="316.93464728892764" y="397.1499857214404" type="line"/>
      <point x="168.13466022796976" y="191.02847381514667" type="line"/>
      <point x="64.91123854057841" y="283.36122525819326" type="line"/>
      <point x="210.18307041275844" y="468.5051417790925" type="line"/>
      <point x="235.05046980979674" y="419.9052246801979" type="line"/>
      <point x="4.5207683489490424" y="484.9338241659696" type="line"/>
      <point x="48.71685345316463" y="613.4228362106213" type="line"/>
      <point x="272.3593412853639" y="542.5366771021904" type="line"/>
      <point x="217.7552985354372" y="502.1775631808323" type="line"/>
      <point x="214.16834207488407" y="736.7627532128251" type="line"/>
      <point x="355.736019698034" y="736.7627532128251" type="line"/>
    </contour>
  </outline>
</glyph>
<glyph name="uni002B" format="2">
  <advance width="590"/>
  <unicode hex="002B"/>
  <outline>
    <contour>
      <point x="19.055538308425955" y="440.81962144542445" type="line"/>
      <point x="570.7096440818304" y="440.81962144542445" type="line"/>
      <point x="570.7096440818304" y="293.6735215271767" type="line"/>
      <point x="19.055538308425955" y="293.6735215271767" type="line"/>
    </contour>
    <contour>
      <point x="368.45564115425196" y="652.216514090513" type="line"/>
      <point x="368.45564115425196" y="66.07015553587996" type="line"/>
      <point x="221.30954123600412" y="66.07015553587996" type="line"/>
      <point x="221.30954123600412" y="652.216514090513" type="line"/>
    </contour>
  </outline>
</glyph>
<glyph name="uni002C" format="2">
  <advance width="321"/>
  <unicode hex="002C"/>
  <outline>
    <contour>
      <point x="118.2270855668324" y="209.94133880931238" type="line"/>
      <point x="300.76026254469946" y="209.94133880931238" type="line"/>
      <point x="150.00438408035498" y="-116.86777248455529" type="line"/>
      <point x="-26.1766111903176" y="-116.86777248455529" type="line"/>
    </contour>
  </outline>
</glyph>
<glyph name="uni002D" format="2">
  <advance width="411"/>
  <unicode hex="002D"/>
  <outline>
    <contour>
      <point x="50.56617369335768" y="414.8420336670667" type="line"/>
      <point x="360.3947160578826" y="414.8420336670667" type="line"/>
      <point x="360.3947160578826" y="246.43899630361565" type="line"/>
      <point x="50.56617369335768" y="246.43899630361565" type="line"/>
    </contour>
  </outline>
</glyph>
<glyph name="uni002E" format="2">
  <advance width="294"/>
  <unicode hex="002E"/>
  <outline>
    <contour>
      <point x="146.79186057767186" y="187.11487019114634" type="curve" smooth="yes"/>
      <point x="202.12311569054717" y="187.11487019114634"/>
      <point x="244.96012509003447" y="147.3309262174175"/>
      <point x="244.96012509003447" y="89.47986600150148" type="curve" smooth="yes"/>
      <point x="244.96012509003447" y="31.628805785585804"/>
      <point x="202.1231156905472" y="-8.155138188143042"/>
      <point x="146.79186057767186" y="-8.155138188143042" type="curve" smooth="yes"/>
      <point x="91.46060546479654" y="-8.155138188143042"/>
      <point x="48.62359606530926" y="31.628805785585804"/>
      <point x="48.62359606530925" y="89.47986600150148" type="curve" smooth="yes"/>
      <point x="48.62359606530925" y="147.33092621741747"/>
      <point x="91.46060546479653" y="187.11487019114634"/>
    </contour>
  </outline>
</glyph>
<glyph name="uni002F" format="2">
  <advance width="605"/>
  <unicode hex="002F"/>
  <outline>
    <contour>
      <point x="439.17346306177996" y="816.7329708298482" type="line"/>
      <point x="604.7644489461217" y="816.7329708298482" type="line"/>
      <point x="165.5909858843416" y="-187.90609918982534" type="line"/>
      <point x="0.0" y="-187.90609918982534" type="line"/>
    </contour>
  </outline>
</glyph>
<glyph name="uni0030" format="2">
  <advance width="684"/>
  <unicode hex="0030"/>
  <outline>
    <contour>
      <point x="33.88280347008769" y="367.9944554205044" type="curve" smooth="yes"/>
      <point x="33.8828034700876" y="587.7631769940803"/>
      <point x="181.12062194884646" y="746.269641833981"/>
      <point x="342.08083077272477" y="746.269641833981" type="curve" smooth="yes"/>
      <point x="522.3393263527418" y="746.269641833981"/>
      <point x="650.2788580753618" y="587.7631769940805"/>
      <point x="650.2788580753618" y="367.99445542050387" type="curve" smooth="yes"/>
      <point x="650.2788580753618" y="148.2442381973393"/>
      <point x="503.0274868758843" y="-9.955452843448654"/>
      <point x="342.0808307727247" y="-9.95545284344863" type="curve" smooth="yes"/>
      <point x="161.83751281372113" y="-9.95545284344863"/>
      <point x="33.88280347008771" y="148.244238197339"/>
    </contour>
    <contour>
      <point x="195.31045700916425" y="367.9944554205042" type="curve" smooth="yes"/>
      <point x="195.31045700916425" y="245.80510222545107"/>
      <point x="264.6015946812189" y="163.43744506567592"/>
      <point x="342.08083077272494" y="163.43744506567592" type="curve" smooth="yes"/>
      <point x="419.5600660531269" y="163.43744506567592"/>
      <point x="488.85120365390367" y="245.80510545385368"/>
      <point x="488.85120453628525" y="367.9944554205035" type="curve" smooth="yes"/>
      <point x="488.85120453628525" y="490.20353903564575"/>
      <point x="419.57257775684377" y="572.8767439248564"/>
      <point x="342.08083077272494" y="572.8767439248564" type="curve" smooth="yes"/>
      <point x="264.5890845998412" y="572.8767439248564"/>
      <point x="195.31045789168823" y="490.20353580672196"/>
    </contour>
  </outline>
</glyph>
<glyph name="uni0031" format="2">
  <advance width="574"/>
  <unicode hex="0031"/>
  <outline>
    <contour>
      <point x="221.87821195771542" y="737.3147871559439" type="line"/>
      <point x="387.46919784205704" y="737.3147871559439" type="line"/>
      <point x="387.46919784205704" y="-0.4629258721517405" type="line"/>
      <point x="221.87821195771542" y="-0.4629258721517405" type="line"/>
    </contour>
    <contour>
      <point x="221.87821195771542" y="573.0245266519534" type="line"/>
      <point x="62.05567163150439" y="519.31694006894" type="line"/>
      <point x="12.866318800142599" y="667.0773580315685" type="line"/>
      <point x="221.87821195771542" y="737.3147871559439" type="line"/>
    </contour>
    <contour>
      <point x="32.62798161205377" y="164.79796141073405" type="line"/>
      <point x="556.1173824917704" y="164.79796141073405" type="line"/>
      <point x="556.1173824917704" y="0.0" type="line"/>
      <point x="32.62798161205377" y="0.0" type="line"/>
    </contour>
  </outline>
</glyph>
<glyph name="uni0032" format="2">
  <advance width="601"/>
  <unicode hex="0032"/>
  <outline>
    <contour>
      <point x="42.77571704773226" y="157.8897170335072" type="line"/>
      <point x="182.6238832502231" y="301.638656491918"/>
      <point x="377.68019881475163" y="411.9476950012838"/>
      <point x="377.68019881475163" y="507.4979797003052" type="curve" smooth="yes"/>
      <point x="377.68019909780816" y="563.1805204250869"/>
      <point x="325.6375024648279" y="586.9115327447907"/>
      <point x="275.92881303531846" y="586.9115327447907" type="curve" smooth="yes"/>
      <point x="202.1315996004281" y="586.9115327447907"/>
      <point x="140.03314368061038" y="569.7821516298027"/>
      <point x="82.01732940734864" y="533.4576247461728" type="curve"/>
      <point x="20.576093402065467" y="683.8349119217768" type="line"/>
      <point x="114.49916910413826" y="733.0333561719884"/>
      <point x="196.5628664769191" y="749.8515281040821"/>
      <point x="275.92881303531846" y="749.8515281040821" type="curve" smooth="yes"/>
      <point x="442.29378280924436" y="749.8515281040821"/>
      <point x="557.8896242893524" y="676.824820471547"/>
      <point x="557.8896242893524" y="525.6471558299123" type="curve" smooth="yes"/>
      <point x="557.8896242893524" y="334.80579477943456"/>
      <point x="368.4955000454255" y="249.26241394188543"/>
      <point x="207.00514692132248" y="86.13454067277155" type="curve"/>
    </contour>
    <contour>
      <point x="42.77571704773226" y="157.8897170335072" type="line"/>
      <point x="187.20007138176354" y="173.32609400453637" type="line"/>
      <point x="563.0638694758542" y="173.32609400453637" type="line"/>
      <point x="563.0638694758542" y="0.0" type="line"/>
      <point x="42.77571704773226" y="0.0" type="line"/>
    </contour>
  </outline>
</glyph>
<glyph name="uni0033" format="2">
  <advance width="594"/>
  <unicode hex="0033"/>
  <outline>
    <contour>
      <point x="246.59398665488254" y="450.07544708926855" type="line" smooth="yes"/>
      <point x="325.0781505178032" y="450.07544708926855"/>
      <point x="358.1982238676935" y="480.64593066251433"/>
      <point x="358.19822414196" y="524.9167221046273" type="curve" smooth="yes"/>
      <point x="358.1982243928778" y="565.418739118763"/>
      <point x="313.7362897813689" y="581.8147363788073"/>
      <point x="264.9966850715116" y="581.8147363788073" type="curve" smooth="yes"/>
      <point x="194.46040583802295" y="581.8147363788073"/>
      <point x="149.0104944130347" y="566.4257093189391"/>
      <point x="99.44703563055364" y="540.0910150621056" type="curve"/>
      <point x="23.78806332929053" y="687.7725681316374" type="line"/>
      <point x="91.59751087258007" y="732.2403526660096"/>
      <point x="176.9260985176167" y="749.7146370885262"/>
      <point x="274.1944306545362" y="749.7146370885262" type="curve" smooth="yes"/>
      <point x="422.68245122220196" y="749.7146370885262"/>
      <point x="545.0435805649818" y="694.6924611624343"/>
      <point x="545.0435805649817" y="559.4803318087246" type="curve" smooth="yes"/>
      <point x="545.0435805649817" y="491.9707504501593"/>
      <point x="501.8091299356049" y="386.4570557321422"/>
      <point x="391.5836084310376" y="374.4675147507632" type="curve"/>
      <point x="390.2114422683584" y="403.3693417785008" type="line"/>
      <point x="485.6764287632175" y="385.86811698503004"/>
      <point x="559.1313941176323" y="305.9413049679247"/>
      <point x="559.1313941176323" y="223.4186004056045" type="curve" smooth="yes"/>
      <point x="559.1313941176323" y="72.20090888273947"/>
      <point x="460.28900706419546" y="-12.590982122574616"/>
      <point x="264.9966850715116" y="-12.590982122574635" type="curve"/>
      <point x="166.8797519735619" y="-12.590982122574635"/>
      <point x="66.30838872828065" y="6.500334411504882"/>
      <point x="15.397225767665008" y="33.2379064950493" type="curve"/>
      <point x="77.35520901127387" y="193.28551953402976" type="line"/>
      <point x="121.10101884858379" y="167.6928963502788"/>
      <point x="189.3662698128312" y="151.23238694174177"/>
      <point x="246.59398665488254" y="151.23238694174177" type="curve" smooth="yes"/>
      <point x="307.91400244250315" y="151.23238694174177"/>
      <point x="365.1830999531871" y="166.05718932921678"/>
      <point x="365.1830996766557" y="217.3318283438415" type="curve" smooth="yes"/>
      <point x="365.18309944990386" y="259.3763507442822"/>
      <point x="323.909141568546" y="287.8709793324702"/>
      <point x="254.97199860978716" y="287.8709793324702" type="curve" smooth="yes"/>
      <point x="184.2358436686867" y="287.8709793324702" type="line"/>
      <point x="184.2358436686867" y="450.07544708926855" type="line"/>
    </contour>
  </outline>
</glyph>
<glyph name="uni0034" format="2">
  <advance width="651"/>
  <unicode hex="0034"/>
  <outline>
    <contour>
      <point x="24.13789885438262" y="321.7738430251042" type="line"/>
      <point x="633.1481065989071" y="321.7738430251042" type="line"/>
      <point x="633.1481065989071" y="156.5590411920622" type="line"/>
      <point x="24.13789885438262" y="156.5590411920622" type="line"/>
    </contour>
    <contour>
      <point x="292.8186528213763" y="737.3147871559439" type="line"/>
      <point x="555.9798381143783" y="736.7627532128251" type="line"/>
      <point x="555.9798381143783" y="-1.014959815270424" type="line"/>
      <point x="390.3888522300368" y="-1.014959815270424" type="line"/>
      <point x="390.3888522300366" y="626.9841782297977" type="line"/>
      <point x="409.41829139814655" y="621.4244139386441" type="line"/>
      <point x="214.17704550190751" y="321.7738430251042" type="line"/>
      <point x="24.13789885438262" y="321.7738430251042" type="line"/>
    </contour>
  </outline>
</glyph>
<glyph name="uni0035" format="2">
  <advance width="611"/>
  <unicode hex="0035"/>
  <outline>
    <contour>
      <point x="333.6806568640523" y="463.8390361299008" type="line" smooth="yes"/>
      <point x="499.6391514515399" y="463.8390361299008"/>
      <point x="580.1994655378475" y="346.0610985268555"/>
      <point x="580.1994655378475" y="237.79759033190948" type="curve" smooth="yes"/>
      <point x="580.1994655378475" y="99.478681713633"/>
      <point x="489.9115741828506" y="-15.391721874706121"/>
      <point x="292.39513027483656" y="-15.391721874706114" type="curve" smooth="yes"/>
      <point x="196.86065185497282" y="-15.391721874706114"/>
      <point x="94.0026133525975" y="0.2732100095865473"/>
      <point x="10.530153421087046" y="58.960239228249144" type="curve"/>
      <point x="99.28525091301283" y="211.22509454655267" type="line"/>
      <point x="149.24424763329566" y="175.67666094968408"/>
      <point x="222.25811096055918" y="155.01974270450634"/>
      <point x="283.7019549519759" y="155.01974270450634" type="curve" smooth="yes"/>
      <point x="346.8205385171117" y="155.01974270450634"/>
      <point x="393.52825096034945" y="179.71720519160135"/>
      <point x="393.52825096034945" y="227.9154647425375" type="curve" smooth="yes"/>
      <point x="393.52825096034945" y="268.46680990302013"/>
      <point x="359.0623446527305" y="304.31183472279497"/>
      <point x="271.1192965666053" y="304.31183472279497" type="curve" smooth="yes"/>
      <point x="65.14625730645601" y="304.31183472279497" type="line"/>
      <point x="77.20228163577052" y="736.7627532128251" type="line"/>
      <point x="525.187458657937" y="736.7627532128251" type="line"/>
      <point x="525.187458657937" y="559.0610142225695" type="line"/>
      <point x="228.10529544633548" y="559.0610142225695" type="line"/>
      <point x="251.9924420577367" y="582.4957986332391" type="line"/>
      <point x="249.27055678844158" y="440.13963286596817" type="line"/>
      <point x="226.01996034061418" y="463.8390361299008" type="line"/>
    </contour>
  </outline>
</glyph>
<glyph name="uni0036" format="2">
  <advance width="677"/>
  <unicode hex="0036"/>
  <outline>
    <contour>
      <point x="357.6034653741386" y="561.024274367525" type="curve" smooth="yes"/>
      <point x="531.4981886297836" y="561.024274367525"/>
      <point x="645.8014339904448" y="443.4468313954437"/>
      <point x="645.8014339904448" y="283.14509418318914" type="curve" smooth="yes"/>
      <point x="645.8014339904448" y="114.49714812829984"/>
      <point x="507.9255438692731" y="-11.22630794028953"/>
      <point x="344.5631774485926" y="-11.22630794028956" type="curve"/>
      <point x="155.29730621988523" y="-11.22630794028956"/>
      <point x="34.90838388117834" y="120.85673698580314"/>
      <point x="34.90838388117836" y="295.32809175112243" type="curve" smooth="yes"/>
      <point x="34.90838388117836" y="469.3519418451195"/>
      <point x="141.59483952065546" y="641.5622279667773"/>
      <point x="323.87593527053497" y="736.7627532128251" type="curve"/>
      <point x="562.6435881329238" y="736.7627532128251" type="line"/>
      <point x="562.6435881329238" y="706.7031936302868" type="line"/>
      <point x="442.3947766198231" y="655.2363851321303"/>
      <point x="318.5014994519148" y="563.1770307387467"/>
      <point x="244.96879381779263" y="446.23856413528245" type="curve"/>
      <point x="151.3787561271779" y="498.4876497546985" type="line"/>
      <point x="209.7296887016593" y="540.28718120248"/>
      <point x="300.795396245183" y="561.024274367525"/>
    </contour>
    <contour>
      <point x="225.27509642341172" y="280.4459914586559" type="curve" smooth="yes"/>
      <point x="225.27509642341172" y="211.33453860739527"/>
      <point x="276.0187479124636" y="162.8734365290872"/>
      <point x="342.459626900944" y="162.87343652908717" type="curve" smooth="yes"/>
      <point x="408.90050519387694" y="162.87343652908717"/>
      <point x="459.6441566218063" y="211.33454043341044"/>
      <point x="459.64415737847577" y="280.4459914586557" type="curve" smooth="yes"/>
      <point x="459.64415737847577" y="349.5574443099164"/>
      <point x="408.90050588942427" y="398.0185463882244"/>
      <point x="342.459626900944" y="398.0185463882244" type="curve" smooth="yes"/>
      <point x="276.01874860801104" y="398.0185463882244"/>
      <point x="225.27509718008162" y="349.557442483901"/>
    </contour>
  </outline>
</glyph>
<glyph name="uni0037" format="2">
  <advance width="576"/>
  <unicode hex="0037"/>
  <outline>
    <contour>
      <point x="270.41029756043093" y="-0.4629258721517405" type="line"/>
      <point x="74.73174652683939" y="-0.4629258721517405" type="line"/>
      <point x="388.78557704447513" y="619.3868354321285" type="line"/>
      <point x="420.9092790444837" y="567.0994064078649" type="line"/>
      <point x="18.490831581097403" y="567.0994064078648" type="line"/>
      <point x="18.490831581097403" y="737.3147871559439" type="line"/>
      <point x="550.8028659241743" y="737.3147871559439" type="line"/>
      <point x="550.8028659241743" y="567.0994064078648" type="line"/>
    </contour>
  </outline>
</glyph>
<glyph name="uni0038" format="2">
  <advance width="665"/>
  <unicode hex="0038"/>
  <outline>
    <contour>
      <point x="28.96598868458292" y="212.75645910169558" type="curve" smooth="yes"/>
      <point x="28.96598868458292" y="305.9423717216602"/>
      <point x="123.88574355140751" y="400.2365315225306"/>
      <point x="214.3710868625076" y="412.50472739419104" type="curve"/>
      <point x="214.1275788249727" y="384.1919288344354" type="line"/>
      <point x="97.60222493944654" y="394.8997600359094"/>
      <point x="54.16307395776684" y="482.386696389677"/>
      <point x="54.163073957766834" y="547.9627993961775" type="curve" smooth="yes"/>
      <point x="54.163073957766834" y="673.5876176542006"/>
      <point x="182.65594060343423" y="750.1025749138433"/>
      <point x="332.5149921728072" y="750.1025749138433" type="curve" smooth="yes"/>
      <point x="482.3740437421801" y="750.1025749138433"/>
      <point x="610.8669103878474" y="673.5876176542006"/>
      <point x="610.8669103878474" y="547.9627993961775" type="curve" smooth="yes"/>
      <point x="610.8669103878474" y="488.957746921922"/>
      <point x="567.0513836513658" y="391.86822362825654"/>
      <point x="440.12502040110155" y="378.8326781175323" type="curve"/>
      <point x="439.7485787854785" y="421.7527815317666" type="line"/>
      <point x="563.8954257199612" y="386.7083716021417"/>
      <point x="636.0639956610314" y="298.5323681812644"/>
      <point x="636.0639956610314" y="212.75645910169558" type="curve" smooth="yes"/>
      <point x="636.0639956610314" y="67.69896296936983"/>
      <point x="514.9986328150312" y="-13.899592964271164"/>
      <point x="332.5149921728072" y="-13.899592964271156" type="curve" smooth="yes"/>
      <point x="150.0313515305831" y="-13.899592964271156"/>
      <point x="28.965988684582953" y="67.69896296936983"/>
    </contour>
    <contour>
      <point x="219.98932640026933" y="220.69000095427867" type="curve" smooth="yes"/>
      <point x="219.9893261281099" y="170.2260552812146"/>
      <point x="284.7200580259822" y="148.63286785427664"/>
      <point x="332.5149921728072" y="148.63286785427664" type="curve" smooth="yes"/>
      <point x="380.3099263196325" y="148.63286785427664"/>
      <point x="445.0406582175046" y="170.2260552812146"/>
      <point x="445.0406579453452" y="220.69000095427867" type="curve" smooth="yes"/>
      <point x="445.04065766899254" y="271.931548272223"/>
      <point x="386.09995616129373" y="295.13400830573505"/>
      <point x="332.5149921728072" y="295.13400830573505" type="curve" smooth="yes"/>
      <point x="278.9300281843208" y="295.13400830573505"/>
      <point x="219.98932667662189" y="271.931548272223"/>
    </contour>
    <contour>
      <point x="242.0723130414758" y="517.8946994996976" type="curve" smooth="yes"/>
      <point x="242.0723133072977" y="479.0004415861864"/>
      <point x="288.2805743794855" y="456.39335460411695"/>
      <point x="332.5149921728072" y="456.39335460411695" type="curve" smooth="yes"/>
      <point x="376.74940996612855" y="456.39335460411695"/>
      <point x="422.957671038316" y="479.00044158618647"/>
      <point x="422.9576713041388" y="517.8946994996976" type="curve" smooth="yes"/>
      <point x="422.95767156833364" y="556.5509260108256"/>
      <point x="383.83363880748243" y="581.2176532901576"/>
      <point x="332.5149921728072" y="581.2176532901576" type="curve" smooth="yes"/>
      <point x="281.19634553813205" y="581.2176532901576"/>
      <point x="242.07231277728073" y="556.5509260108256"/>
    </contour>
  </outline>
</glyph>
<glyph name="uni0039" format="2">
  <advance width="654"/>
  <unicode hex="0039"/>
  <outline>
    <contour>
      <point x="306.94094701546715" y="203.321528364347" type="curve" smooth="yes"/>
      <point x="140.54132394897158" y="203.321528364347"/>
      <point x="30.880560226927344" y="315.5362115414931"/>
      <point x="30.880560226927315" y="468.92872483707794" type="curve" smooth="yes"/>
      <point x="30.880560226927482" y="630.652023082168"/>
      <point x="169.95820063066986" y="744.3981455333712"/>
      <point x="326.61294398625574" y="744.3981455333711" type="curve" smooth="yes"/>
      <point x="508.03466428782036" y="744.3981455333711"/>
      <point x="622.2805621456843" y="616.4770553411333"/>
      <point x="622.2805621456843" y="449.2366906658787" type="curve" smooth="yes"/>
      <point x="622.2805621456843" y="265.0953798356271"/>
      <point x="491.85622780581264" y="93.72882133803529"/>
      <point x="343.88749836174145" y="0.0" type="curve"/>
      <point x="111.66285806328302" y="0.0" type="line"/>
      <point x="111.66285806328302" y="30.059559582538377" type="line"/>
      <point x="214.47824271152496" y="77.23086849166754"/>
      <point x="323.206684556074" y="163.89686023583315"/>
      <point x="391.0043499974502" y="270.4822082071873" type="curve"/>
      <point x="452.6249715375432" y="239.90352431999685" type="line"/>
      <point x="420.68289189389844" y="224.990923861677"/>
      <point x="365.17386369834696" y="203.321528364347"/>
    </contour>
    <contour>
      <point x="442.90417960004345" y="464.203535113286" type="curve" smooth="yes"/>
      <point x="442.90417960004345" y="527.670696598579"/>
      <point x="390.9464673360163" y="572.174009211304"/>
      <point x="328.17289513954296" y="572.174009211304" type="curve" smooth="yes"/>
      <point x="265.3993236002253" y="572.174009211304"/>
      <point x="213.2759243291825" y="527.6706949216934"/>
      <point x="213.27592361427867" y="464.203535113286" type="curve" smooth="yes"/>
      <point x="213.27592361427867" y="400.7363736279933"/>
      <point x="265.3993229430699" y="356.23306101526816"/>
      <point x="328.17289513954296" y="356.23306101526816" type="curve" smooth="yes"/>
      <point x="390.94646667886065" y="356.23306101526816"/>
      <point x="442.90417888513934" y="400.73637530487895"/>
    </contour>
  </outline>
</glyph>
<glyph name="uni003A" format="2">
  <advance width="288"/>
  <unicode hex="003A"/>
  <outline>
    <contour>
      <point x="144.13616494298924" y="188.19628630432976" type="curve" smooth="yes"/>
      <point x="199.46742005586455" y="188.19628630432976"/>
      <point x="242.30442945535185" y="148.41234233060092"/>
      <point x="242.30442945535185" y="90.56128211468489" type="curve" smooth="yes"/>
      <point x="242.30442945535185" y="32.71022189876921"/>
      <point x="199.46742005586458" y="-7.073722074959633"/>
      <point x="144.13616494298924" y="-7.073722074959632" type="curve" smooth="yes"/>
      <point x="88.80490983011393" y="-7.073722074959632"/>
      <point x="45.96790043062664" y="32.71022189876921"/>
      <point x="45.96790043062664" y="90.56128211468489" type="curve" smooth="yes"/>
      <point x="45.96790043062664" y="148.4123423306009"/>
      <point x="88.80490983011393" y="188.19628630432976"/>
    </contour>
    <contour>
      <point x="144.13616494298924" y="546.9503274655715" type="curve" smooth="yes"/>
      <point x="199.46742005586455" y="546.9503274655715"/>
      <point x="242.30442945535185" y="507.1663834918426"/>
      <point x="242.30442945535185" y="449.31532327592663" type="curve" smooth="yes"/>
      <point x="242.30442945535185" y="391.46426306001086"/>
      <point x="199.46742005586458" y="351.680319086282"/>
      <point x="144.13616494298924" y="351.68031908628205" type="curve" smooth="yes"/>
      <point x="88.80490983011393" y="351.68031908628205"/>
      <point x="45.96790043062664" y="391.4642630600109"/>
      <point x="45.96790043062664" y="449.31532327592663" type="curve" smooth="yes"/>
      <point x="45.96790043062664" y="507.1663834918426"/>
      <point x="88.80490983011393" y="546.9503274655715"/>
    </contour>
  </outline>
</glyph>
<glyph name="uni003B" format="2">
  <advance width="317"/>
  <unicode hex="003B"/>
  <outline>
    <contour>
      <point x="107.9731847709094" y="209.94133880931238" type="line"/>
      <point x="290.50636174877644" y="209.94133880931238" type="line"/>
      <point x="139.750483284432" y="-116.86777248455529" type="line"/>
      <point x="-36.430511986240596" y="-116.86777248455529" type="line"/>
    </contour>
    <contour>
      <point x="187.56312209182903" y="546.9503274655715" type="curve" smooth="yes"/>
      <point x="242.89437720470434" y="546.9503274655715"/>
      <point x="285.73138660419164" y="507.1663834918426"/>
      <point x="285.73138660419164" y="449.31532327592663" type="curve" smooth="yes"/>
      <point x="285.73138660419164" y="391.46426306001086"/>
      <point x="242.89437720470437" y="351.680319086282"/>
      <point x="187.56312209182903" y="351.68031908628205" type="curve" smooth="yes"/>
      <point x="132.23186697895372" y="351.68031908628205"/>
      <point x="89.39485757946643" y="391.4642630600109"/>
      <point x="89.39485757946643" y="449.31532327592663" type="curve" smooth="yes"/>
      <point x="89.39485757946643" y="507.1663834918426"/>
      <point x="132.23186697895372" y="546.9503274655715"/>
    </contour>
  </outline>
</glyph>
<glyph name="uni003C" format="2">
  <advance width="579"/>
  <unicode hex="003C"/>
  <outline>
    <contour>
      <point x="493.11601415816494" y="7.5838778169824685" type="line"/>
      <point x="22.443778672397137" y="272.6624170904122" type="line"/>
      <point x="22.443778672397094" y="400.6729925210348" type="line"/>
      <point x="494.2883450781083" y="665.7515317944645" type="line"/>
      <point x="558.3675736049298" y="537.8748244761631" type="line"/>
      <point x="162.53310576915177" y="319.0606974163654" type="line"/>
      <point x="162.66495953266613" y="375.55061124331013" type="line"/>
      <point x="568.5782158914592" y="148.68466293636374" type="line"/>
    </contour>
  </outline>
</glyph>
<glyph name="uni003D" format="2">
  <advance width="654"/>
  <unicode hex="003D"/>
  <outline>
    <contour>
      <point x="50.5661736933576" y="316.18529877089657" type="line"/>
      <point x="603.3883637938198" y="316.18529877089657" type="line"/>
      <point x="603.3883637938198" y="169.0391988526489" type="line"/>
      <point x="50.5661736933576" y="169.0391988526489" type="line"/>
    </contour>
    <contour>
      <point x="50.5661736933576" y="548.0365590444502" type="line"/>
      <point x="603.3883637938198" y="548.0365590444502" type="line"/>
      <point x="603.3883637938198" y="400.89045912620253" type="line"/>
      <point x="50.5661736933576" y="400.89045912620253" type="line"/>
    </contour>
  </outline>
</glyph>
<glyph name="uni003E" format="2">
  <advance width="579"/>
  <unicode hex="003E"/>
  <outline>
    <contour>
      <point x="85.96512779961492" y="665.7515317944645" type="line"/>
      <point x="556.6373632853827" y="400.6729925210348" type="line"/>
      <point x="556.6373632853827" y="272.6624170904122" type="line"/>
      <point x="84.79279687967158" y="7.5838778169824685" type="line"/>
      <point x="20.713568352850118" y="139.42759616629436" type="line"/>
      <point x="400.25629881031875" y="349.2357811407223" type="line"/>
      <point x="400.16666408196903" y="310.83370640718726" type="line"/>
      <point x="10.502926066320642" y="528.6177577060938" type="line"/>
    </contour>
  </outline>
</glyph>
<glyph name="uni003F" format="2">
  <advance width="490"/>
  <unicode hex="003F"/>
  <outline>
    <contour>
      <point x="140.4841565794192" y="252.70493558611247" type="line"/>
      <point x="130.86430237688032" y="308.8680946871651"/>
      <point x="143.25553130306116" y="353.28768526616534"/>
      <point x="202.2807270120234" y="409.79292061474473" type="curve" smooth="yes"/>
      <point x="276.7669996629797" y="481.0991537551403"/>
      <point x="292.4766546451209" y="501.50083801936347"/>
      <point x="292.4766546451209" y="533.2348588608406" type="curve" smooth="yes"/>
      <point x="292.4766548226202" y="571.0545066928869"/>
      <point x="259.8757713786717" y="586.9115327447907"/>
      <point x="215.20528866250643" y="586.9115327447907" type="curve" smooth="yes"/>
      <point x="164.5061808118408" y="586.9115327447907"/>
      <point x="118.71919732520612" y="570.0551853586975"/>
      <point x="80.9943351679537" y="543.2834488713751" type="curve"/>
      <point x="2.924861605470596" y="673.882288169677" type="line"/>
      <point x="55.99613524234612" y="719.746844362105"/>
      <point x="146.42446680577075" y="743.6901700775164"/>
      <point x="220.9938082113045" y="743.6901700775164" type="curve" smooth="yes"/>
      <point x="369.5985120165776" y="743.6901700775164"/>
      <point x="462.86492088727266" y="679.4697115936801"/>
      <point x="462.8649208872727" y="553.9806954753834" type="curve" smooth="yes"/>
      <point x="462.8649208872727" y="468.71422652098084"/>
      <point x="416.76756884887595" y="418.1505234942906"/>
      <point x="350.1641357754588" y="362.1939087427105" type="curve" smooth="yes"/>
      <point x="312.45326942172744" y="330.5112713300411"/>
      <point x="284.3074532795707" y="299.5291421847955"/>
      <point x="284.3074532795707" y="252.70493558611247" type="curve"/>
    </contour>
    <contour>
      <point x="213.0497626067233" y="187.11487019114634" type="curve" smooth="yes"/>
      <point x="268.3810177195986" y="187.11487019114634"/>
      <point x="311.2180271190859" y="147.3309262174175"/>
      <point x="311.2180271190859" y="89.47986600150148" type="curve" smooth="yes"/>
      <point x="311.2180271190859" y="31.628805785585804"/>
      <point x="268.3810177195986" y="-8.155138188143042"/>
      <point x="213.0497626067233" y="-8.155138188143042" type="curve" smooth="yes"/>
      <point x="157.718507493848" y="-8.155138188143042"/>
      <point x="114.88149809436071" y="31.628805785585804"/>
      <point x="114.88149809436071" y="89.47986600150148" type="curve" smooth="yes"/>
      <point x="114.88149809436071" y="147.33092621741747"/>
      <point x="157.718507493848" y="187.11487019114634"/>
    </contour>
  </outline>
</glyph>
<glyph name="uni0040" format="2">
  <advance width="964"/>
  <unicode hex="0040"/>
  <outline>
    <contour>
      <point x="640.9722710206756" y="398.71686841863004" type="curve"/>
      <point x="569.6836232919239" y="207.10085934446732" type="line" smooth="yes"/>
      <point x="547.4450360379956" y="142.1901807715712"/>
      <point x="490.91531657527764" y="85.68162703349208"/>
      <point x="407.47634361809463" y="85.68162703349208" type="curve" smooth="yes"/>
      <point x="297.0795307725279" y="85.68162703349208"/>
      <point x="227.50788547675128" y="172.06244316394"/>
      <point x="227.50788547675126" y="298.5658796965102" type="curve" smooth="yes"/>
      <point x="227.50788547675123" y="437.6936798458863"/>
      <point x="349.6861869995983" y="564.5208860789033"/>
      <point x="472.15202525169724" y="564.5208860789033" type="curve" smooth="yes"/>
      <point x="582.5286902459474" y="564.5208860789033"/>
      <point x="634.2259486496437" y="490.479577292048"/>
    </contour>
    <contour>
      <point x="23.339449718914363" y="313.62798383957954" type="curve" smooth="yes"/>
      <point x="23.33944971891432" y="570.2326382848644"/>
      <point x="232.31448044340158" y="770.1533281507855"/>
      <point x="479.984251002066" y="770.1533281507855" type="curve" smooth="yes"/>
      <point x="723.5564563080516" y="770.1533281507856"/>
      <point x="919.7670159922902" y="587.1196194538117"/>
      <point x="919.7670159922901" y="350.4136231755027" type="curve" smooth="yes"/>
      <point x="919.7670159922901" y="183.42978626079343"/>
      <point x="832.4019012953261" y="78.00968596685846"/>
      <point x="706.6459253647031" y="78.00968596685844" type="curve"/>
      <point x="584.8605040105425" y="78.00968596685844"/>
      <point x="509.3425840265954" y="178.84422513792924"/>
      <point x="523.3582913544061" y="264.6089480069356" type="curve" smooth="yes"/>
      <point x="554.0479407860416" y="452.40462730372565" type="line"/>
      <point x="571.7893885206221" y="452.40462730372565" type="line"/>
      <point x="588.5191431768218" y="552.1154106859915" type="line"/>
      <point x="697.8225813427623" y="552.1154106859915" type="line"/>
      <point x="654.4820986173467" y="285.35512710440617" type="line" smooth="yes"/>
      <point x="641.7631579439541" y="208.37977390052507"/>
      <point x="668.5390935114625" y="178.2767889045341"/>
      <point x="717.1917865250562" y="178.27678890453407" type="curve" smooth="yes"/>
      <point x="785.6191869874613" y="178.27678890453407"/>
      <point x="803.8680468400192" y="248.31891241827375"/>
      <point x="803.8680468400191" y="348.2560394988809" type="curve" smooth="yes"/>
      <point x="803.8680468400191" y="532.2003322493476"/>
      <point x="651.0968202945958" y="657.344976026638"/>
      <point x="480.381151866516" y="657.344976026638" type="curve" smooth="yes"/>
      <point x="299.36681521388215" y="657.344976026638"/>
      <point x="145.42952346216606" y="515.7882515573725"/>
      <point x="145.42952140066313" y="313.62798383957886" type="curve" smooth="yes"/>
      <point x="145.4295191871251" y="110.8732872706099"/>
      <point x="300.8482625749881" y="-16.17234960580288"/>
      <point x="492.7603236384059" y="-16.172349605802857" type="curve" smooth="yes"/>
      <point x="552.4456308647068" y="-16.172349605802857"/>
      <point x="637.7274519719031" y="1.6792903747345598"/>
      <point x="695.4845954617334" y="39.488340983817764" type="curve"/>
      <point x="743.1767538061534" y="-57.49382206950452" type="line"/>
      <point x="666.8783270852705" y="-113.07699082506912"/>
      <point x="567.1129039563081" y="-128.34401761164563"/>
      <point x="489.6974213754316" y="-128.34401761164563" type="curve" smooth="yes"/>
      <point x="205.91330418144196" y="-128.34401761164563"/>
      <point x="23.339449718914295" y="58.748658466976366"/>
    </contour>
    <contour>
      <point x="470.00862208579304" y="438.5472703306621" type="curve" smooth="yes"/>
      <point x="416.9860408297119" y="438.5472703306621"/>
      <point x="372.91906631339054" y="378.587795099841"/>
      <point x="372.9190663133905" y="297.7742870748938" type="curve" smooth="yes"/>
      <point x="372.9190663133905" y="260.538632561847"/>
      <point x="392.7664047914272" y="216.05857484859177"/>
      <point x="431.7552439763819" y="216.05857484859177" type="curve" smooth="yes"/>
      <point x="479.1365449546776" y="216.05857484859177"/>
      <point x="524.6953227888696" y="270.47095565240306"/>
      <point x="524.6953227888697" y="359.7843757693621" type="curve" smooth="yes"/>
      <point x="524.6953227888697" y="405.55869105894294"/>
      <point x="504.88367463163263" y="438.5472703306621"/>
    </contour>
  </outline>
</glyph>
<glyph name="uni0041" format="2">
  <advance width="780"/>
  <unicode hex="0041"/>
  <anchor x="397" y="724" name="top"/>
  <anchor x="680" y="0" name="bottom"/>
  <outline>
    <contour>
      <point x="269.24759203755747" y="737.0387701843846" type="line"/>
      <point x="445.3738486622445" y="737.0387701843846" type="line"/>
      <point x="198.14668351528528" y="0.0" type="line"/>
      <point x="7.372562762240572" y="0.0" type="line"/>
    </contour>
    <contour>
      <point x="269.24759203755747" y="307.1334368595896" type="line"/>
      <point x="516.6281747638319" y="307.1334368595896" type="line"/>
      <point x="584.4186458908694" y="144.51258662377137" type="line"/>
      <point x="198.14668351528528" y="144.51258662377137" type="line"/>
    </contour>
    <contour>
      <point x="333.75996803779014" y="737.0387701843846" type="line"/>
      <point x="520.882967751007" y="737.0387701843846" type="line"/>
      <point x="771.5416456040859" y="-0.5520339431186836" type="line"/>
      <point x="584.4186458908694" y="-0.5520339431186836" type="line"/>
    </contour>
  </outline>
</glyph>
<glyph name="uni0042" format="2">
  <advance width="677"/>
  <unicode hex="0042"/>
  <anchor x="338" y="736.7627532128251" name="top"/>
  <anchor x="338" y="-167" name="bottom"/>
  <outline>
    <contour>
      <point x="50.5661736933576" y="737.3147871559439" type="line"/>
      <point x="216.1571595776992" y="737.3147871559439" type="line"/>
      <point x="216.1571595776992" y="-0.4629258721517405" type="line"/>
      <point x="50.5661736933576" y="-0.4629258721517405" type="line"/>
    </contour>
    <contour>
      <point x="146.3437617477811" y="-0.4629258721517405" type="line"/>
      <point x="146.3437617477811" y="154.94821843229013" type="line"/>
      <point x="380.823141469782" y="154.94821843229013" type="line" smooth="yes"/>
      <point x="424.0223068540345" y="154.94821843229013"/>
      <point x="463.2852450647607" y="178.17935414725662"/>
      <point x="463.28524482775913" y="224.80193084732383" type="curve" smooth="yes"/>
      <point x="463.28524456710767" y="276.07704344979464"/>
      <point x="425.8814118559032" y="297.0591926157314"/>
      <point x="374.6935533699978" y="297.0591926157314" type="curve" smooth="yes"/>
      <point x="177.82950159127495" y="297.0591926157314" type="line"/>
      <point x="177.82950159127495" y="446.914022902075" type="line"/>
      <point x="349.73561675919734" y="446.914022902075" type="line" smooth="yes"/>
      <point x="406.623025785516" y="446.914022902075"/>
      <point x="444.0917190876658" y="470.2365942636859"/>
      <point x="444.0917193413265" y="520.1364615304633" type="curve" smooth="yes"/>
      <point x="444.0917195816631" y="567.4151368291675"/>
      <point x="407.9450793122818" y="585.296923378135"/>
      <point x="355.97424855973907" y="585.2969233781349" type="curve"/>
      <point x="146.3437617477811" y="585.2969233781349" type="line"/>
      <point x="146.3437617477811" y="737.3147871559439" type="line"/>
      <point x="388.1698528432806" y="737.3147871559439" type="line" smooth="yes"/>
      <point x="529.8823097274418" y="737.3147871559439"/>
      <point x="618.549468427425" y="660.7760304383222"/>
      <point x="618.5494684274252" y="544.1792209654051" type="curve" smooth="yes"/>
      <point x="618.5494684274252" y="478.10809044429664"/>
      <point x="578.1087523770775" y="389.39600171782376"/>
      <point x="456.81309530422334" y="376.35727979713596" type="curve"/>
      <point x="473.5176413411267" y="408.7764784371453" type="line"/>
      <point x="591.660201446913" y="380.4714171452478"/>
      <point x="643.0149420727005" y="299.47921282222933"/>
      <point x="643.0149420727005" y="216.01348524430315" type="curve" smooth="yes"/>
      <point x="643.0149420727005" y="94.64221208725964"/>
      <point x="549.5813338816358" y="-0.4629258721517431"/>
      <point x="416.15080250058037" y="-0.4629258721517405" type="curve" smooth="yes"/>
    </contour>
  </outline>
</glyph>
<glyph name="uni0043" format="2">
  <advance width="657"/>
  <unicode hex="0043"/>
  <anchor x="393" y="726" name="top"/>
  <anchor x="387" y="0" name="bottom"/>
  <outline>
    <contour>
      <point x="638.9927543483202" y="666.5439706011609" type="curve"/>
      <point x="552.7903607271799" y="530.1988854916791" type="line"/>
      <point x="511.7398969332438" y="566.588145587967"/>
      <point x="450.0175323918151" y="585.4222407086442"/>
      <point x="410.3029566481473" y="585.4222407086442" type="curve" smooth="yes"/>
      <point x="276.4031239233956" y="585.4222407086442"/>
      <point x="207.363712265166" y="489.97683549379025"/>
      <point x="207.36371165984718" y="370.8992692344161" type="curve" smooth="yes"/>
      <point x="207.36371100863352" y="242.79336393230798"/>
      <point x="296.06283678077557" y="154.00233089034623"/>
      <point x="425.47480994998" y="154.00233089034626" type="curve" smooth="yes"/>
      <point x="480.23100172947403" y="154.00233089034626"/>
      <point x="536.280605370127" y="177.3475765952991"/>
      <point x="574.743109834452" y="199.47200243843295" type="curve"/>
      <point x="629.6901207564581" y="49.4512804847291" type="line"/>
      <point x="553.1027489779692" y="-4.92008247457143"/>
      <point x="475.3434604683993" y="-14.791901411292798"/>
      <point x="410.0946247184833" y="-14.791901411292795" type="curve" smooth="yes"/>
      <point x="171.86096068931585" y="-14.791901411292795"/>
      <point x="35.94249559959081" y="164.3590645266813"/>
      <point x="35.94249559959075" y="367.1935659709904" type="curve" smooth="yes"/>
      <point x="35.94249559959075" y="571.7586830786105"/>
      <point x="169.13612680541846" y="747.9426602419272"/>
      <point x="416.1427677838362" y="747.9426602419272" type="curve" smooth="yes"/>
      <point x="502.0751836498926" y="747.9426602419272"/>
      <point x="577.1871232257182" y="727.8034164256807"/>
    </contour>
  </outline>
</glyph>
<glyph name="uni0044" format="2">
  <advance width="723"/>
  <unicode hex="0044"/>
  <anchor x="318" y="723" name="top"/>
  <outline>
    <contour>
      <point x="50.5661736933576" y="737.3147871559439" type="line"/>
      <point x="216.1571595776992" y="737.3147871559439" type="line"/>
      <point x="216.1571595776992" y="-0.4629258721517405" type="line"/>
      <point x="50.5661736933576" y="-0.4629258721517405" type="line"/>
    </contour>
    <contour>
      <point x="146.3437617477811" y="585.2969233781349" type="line"/>
      <point x="146.3437617477811" y="737.3147871559439" type="line"/>
      <point x="331.75079682422233" y="737.3147871559439" type="line" smooth="yes"/>
      <point x="545.2085434847713" y="737.3147871559439"/>
      <point x="686.0520650976816" y="576.3460964465569"/>
      <point x="686.0520650976815" y="382.18035185069255" type="curve" smooth="yes"/>
      <point x="686.0520650976815" y="177.63852271680204"/>
      <point x="555.0901105955313" y="-0.4629258721517431"/>
      <point x="323.2970082648844" y="-0.4629258721517405" type="curve" smooth="yes"/>
      <point x="146.3437617477811" y="-0.4629258721517405" type="line"/>
      <point x="154.797550307119" y="154.94821843229013" type="line"/>
      <point x="331.75079682422233" y="154.94821843229013" type="line" smooth="yes"/>
      <point x="453.4473238761987" y="154.94821843229013"/>
      <point x="519.2838678417471" y="256.57067931615785"/>
      <point x="519.2838684614334" y="378.4746485872668" type="curve" smooth="yes"/>
      <point x="519.2838690965119" y="503.406481625358"/>
      <point x="428.1075772290392" y="585.296923378135"/>
      <point x="316.5789435223896" y="585.2969233781349" type="curve"/>
    </contour>
  </outline>
</glyph>
<glyph name="uni0045" format="2">
  <advance width="575"/>
  <unicode hex="0045"/>
  <anchor x="308" y="725" name="top"/>
  <anchor x="420" y="0" name="bottom"/>
  <outline>
    <contour>
      <point x="50.5661736933576" y="737.3147871559439" type="line"/>
      <point x="216.1571595776992" y="737.3147871559439" type="line"/>
      <point x="216.1571595776992" y="-0.4629258721517405" type="line"/>
      <point x="50.5661736933576" y="-0.4629258721517405" type="line"/>
    </contour>
    <contour>
      <point x="146.3437617477811" y="585.2969233781349" type="line"/>
      <point x="146.3437617477811" y="737.3147871559439" type="line"/>
      <point x="546.1395011139921" y="737.3147871559439" type="line"/>
      <point x="546.1395011139921" y="585.2969233781349" type="line"/>
    </contour>
    <contour>
      <point x="146.3437617477811" y="154.94821843229013" type="line"/>
      <point x="546.1395011139921" y="154.94821843229013" type="line"/>
      <point x="546.1395011139921" y="-0.4629258721517405" type="line"/>
      <point x="146.3437617477811" y="-0.4629258721517405" type="line"/>
    </contour>
    <contour>
      <point x="169.99605589891925" y="456.0396345512487" type="line"/>
      <point x="398.9686767035576" y="456.0396345512487" type="line"/>
      <point x="398.9686767035576" y="299.56266872508763" type="line"/>
      <point x="169.99605589891925" y="299.56266872508763" type="line"/>
    </contour>
  </outline>
</glyph>
<glyph name="uni0046" format="2">
  <advance width="535"/>
  <unicode hex="0046"/>
  <anchor x="267" y="736.7627532128251" name="top"/>
  <anchor x="267" y="-167" name="bottom"/>
  <outline>
    <contour>
      <point x="50.5661736933576" y="737.3147871559439" type="line"/>
      <point x="216.1571595776992" y="737.3147871559439" type="line"/>
      <point x="216.1571595776992" y="-0.4629258721517405" type="line"/>
      <point x="50.5661736933576" y="-0.4629258721517405" type="line"/>
    </contour>
    <contour>
      <point x="169.99605589891925" y="436.0573602148251" type="line"/>
      <point x="409.71906039817253" y="436.0573602148251" type="line"/>
      <point x="409.71906039817253" y="282.84294205265627" type="line"/>
      <point x="169.99605589891925" y="282.84294205265627" type="line"/>
    </contour>
    <contour>
      <point x="146.3437617477811" y="737.3147871559439" type="line"/>
      <point x="518.1518971697736" y="737.3147871559439" type="line"/>
      <point x="518.1518971697736" y="583.3880744086074" type="line"/>
      <point x="146.3437617477811" y="583.3880744086074" type="line"/>
    </contour>
  </outline>
</glyph>
<glyph name="uni0048" format="2">
  <advance width="720"/>
  <unicode hex="0048"/>
  <anchor x="360" y="736.7627532128251" name="top"/>
  <anchor x="360" y="-167" name="bottom"/>
  <outline>
    <contour>
      <point x="50.5661736933576" y="737.3147871559439" type="line"/>
      <point x="216.1571595776992" y="737.3147871559439" type="line"/>
      <point x="216.1571595776992" y="-0.4629258721517405" type="line"/>
      <point x="50.5661736933576" y="-0.4629258721517405" type="line"/>
    </contour>
    <contour>
      <point x="169.99605589891925" y="456.6280430941814" type="line"/>
      <point x="539.711769540798" y="456.6280430941814" type="line"/>
      <point x="539.711769540798" y="299.56266872508763" type="line"/>
      <point x="169.99605589891925" y="299.56266872508763" type="line"/>
    </contour>
    <contour>
      <point x="503.95148838718734" y="736.7627532128251" type="line"/>
      <point x="669.5424742715289" y="736.7627532128251" type="line"/>
      <point x="669.5424742715289" y="-1.014959815270424" type="line"/>
      <point x="503.95148838718734" y="-1.014959815270424" type="line"/>
    </contour>
  </outline>
</glyph>
<glyph name="uni0049" format="2">
  <advance width="267"/>
  <unicode hex="0049"/>
  <anchor x="134" y="725" name="top"/>
  <anchor x="134" y="-1" name="bottom"/>
  <outline>
    <contour>
      <point x="50.5661736933576" y="737.3147871559439" type="line"/>
      <point x="216.1571595776992" y="737.3147871559439" type="line"/>
      <point x="216.1571595776992" y="-0.4629258721517405" type="line"/>
      <point x="50.5661736933576" y="-0.4629258721517405" type="line"/>
    </contour>
  </outline>
</glyph>
<glyph name="uni004A" format="2">
  <advance width="581"/>
  <unicode hex="004A"/>
  <anchor x="448" y="737" name="top"/>
  <anchor x="447" y="0" name="bottom"/>
  <outline>
    <contour>
      <point x="109.3399232343782" y="221.49005003655856" type="line"/>
      <point x="143.95303561041516" y="183.85760273452024"/>
      <point x="194.00917116701015" y="152.01300230576"/>
      <point x="253.16398466390257" y="152.01300230576" type="curve" smooth="yes"/>
      <point x="313.7483988512053" y="152.01300230576"/>
      <point x="364.7602389888739" y="180.22465043460454"/>
      <point x="364.7602389888739" y="311.12967890975153" type="curve" smooth="yes"/>
      <point x="364.7602389888739" y="736.7627532128251" type="line"/>
      <point x="530.3512248732154" y="736.7627532128251" type="line"/>
      <point x="530.3512248732154" y="247.81111825506696" type="line" smooth="yes"/>
      <point x="530.3512248732154" y="67.50572375055782"/>
      <point x="440.4973039483783" y="-21.606728765305093"/>
      <point x="275.24444201674504" y="-21.606728765305107" type="curve"/>
      <point x="167.7947404666868" y="-21.606728765305107"/>
      <point x="73.46879595315079" y="7.410222798903085"/>
      <point x="3.205893766551027" y="90.95440768452345" type="curve"/>
    </contour>
  </outline>
</glyph>
<glyph name="uni004C" format="2">
  <advance width="542"/>
  <unicode hex="004C"/>
  <anchor x="145" y="718" name="top"/>
  <anchor x="287" y="-1" name="bottom"/>
  <outline>
    <contour>
      <point x="50.5661736933576" y="737.3147871559439" type="line"/>
      <point x="216.1571595776992" y="737.3147871559439" type="line"/>
      <point x="216.1571595776992" y="-0.4629258721517405" type="line"/>
      <point x="50.5661736933576" y="-0.4629258721517405" type="line"/>
    </contour>
    <contour>
      <point x="146.3437617477811" y="158.80561413005717" type="line"/>
      <point x="524.9238247762731" y="158.80561413005717" type="line"/>
      <point x="524.9238247762731" y="-0.4629258721517405" type="line"/>
      <point x="146.3437617477811" y="-0.4629258721517405" type="line"/>
    </contour>
  </outline>
</glyph>
<glyph name="uni004D" format="2">
  <advance width="783"/>
  <unicode hex="004D"/>
  <anchor x="391" y="736.7627532128251" name="top"/>
  <anchor x="391" y="-167" name="bottom"/>
  <outline>
    <contour>
      <point x="50.56617369335768" y="737.3147871559439" type="line"/>
      <point x="249.05157758215188" y="736.7627532128251" type="line"/>
      <point x="409.4383611871094" y="421.75694408828946" type="line"/>
      <point x="383.6610393459788" y="421.121669887989" type="line"/>
      <point x="526.9841634916786" y="736.7627532128251" type="line"/>
      <point x="732.3830239187818" y="736.7627532128251" type="line"/>
      <point x="732.3830239187818" y="-1.014959815270424" type="line"/>
      <point x="566.8102575752009" y="-1.014959815270424" type="line"/>
      <point x="566.8102575752009" y="521.6812176542348" type="line"/>
      <point x="618.1696488085922" y="465.987146286461" type="line"/>
      <point x="566.8102575752009" y="465.987146286461" type="line"/>
      <point x="431.0045662789259" y="195.36778294953712" type="line"/>
      <point x="344.37652827797086" y="195.36778294953712" type="line"/>
      <point x="213.34065681428538" y="462.15131298003115" type="line"/>
      <point x="161.1067649054944" y="462.15131298003115" type="line"/>
      <point x="213.34065681428538" y="516.9209888794884" type="line"/>
      <point x="213.34065681428538" y="-0.4629258721517405" type="line"/>
      <point x="50.56617369335768" y="-0.4629258721517405" type="line"/>
    </contour>
  </outline>
</glyph>
<glyph name="uni004E" format="2">
  <advance width="705"/>
  <unicode hex="004E"/>
  <anchor x="356" y="723" name="top"/>
  <anchor x="338" y="1" name="bottom"/>
  <outline>
    <contour>
      <point x="50.56617369335768" y="736.7627532128251" type="line"/>
      <point x="216.2395161248957" y="736.7627532128251" type="line"/>
      <point x="216.2395161248957" y="0.0" type="line"/>
      <point x="50.56617369335768" y="0.0" type="line"/>
    </contour>
    <contour>
      <point x="488.9492887261567" y="736.7627532128251" type="line"/>
      <point x="654.6226311576947" y="736.7627532128251" type="line"/>
      <point x="654.6226311576947" y="0.0" type="line"/>
      <point x="488.9492887261567" y="0.0" type="line"/>
    </contour>
    <contour>
      <point x="164.20153538061044" y="736.7627532128251" type="line"/>
      <point x="279.78995640368095" y="736.7627532128251" type="line"/>
      <point x="488.9492887261567" y="312.0877692089402" type="line"/>
      <point x="540.987269470442" y="312.0877692089402" type="line"/>
      <point x="540.987269470442" y="0.0" type="line"/>
      <point x="478.4477154686247" y="0.0" type="line"/>
      <point x="216.2395161248957" y="508.38133323854635" type="line"/>
      <point x="164.20153538061044" y="508.38133323854635" type="line"/>
    </contour>
  </outline>
</glyph>
<glyph name="uni0051" format="2">
  <advance width="807"/>
  <unicode hex="0051"/>
  <anchor x="403" y="736.7627532128251" name="top"/>
  <anchor x="403" y="-167" name="bottom"/>
  <outline>
    <contour>
      <point x="34.91494455745949" y="364.4035398007608" type="curve" smooth="yes"/>
      <point x="34.91494455745949" y="569.195206709813"/>
      <point x="203.17055060401105" y="745.3523280372686"/>
      <point x="402.10039203252916" y="745.3523280372686" type="curve" smooth="yes"/>
      <point x="624.8808804768037" y="745.3523280372686"/>
      <point x="769.2858395075988" y="569.1952067098132"/>
      <point x="769.2858395075988" y="364.4035398007603" type="curve" smooth="yes"/>
      <point x="769.2858395075988" y="159.61187289170843"/>
      <point x="601.0302334610471" y="-16.54524843574768"/>
      <point x="402.10039203252904" y="-16.545248435747652" type="curve" smooth="yes"/>
      <point x="179.31990358825428" y="-16.545248435747652"/>
      <point x="34.91494455745948" y="159.61187289170812"/>
    </contour>
    <contour>
      <point x="339.794083880094" y="316.1782686510226" type="line"/>
      <point x="525.8391011253632" y="316.1782686510226" type="line"/>
      <point x="753.8208198250003" y="0.0" type="line"/>
      <point x="570.2388212057431" y="0.0" type="line"/>
    </contour>
    <contour>
      <point x="203.0008499228874" y="364.4035398007605" type="curve" smooth="yes"/>
      <point x="203.0008499228874" y="237.95259558495292"/>
      <point x="289.2156236244258" y="149.28491660084737"/>
      <point x="402.1003920325293" y="149.28491660084737" type="curve" smooth="yes"/>
      <point x="514.9851592588801" y="149.28491660084737"/>
      <point x="601.1999328565696" y="237.95259892595237"/>
      <point x="601.1999341421708" y="364.40353980076" type="curve" smooth="yes"/>
      <point x="601.1999341421708" y="490.85448401656754"/>
      <point x="514.985160440633" y="579.5221630006735"/>
      <point x="402.1003920325293" y="579.5221630006735" type="curve" smooth="yes"/>
      <point x="289.21562480617865" y="579.5221630006735"/>
      <point x="203.00085120848888" y="490.8544806755682"/>
    </contour>
  </outline>
</glyph>
<glyph name="uni0054" format="2">
  <advance width="627"/>
  <unicode hex="0054"/>
  <anchor x="317" y="718" name="top"/>
  <anchor x="313" y="-1" name="bottom"/>
  <outline>
    <contour>
      <point x="230.68183981230862" y="705.2993202184273" type="line"/>
      <point x="396.2728256966503" y="705.2993202184273" type="line"/>
      <point x="396.2728256966503" y="-0.4629258721517405" type="line"/>
      <point x="230.68183981230862" y="-0.4629258721517405" type="line"/>
    </contour>
    <contour>
      <point x="17.361418126440388" y="737.3147871559439" type="line"/>
      <point x="609.5932473825187" y="737.3147871559439" type="line"/>
      <point x="609.5932473825187" y="576.2474794196605" type="line"/>
      <point x="17.361418126440388" y="576.2474794196605" type="line"/>
    </contour>
  </outline>
</glyph>
<glyph name="uni0055" format="2">
  <advance width="690"/>
  <unicode hex="0055"/>
  <anchor x="345" y="719" name="top"/>
  <anchor x="349" y="0" name="bottom"/>
  <outline>
    <contour>
      <point x="474.1303094961852" y="279.2484742373317" type="curve" smooth="yes"/>
      <point x="474.1303094961852" y="736.7627532128251" type="line"/>
      <point x="639.7212953805267" y="736.7627532128251" type="line"/>
      <point x="639.7212953805267" y="275.9214182769414" type="line" smooth="yes"/>
      <point x="639.7212953805267" y="80.62430494094596"/>
      <point x="524.1367535447716" y="-21.606728765305093"/>
      <point x="345.14373453694213" y="-21.606728765305107" type="curve"/>
      <point x="166.15071552911246" y="-21.606728765305107"/>
      <point x="50.5661736933576" y="80.62430494094595"/>
      <point x="50.5661736933576" y="275.9214182769414" type="curve" smooth="yes"/>
      <point x="50.5661736933576" y="736.7627532128251" type="line"/>
      <point x="216.1571595776991" y="736.7627532128251" type="line"/>
      <point x="216.1571595776991" y="298.1683354798434" type="line" smooth="yes"/>
      <point x="216.1571595776991" y="186.78203414896865"/>
      <point x="281.14664241621307" y="140.7688822970103"/>
      <point x="351.8328959385148" y="140.76888229701026" type="curve" smooth="yes"/>
      <point x="417.96976417791404" y="140.76888229701026"/>
      <point x="474.1303094961852" y="187.9826843409189"/>
    </contour>
  </outline>
</glyph>
<glyph name="uni0056" format="2">
  <advance width="727"/>
  <unicode hex="0056"/>
  <anchor x="363" y="736.7627532128251" name="top"/>
  <anchor x="363" y="-167" name="bottom"/>
  <outline>
    <contour>
      <point x="463.0173788248039" y="-1.014959815270424" type="line"/>
      <point x="259.51841520353884" y="-1.014959815270424" type="line"/>
      <point x="8.092039529055944" y="737.0387701843846" type="line"/>
      <point x="208.09445757485747" y="737.0387701843846" type="line"/>
      <point x="387.5363271581583" y="156.048321650174" type="line"/>
      <point x="348.3360211527272" y="156.03854546670235" type="line"/>
      <point x="527.2892743659104" y="736.4867362412659" type="line"/>
      <point x="725.6601059215243" y="736.4867362412659" type="line"/>
    </contour>
  </outline>
</glyph>
<glyph name="uni0058" format="2">
  <advance width="690"/>
  <unicode hex="0058"/>
  <anchor x="345" y="736.7627532128251" name="top"/>
  <anchor x="345" y="-167" name="bottom"/>
  <outline>
    <contour>
      <point x="687.3099489311256" y="0.0" type="line"/>
      <point x="479.74092272798555" y="0.0" type="line"/>
      <point x="310.5662984200024" y="309.9071783407325" type="line"/>
      <point x="366.5676388622492" y="310.67427074758143" type="line"/>
      <point x="207.794103828695" y="0.0" type="line"/>
      <point x="4.060566022905266" y="0.0" type="line"/>
      <point x="247.2873611547927" y="442.01397706943516" type="line"/>
      <point x="249.86522175345874" y="339.48465274302913" type="line"/>
      <point x="8.322205853653795" y="736.7627532128251" type="line"/>
      <point x="221.71397467807196" y="736.7627532128251" type="line"/>
      <point x="378.8123395025922" y="454.02958177977087" type="line"/>
      <point x="323.0608219056693" y="452.6951145581492" type="line"/>
      <point x="470.1143566225769" y="736.7627532128251" type="line"/>
      <point x="675.8351486522932" y="736.7627532128251" type="line"/>
      <point x="438.8196342656121" y="345.0890337725535" type="line"/>
      <point x="439.91871496801116" y="445.1874320131905" type="line"/>
    </contour>
  </outline>
</glyph>
<glyph name="uni0059" format="2">
  <advance width="655"/>
  <unicode hex="0059"/>
  <anchor x="331" y="725" name="top"/>
  <outline>
    <contour>
      <point x="413.2609637415706" y="-0.4629258721517405" type="line"/>
      <point x="247.66997785722904" y="-0.4629258721517405" type="line"/>
      <point x="247.66997785722904" y="301.7198613864313" type="line"/>
      <point x="266.8601312278369" y="222.60817642522403" type="line"/>
      <point x="1.6659275487084144" y="737.0775149604559" type="line"/>
      <point x="206.92939231177746" y="737.0775149604559" type="line"/>
      <point x="355.009768838426" y="445.07432014730773" type="line"/>
      <point x="317.44876814418484" y="444.29323445047737" type="line"/>
      <point x="451.1511151667312" y="736.7627532128251" type="line"/>
      <point x="653.619310708657" y="736.7627532128251" type="line"/>
      <point x="394.0965571838141" y="232.43990423251307" type="line"/>
      <point x="413.2609637415706" y="311.5648496732783" type="line"/>
    </contour>
  </outline>
</glyph>
<glyph name="uni005A" format="2">
  <advance width="628"/>
  <unicode hex="005A"/>
  <anchor x="323" y="724" name="top"/>
  <outline>
    <contour>
      <point x="382.9290298381968" y="619.764438787403" type="line"/>
      <point x="406.91421152427915" y="572.4724927088345" type="line"/>
      <point x="47.977946410924176" y="572.4724927088345" type="line"/>
      <point x="47.977946410924176" y="736.762753212825" type="line"/>
      <point x="578.6833761369774" y="736.762753212825" type="line"/>
      <point x="578.6833761369774" y="593.0874829060783" type="line"/>
      <point x="235.06922046678255" y="117.70976532653513" type="line"/>
      <point x="210.7912207160263" y="165.21474730143868" type="line"/>
      <point x="595.0929816266594" y="165.21474730143868" type="line"/>
      <point x="595.0929816266594" y="0.0" type="line"/>
      <point x="34.30261994629616" y="0.0" type="line"/>
      <point x="34.30261994629616" y="143.67527030674682" type="line"/>
    </contour>
  </outline>
</glyph>
<glyph name="uni005B" format="2">
  <advance width="400"/>
  <unicode hex="005B"/>
  <outline>
    <contour>
      <point x="50.56617369335766" y="824.1898064407325" type="line"/>
      <point x="390.39063583086397" y="824.1898064407325" type="line"/>
      <point x="390.3906358308641" y="678.3121260532756" type="line"/>
      <point x="207.68368891513333" y="678.3121260532756" type="line"/>
      <point x="207.68368891513333" y="-34.12933832066219" type="line"/>
      <point x="390.3906358308639" y="-34.12933832066219" type="line"/>
      <point x="390.3906358308636" y="-185.54066132405293" type="line"/>
      <point x="50.56617369335766" y="-185.54066132405293" type="line"/>
    </contour>
  </outline>
</glyph>
<glyph name="uni005D" format="2">
  <advance width="400"/>
  <unicode hex="005D"/>
  <outline>
    <contour>
      <point x="349.8446928086756" y="-185.54066132405293" type="line"/>
      <point x="10.020230671169308" y="-185.54066132405293" type="line"/>
      <point x="10.020230671169225" y="-39.66298093659615" type="line"/>
      <point x="192.72717758689993" y="-39.66298093659615" type="line"/>
      <point x="192.72717758690007" y="672.7784834373417" type="line"/>
      <point x="10.020230671169475" y="672.7784834373417" type="line"/>
      <point x="10.020230671169811" y="824.1898064407325" type="line"/>
      <point x="349.84469280867575" y="824.1898064407325" type="line"/>
    </contour>
  </outline>
</glyph>
<glyph name="uni005E" format="2">
  <advance width="667"/>
  <unicode hex="005E"/>
  <outline>
    <contour>
      <point x="528.2265063075628" y="200.83895828029256" type="line"/>
      <point x="297.47158253417587" y="604.226488337627" type="line"/>
      <point x="366.70571641736956" y="604.3184592096894" type="line"/>
      <point x="139.13749047339866" y="200.83895828029256" type="line"/>
      <point x="1.138600952322182" y="264.91818680711407" type="line"/>
      <point x="268.6953708689456" y="736.7627532128253" type="line"/>
      <point x="399.304715298133" y="736.7627532128251" type="line"/>
      <point x="664.6656765742279" y="276.3011600135868" type="line"/>
    </contour>
  </outline>
</glyph>
<glyph name="uni005F" format="2">
  <advance width="745"/>
  <unicode hex="005F"/>
  <outline>
    <contour>
      <point x="50.56617369335762" y="0.0" type="line"/>
      <point x="694.1988380116036" y="0.0" type="line"/>
      <point x="694.1988380116036" y="-147.1460999182477" type="line"/>
      <point x="50.56617369335762" y="-147.1460999182477" type="line"/>
    </contour>
  </outline>
</glyph>
<glyph name="uni0060" format="2">
  <advance width="307"/>
  <unicode hex="0060"/>
  <outline>
    <contour>
      <point x="-5.9128335283759395" y="761.368494277024" type="line"/>
      <point x="169.16016060608223" y="761.368494277024" type="line"/>
      <point x="286.4736803850766" y="629.0977078228415" type="line"/>
      <point x="141.65101360042178" y="629.0977078228415" type="line"/>
    </contour>
  </outline>
</glyph>
<glyph name="uni0061" format="2">
  <advance width="590"/>
  <unicode hex="0061"/>
  <anchor x="294" y="590" name="top"/>
  <anchor x="466" y="0" name="bottom"/>
  <outline>
    <contour>
      <point x="377.47752060947397" y="0.0" type="line"/>
      <point x="377.47752060947397" y="335.61194036166796" type="line" smooth="yes"/>
      <point x="377.47752060947397" y="417.2774326224078"/>
      <point x="316.65870475607755" y="448.26749313046844"/>
      <point x="253.77666571183514" y="448.26749313046844" type="curve" smooth="yes"/>
      <point x="189.96500498973586" y="448.26749313046844"/>
      <point x="136.1421702032285" y="417.3830070135166"/>
      <point x="103.42599936690735" y="395.10359151673185" type="curve"/>
      <point x="26.679786799564965" y="530.5398500645272" type="line"/>
      <point x="82.45841532671575" y="574.4122208064192"/>
      <point x="160.91850846343146" y="608.5387937206965"/>
      <point x="265.0580142479841" y="608.5387937206965" type="curve" smooth="yes"/>
      <point x="414.4055039345023" y="608.5387937206965"/>
      <point x="539.516930345693" y="539.667327005225"/>
      <point x="539.516930345693" y="365.96942757902514" type="curve" smooth="yes"/>
      <point x="539.516930345693" y="0.0" type="line"/>
    </contour>
    <contour>
      <point x="395.7821638019584" y="310.3254717512409" type="curve"/>
      <point x="395.7821638019584" y="59.297371684656426" type="line"/>
      <point x="364.1277767866414" y="19.161692805849057"/>
      <point x="308.8330588937615" y="-11.120196699468309"/>
      <point x="236.93533891709137" y="-11.120196699468304" type="curve" smooth="yes"/>
      <point x="120.04209259547028" y="-11.120196699468304"/>
      <point x="45.94063627211648" y="64.11436204166539"/>
      <point x="45.9406362721165" y="170.67228627346626" type="curve" smooth="yes"/>
      <point x="45.9406362721165" y="286.2418551824662"/>
      <point x="145.4713007217995" y="354.1182290397919"/>
      <point x="268.63624143658006" y="354.1182290397919" type="curve" smooth="yes"/>
      <point x="333.80118122599885" y="354.1182290397919"/>
      <point x="379.21983645132445" y="336.03744898533427"/>
    </contour>
    <contour>
      <point x="305.5295239334479" y="228.6764213130131" type="curve" smooth="yes"/>
      <point x="258.91760836618334" y="228.6764213130131"/>
      <point x="221.8935993350892" y="206.1888909509182"/>
      <point x="221.89359918907138" y="168.79115457140213" type="curve" smooth="yes"/>
      <point x="221.89359918907138" y="133.70617307843617"/>
      <point x="253.40954036892026" y="112.62635723472738"/>
      <point x="289.8981652777924" y="112.62635723472738" type="curve" smooth="yes"/>
      <point x="341.3710167621896" y="112.62635723472738"/>
      <point x="377.47752060947397" y="147.2091435911577"/>
      <point x="377.47752060947397" y="185.32609990516926" type="curve" smooth="yes"/>
      <point x="377.47752060947397" y="215.72508094159366"/>
      <point x="339.8559556107135" y="228.6764213130131"/>
    </contour>
  </outline>
</glyph>
<glyph name="uni0062" format="2">
  <advance width="683"/>
  <unicode hex="0062"/>
  <anchor x="341" y="589.4102025702601" name="top"/>
  <anchor x="341" y="-167" name="bottom"/>
  <outline>
    <contour>
      <point x="50.56617369335777" y="736.7730852791625" type="line"/>
      <point x="209.33355818726255" y="736.7730852791625" type="line"/>
      <point x="209.33355818726255" y="408.90763987016595" type="line"/>
      <point x="178.0267295536879" y="408.90763987016595" type="line"/>
      <point x="178.0267295536879" y="-0.26552944351543795" type="line"/>
      <point x="50.56617369335768" y="-0.26552944351543795" type="line"/>
    </contour>
    <contour>
      <point x="77.95093662234933" y="195.20254319405745" type="curve"/>
      <point x="168.9022292658957" y="499.8574753123125" type="line"/>
      <point x="191.06858665316713" y="546.9079755101649"/>
      <point x="249.36404705933916" y="608.0117805186429"/>
      <point x="356.80040684442594" y="608.0117805186429" type="curve" smooth="yes"/>
      <point x="524.7618925576595" y="608.011780518643"/>
      <point x="649.2332810241355" y="466.1188472971794"/>
      <point x="649.2332810241356" y="293.208074389867" type="curve" smooth="yes"/>
      <point x="649.2332810241357" y="120.29730148255541"/>
      <point x="507.1708264008348" y="-28.436601911006676"/>
      <point x="339.2093406876015" y="-28.436601911006672" type="curve" smooth="yes"/>
      <point x="185.37136453132968" y="-28.436601911006672"/>
      <point x="108.8732081749487" y="78.65129370030182"/>
    </contour>
    <contour>
      <point x="343.0520349415374" y="137.15438397333435" type="curve" smooth="yes"/>
      <point x="424.94213006878437" y="137.15438397333435"/>
      <point x="483.64229420717936" y="201.47665808278973"/>
      <point x="483.64229513979427" y="293.20807438986685" type="curve" smooth="yes"/>
      <point x="483.6422951397941" y="384.9394931206088"/>
      <point x="424.94213092606446" y="449.2617648063998"/>
      <point x="343.0520349415373" y="449.26176480639975" type="curve"/>
      <point x="277.1479277406341" y="449.26176480639975"/>
      <point x="206.12375724297704" y="391.9333005311604"/>
      <point x="206.12375724297698" y="293.20807438986816" type="curve" smooth="yes"/>
      <point x="206.12375724297706" y="202.50823484163237"/>
      <point x="261.16193895701076" y="137.1543839733345"/>
    </contour>
  </outline>
</glyph>
<glyph name="uni0063" format="2">
  <advance width="587"/>
  <unicode hex="0063"/>
  <anchor x="349" y="589" name="top"/>
  <anchor x="344" y="0" name="bottom"/>
  <outline>
    <contour>
      <point x="558.4164702453917" y="542.7230407543262" type="curve"/>
      <point x="484.2001350181033" y="400.448849335199" type="line"/>
      <point x="446.45550256388094" y="428.354370753609"/>
      <point x="409.11853665527786" y="447.6112941593259"/>
      <point x="362.61801985319465" y="447.6112941593259" type="curve" smooth="yes"/>
      <point x="274.82092823072423" y="447.6112941593259"/>
      <point x="208.71671836366644" y="385.91015654222275"/>
      <point x="208.71671786509972" y="292.55846336596477" type="curve" smooth="yes"/>
      <point x="208.71671736601616" y="199.10999858384884"/>
      <point x="291.68090727258516" y="142.38686648657887"/>
      <point x="380.26651592734754" y="142.38686648657884" type="curve" smooth="yes"/>
      <point x="420.1289370263468" y="142.38686648657884"/>
      <point x="461.27995961371414" y="161.3710233452567"/>
      <point x="496.14133951273465" y="185.69296572898293" type="curve"/>
      <point x="563.1965415279011" y="44.26021615473095" type="line"/>
      <point x="511.7517738271742" y="-0.4875226295576809"/>
      <point x="439.65150637619735" y="-23.927186810926308"/>
      <point x="374.4291202473367" y="-23.92718681092631" type="curve"/>
      <point x="175.6270708558856" y="-23.92718681092631"/>
      <point x="41.17638659900132" y="96.48742252716245"/>
      <point x="33.94877838256182" y="293.23670678993955" type="curve" smooth="yes"/>
      <point x="33.94877838256182" y="471.10008353628234"/>
      <point x="165.1525767503101" y="613.2022800436669"/>
      <point x="370.0626328352297" y="613.202280043667" type="curve" smooth="yes"/>
      <point x="430.020345228914" y="613.202280043667"/>
      <point x="499.4898138079825" y="597.5584770699675"/>
    </contour>
  </outline>
</glyph>
<glyph name="uni0064" format="2">
  <advance width="683"/>
  <unicode hex="0064"/>
  <anchor x="341" y="589.4102025702601" name="top"/>
  <anchor x="341" y="-167" name="bottom"/>
  <outline>
    <contour>
      <point x="490.45491524344635" y="0.07739554720163708" type="line"/>
      <point x="490.45491524344635" y="464.105582087211" type="line"/>
      <point x="472.766018566607" y="526.8970392261991" type="line"/>
      <point x="472.766018566607" y="736.7627532128251" type="line"/>
      <point x="632.1437425704969" y="736.7627532128251" type="line"/>
      <point x="632.1437425704969" y="0.07739554720163708" type="line"/>
    </contour>
    <contour>
      <point x="604.9483450269515" y="392.59432263689985" type="curve"/>
      <point x="513.9970523834052" y="87.93939051864481" type="line"/>
      <point x="491.8306949961337" y="40.88889032079245"/>
      <point x="433.53523458996165" y="-20.214914687685678"/>
      <point x="326.09887480487464" y="-20.21491468768568" type="curve"/>
      <point x="158.13738909164124" y="-20.21491468768568"/>
      <point x="33.666000625164884" y="121.67801853377819"/>
      <point x="33.666000625164926" y="294.58879144109045" type="curve" smooth="yes"/>
      <point x="33.666000625164926" y="467.49956434840203"/>
      <point x="175.72845524846593" y="616.233467741964"/>
      <point x="343.68994096169934" y="616.233467741964" type="curve" smooth="yes"/>
      <point x="497.52791711797124" y="616.233467741964"/>
      <point x="574.0260734743522" y="509.14557213065547"/>
    </contour>
    <contour>
      <point x="339.8472467077634" y="450.64248185762295" type="curve"/>
      <point x="257.95715158051644" y="450.64248185762295"/>
      <point x="199.25698744212147" y="386.3202077481676"/>
      <point x="199.25698650950662" y="294.58879144109045" type="curve" smooth="yes"/>
      <point x="199.25698650950662" y="202.85737271034867"/>
      <point x="257.95715072323634" y="138.53510102455746"/>
      <point x="339.8472467077634" y="138.5351010245575" type="curve" smooth="yes"/>
      <point x="405.7513539086667" y="138.5351010245575"/>
      <point x="476.7755244063238" y="195.86356529979707"/>
      <point x="476.7755244063238" y="294.5887914410893" type="curve" smooth="yes"/>
      <point x="476.7755244063238" y="385.28863098932493"/>
      <point x="421.73734269229016" y="450.642481857623"/>
    </contour>
  </outline>
</glyph>
<glyph name="uni0065" format="2">
  <advance width="658"/>
  <unicode hex="0065"/>
  <anchor x="341" y="589" name="top"/>
  <anchor x="488" y="14" name="bottom"/>
  <outline>
    <contour>
      <point x="120.52942539238191" y="370.79005721113685" type="line"/>
      <point x="531.6027099517331" y="370.79005721113685" type="line"/>
      <point x="531.6027099517331" y="231.82418863732937" type="line"/>
      <point x="120.52942539238191" y="231.82418863732937" type="line"/>
    </contour>
    <contour>
      <point x="375.6524379900085" y="138.0437032438059" type="curve" smooth="yes"/>
      <point x="421.7450440379014" y="138.0437032438059"/>
      <point x="459.6334994107212" y="151.0187707564549"/>
      <point x="498.66680188556467" y="172.28535941209287" type="curve"/>
      <point x="550.0351289416096" y="36.82600048836696" type="line"/>
      <point x="525.8978124385428" y="8.655325267307685"/>
      <point x="445.84353564644084" y="-23.311961889066474"/>
      <point x="362.6309084099441" y="-23.311961889066474" type="curve" smooth="yes"/>
      <point x="169.4366318672439" y="-23.311961889066474"/>
      <point x="34.16451429827555" y="116.09615231484233"/>
      <point x="34.164514298275556" y="294.7990258115178" type="curve" smooth="yes"/>
      <point x="34.164514298275556" y="472.1972608603765"/>
      <point x="164.64971617340393" y="616.4437021123913"/>
      <point x="350.6971198375005" y="616.4437021123914" type="curve" smooth="yes"/>
      <point x="510.27218573142375" y="616.4437021123914"/>
      <point x="623.707427026959" y="480.33083446739226"/>
      <point x="623.7074270269588" y="316.0536023192863" type="curve" smooth="yes"/>
      <point x="623.7074270269588" y="293.3678842919213"/>
      <point x="615.0575426012508" y="249.07355272811554"/>
      <point x="606.4000062596289" y="231.82418863732937" type="curve"/>
      <point x="453.711976640077" y="231.82418863732937" type="line"/>
      <point x="453.711976640077" y="309.78740669199897" type="line" smooth="yes"/>
      <point x="453.711976640077" y="397.2978291905995"/>
      <point x="414.6005043984113" y="462.2932703784726"/>
      <point x="336.4785588620423" y="462.2932703784726" type="curve" smooth="yes"/>
      <point x="239.39598951810018" y="462.2932703784726"/>
      <point x="195.4331754782835" y="377.4931174833574"/>
      <point x="195.4331754782835" y="305.8367514692708" type="curve" smooth="yes"/>
      <point x="195.4331754782835" y="210.60202098766842"/>
      <point x="253.88304297762753" y="138.0437032438059"/>
    </contour>
  </outline>
</glyph>
<glyph name="uni0066" format="2">
  <advance width="508"/>
  <unicode hex="0066"/>
  <anchor x="254" y="589.4102025702601" name="top"/>
  <anchor x="254" y="-167" name="bottom"/>
  <outline>
    <contour>
      <point x="156.891394376057" y="-2.0502570012633026" type="line"/>
      <point x="156.891394376057" y="601.277475786471" type="line" smooth="yes"/>
      <point x="156.891394376057" y="692.9184411420765"/>
      <point x="196.8930560614986" y="739.0058024090418"/>
      <point x="315.658778869962" y="739.0058024090418" type="curve" smooth="yes"/>
      <point x="388.64011090538315" y="739.0058024090418"/>
      <point x="425.86308324418286" y="738.3937461557612"/>
      <point x="441.59286608776017" y="737.3621666774543" type="curve"/>
      <point x="441.59286608776017" y="586.0983858425724" type="line"/>
      <point x="419.74241605691725" y="587.2334115446298"/>
      <point x="373.1300009235979" y="587.0961916205654"/>
      <point x="350.6709111548207" y="587.0961916205654" type="curve" smooth="yes"/>
      <point x="325.71216155042407" y="587.0961916205654"/>
      <point x="315.6587788699621" y="579.3437299408013"/>
      <point x="315.658778869962" y="551.8920842318748" type="curve" smooth="yes"/>
      <point x="315.658778869962" y="-2.0502570012633026" type="line"/>
    </contour>
    <contour>
      <point x="19.62024503575434" y="502.4130255762412" type="line"/>
      <point x="487.92757565438654" y="502.4130255762412" type="line"/>
      <point x="487.92757565438654" y="350.1243087964877" type="line"/>
      <point x="19.62024503575434" y="350.1243087964877" type="line"/>
    </contour>
  </outline>
</glyph>
<glyph name="uni0067" format="2">
  <advance width="586"/>
  <unicode hex="0067"/>
  <anchor x="305" y="590" name="top"/>
  <outline>
    <contour>
      <point x="379.91339012222306" y="109.16561640652084" type="curve" smooth="yes"/>
      <point x="379.91339012222306" y="219.80165416485687" type="line"/>
      <point x="412.5165281828666" y="319.56531677699485" type="line"/>
      <point x="412.5165281828666" y="589.053993460714" type="line"/>
      <point x="535.4642540341091" y="589.053993460714" type="line"/>
      <point x="535.4642540341091" y="109.94972225408767" type="line" smooth="yes"/>
      <point x="535.4642540341091" y="-52.615893121267646"/>
      <point x="436.490679943913" y="-139.1154780423478"/>
      <point x="272.7130687310629" y="-139.1154780423478" type="curve" smooth="yes"/>
      <point x="164.2636554730849" y="-139.1154780423478"/>
      <point x="57.14324259497954" y="-108.65486018951407"/>
      <point x="4.061679004122398" y="-52.474738874082696" type="curve"/>
      <point x="105.25400998590221" y="73.34205915875972" type="line"/>
      <point x="139.3278683165183" y="40.183057181770515"/>
      <point x="207.38006040655074" y="14.182860089503833"/>
      <point x="270.54239223615014" y="14.182860089503832" type="curve" smooth="yes"/>
      <point x="338.95607453679645" y="14.182860089503832"/>
      <point x="379.91339012222306" y="42.52873534714081"/>
    </contour>
    <contour>
      <point x="518.1522952365436" y="417.02042628492194" type="curve"/>
      <point x="453.16888475894433" y="201.7045040120421" type="line"/>
      <point x="435.2839552079259" y="163.74179923935898"/>
      <point x="361.6637388093344" y="114.73255787508762"/>
      <point x="279.59071641075604" y="114.73255787508764" type="curve" smooth="yes"/>
      <point x="151.53574149627858" y="114.73255787508764"/>
      <point x="40.055878502306854" y="215.55254480470256"/>
      <point x="40.055878502306854" y="354.7888725742344" type="curve" smooth="yes"/>
      <point x="40.055878502306854" y="493.8386149724132"/>
      <point x="164.56508737063302" y="600.1264050625484"/>
      <point x="292.4484606246045" y="600.1264050625484" type="curve" smooth="yes"/>
      <point x="405.86677877776464" y="600.1264050625484"/>
      <point x="494.0734976690288" y="507.7774697326283"/>
    </contour>
    <contour>
      <point x="299.7462067816883" y="453.1209363260745" type="curve"/>
      <point x="250.99936384031793" y="453.1209363260745"/>
      <point x="207.64662984929527" y="416.4606534726572"/>
      <point x="207.64662923426744" y="355.9668991580817" type="curve" smooth="yes"/>
      <point x="207.64662923426744" y="295.4731432451815"/>
      <point x="250.99936333000358" y="258.81286199008844"/>
      <point x="299.7462067816883" y="258.81286199008844" type="curve" smooth="yes"/>
      <point x="339.03811293262333" y="258.81286199008844"/>
      <point x="387.7023886824987" y="290.7596217856568"/>
      <point x="387.7023903419457" y="355.9668991580809" type="curve" smooth="yes"/>
      <point x="387.7023903419457" y="415.87347043643206"/>
      <point x="343.55329817845984" y="453.12093632607457"/>
    </contour>
  </outline>
</glyph>
<glyph name="uni0068" format="2">
  <advance width="616"/>
  <unicode hex="0068"/>
  <anchor x="308" y="589.4102025702601" name="top"/>
  <anchor x="308" y="-167" name="bottom"/>
  <outline>
    <contour>
      <point x="50.56617369335768" y="0.07739554720163708" type="line"/>
      <point x="50.56617369335768" y="735.4953395511901" type="line"/>
      <point x="209.33355818726272" y="735.4953395511901" type="line"/>
      <point x="209.33355818726272" y="0.07739554720163708" type="line"/>
    </contour>
    <contour>
      <point x="406.56349353037564" y="0.07739554720163708" type="line"/>
      <point x="406.56349353037564" y="353.98903565491884" type="line" smooth="yes"/>
      <point x="406.56349353037564" y="418.71497096620004"/>
      <point x="359.15171818429576" y="458.1459995946133"/>
      <point x="310.97948483897477" y="458.1459995946133" type="curve" smooth="yes"/>
      <point x="261.34051577113365" y="458.1459995946133"/>
      <point x="209.33355818726272" y="423.2386419200829"/>
      <point x="209.33355818726272" y="345.79057455741935" type="curve"/>
      <point x="85.74689905067048" y="350.84938811289777" type="line"/>
      <point x="115.13168752689765" y="442.9739667096655"/>
      <point x="201.7336280087997" y="608.3139837315571"/>
      <point x="339.6796391669657" y="608.3139837315571" type="curve" smooth="yes"/>
      <point x="468.5046128520547" y="608.3139837315571"/>
      <point x="565.3308780242807" y="520.1825229135611"/>
      <point x="565.3308780242808" y="389.84532230079026" type="curve" smooth="yes"/>
      <point x="565.3308780242808" y="0.07739554720163708" type="line"/>
    </contour>
  </outline>
</glyph>
<glyph name="uni0069" format="2">
  <advance width="260"/>
  <unicode hex="0069"/>
  <anchor x="130" y="0" name="bottom"/>
  <anchor x="131" y="589" name="top"/>
  <outline>
    <contour>
      <point x="50.56617369335768" y="0.07739554720163708" type="line"/>
      <point x="50.56617369335768" y="589.4102025702601" type="line"/>
      <point x="209.33355818726272" y="589.4102025702601" type="line"/>
      <point x="209.33355818726272" y="0.07739554720163708" type="line"/>
    </contour>
    <contour>
      <point x="35.78500556789286" y="705.2984247224913" type="curve" smooth="yes"/>
      <point x="35.78500556789286" y="750.8998287240784"/>
      <point x="72.97746192396215" y="777.452518721452"/>
      <point x="129.94986594031022" y="777.4525187214518" type="curve" smooth="yes"/>
      <point x="186.92226995665825" y="777.4525187214518"/>
      <point x="224.11472631272756" y="750.8998287240784"/>
      <point x="224.11472631272756" y="705.2984247224913" type="curve" smooth="yes"/>
      <point x="224.11472631272756" y="659.697020720904"/>
      <point x="186.9290176184909" y="633.1443307235306"/>
      <point x="129.94986594031022" y="633.1443307235305" type="curve"/>
      <point x="72.97746192396218" y="633.1443307235305"/>
      <point x="35.78500556789287" y="659.6970207209039"/>
    </contour>
  </outline>
</glyph>
<glyph name="uni006B" format="2">
  <advance width="622"/>
  <unicode hex="006B"/>
  <anchor x="275" y="0" name="bottom"/>
  <outline>
    <contour>
      <point x="50.5661736933576" y="0.07739554720163708" type="line"/>
      <point x="50.5661736933576" y="735.4953395511901" type="line"/>
      <point x="209.33355818726264" y="735.4953395511901" type="line"/>
      <point x="209.33355818726264" y="0.07739554720163708" type="line"/>
    </contour>
    <contour>
      <point x="611.528875103423" y="0.0" type="line"/>
      <point x="399.60154163755567" y="0.0" type="line"/>
      <point x="183.6448913524932" y="300.6967894624641" type="line"/>
      <point x="183.6448913524932" y="334.28902288852817" type="line"/>
      <point x="407.67809395871257" y="589.4102025702601" type="line"/>
      <point x="622.1646406533113" y="589.4102025702601" type="line"/>
      <point x="360.42091082826687" y="295.83968504620816" type="line"/>
      <point x="363.2425257281065" y="348.2235315754599" type="line"/>
    </contour>
  </outline>
</glyph>
<glyph name="uni006C" format="2">
  <advance width="355"/>
  <unicode hex="006C"/>
  <anchor x="135" y="718" name="top"/>
  <anchor x="191" y="1" name="bottom"/>
  <outline>
    <contour>
      <point x="209.33355818726272" y="736.7627532128251" type="line"/>
      <point x="209.33355818726272" y="192.80804424654735" type="line" smooth="yes"/>
      <point x="209.33355818726272" y="158.846411168989"/>
      <point x="220.01030870271745" y="152.2299652848721"/>
      <point x="272.9558818039149" y="152.22996528487207" type="curve" smooth="yes"/>
      <point x="287.05669516981806" y="152.22996528487207"/>
      <point x="320.7522412136682" y="151.63529321185038"/>
      <point x="334.92995655878815" y="153.06098234486274" type="curve"/>
      <point x="334.92995655878815" y="0.02182370620612569" type="line"/>
      <point x="304.38903423283966" y="-1.5882194996908945"/>
      <point x="213.00000755151467" y="-3.217475142636665"/>
      <point x="192.73734740809758" y="-3.217475142636665" type="curve" smooth="yes"/>
      <point x="92.88081542822418" y="-3.217475142636665"/>
      <point x="50.56617369335768" y="34.141601936146756"/>
      <point x="50.56617369335768" y="129.1985247187755" type="curve" smooth="yes"/>
      <point x="50.56617369335768" y="736.7627532128251" type="line"/>
    </contour>
  </outline>
</glyph>
<glyph name="uni006D" format="2">
  <advance width="912"/>
  <unicode hex="006D"/>
  <anchor x="456" y="589.4102025702601" name="top"/>
  <anchor x="456" y="-167" name="bottom"/>
  <outline>
    <contour>
      <point x="50.56617369335768" y="0.07739554720163708" type="line"/>
      <point x="50.56617369335768" y="589.5636361593833" type="line"/>
      <point x="209.33355818726272" y="589.5636361593833" type="line"/>
      <point x="209.33355818726272" y="0.07739554720163708" type="line"/>
    </contour>
    <contour>
      <point x="376.5929669334861" y="0.07739554720163708" type="line"/>
      <point x="376.5929669334861" y="376.0393137339042" type="line" smooth="yes"/>
      <point x="376.5929669334861" y="433.4045529207516"/>
      <point x="344.4684452487724" y="463.34621193838234"/>
      <point x="301.094355130703" y="463.34621193838234" type="curve" smooth="yes"/>
      <point x="263.1502870093927" y="463.34621193838234"/>
      <point x="209.33355818726275" y="445.28891999906824"/>
      <point x="209.33355818726272" y="367.8408526364047" type="curve"/>
      <point x="85.74689905067048" y="372.89966619188317" type="line"/>
      <point x="120.10590419714252" y="492.38243647499763"/>
      <point x="206.87079750782686" y="609.6635927931694"/>
      <point x="330.3687273589709" y="609.6635927931694" type="curve" smooth="yes"/>
      <point x="445.7009318182571" y="609.6635927931694"/>
      <point x="535.3603514273912" y="535.5316291465798"/>
      <point x="535.3603514273912" y="405.1944285338088" type="curve" smooth="yes"/>
      <point x="535.3603514273912" y="0.07739554720163708" type="line"/>
    </contour>
    <contour>
      <point x="702.6197601736144" y="0.07739554720163708" type="line"/>
      <point x="702.6197601736144" y="376.0393137339042" type="line" smooth="yes"/>
      <point x="702.6197601736144" y="433.4045529207514"/>
      <point x="670.4952384889008" y="463.34621193838217"/>
      <point x="627.1211483708313" y="463.34621193838217" type="curve" smooth="yes"/>
      <point x="589.1770802495209" y="463.34621193838217"/>
      <point x="535.3603514273912" y="445.28891999906824"/>
      <point x="535.3603514273912" y="367.8408526364047" type="curve"/>
      <point x="411.77369229079875" y="372.89966619188317" type="line"/>
      <point x="407.9519891776942" y="495.6550686115328"/>
      <point x="532.8975907479551" y="609.6635927931694"/>
      <point x="656.3955205990993" y="609.6635927931694" type="curve" smooth="yes"/>
      <point x="771.7277250583854" y="609.6635927931694"/>
      <point x="861.3871446675195" y="535.5316291465798"/>
      <point x="861.3871446675195" y="405.1944285338088" type="curve" smooth="yes"/>
      <point x="861.3871446675195" y="0.07739554720163708" type="line"/>
    </contour>
  </outline>
</glyph>
<glyph name="uni006F" format="2">
  <advance width="688"/>
  <unicode hex="006F"/>
  <anchor x="345" y="589" name="top"/>
  <outline>
    <contour>
      <point x="34.12674932168371" y="292.6751673977523" type="curve" smooth="yes"/>
      <point x="34.12674932168371" y="465.00005231725686"/>
      <point x="176.75832185035873" y="612.2141302622645"/>
      <point x="344.15068965821814" y="612.2141302622645" type="curve" smooth="yes"/>
      <point x="531.612526425824" y="612.2141302622645"/>
      <point x="654.1746299947525" y="465.0000523172571"/>
      <point x="654.1746299947525" y="292.6751673977518" type="curve" smooth="yes"/>
      <point x="654.1746299947525" y="120.29691323810962"/>
      <point x="511.5948990992745" y="-27.055884859783703"/>
      <point x="344.150689658218" y="-27.0558848597837" type="curve" smooth="yes"/>
      <point x="156.63079571687442" y="-27.0558848597837"/>
      <point x="34.12674932168369" y="120.29691323810962"/>
    </contour>
    <contour>
      <point x="199.7177352060254" y="292.6751673977523" type="curve" smooth="yes"/>
      <point x="199.7177352060254" y="201.5478932422069"/>
      <point x="262.7999231415648" y="138.53510102455746"/>
      <point x="344.15068965821814" y="138.5351010245575" type="curve" smooth="yes"/>
      <point x="425.5014553232374" y="138.5351010245575"/>
      <point x="488.58364318393797" y="201.54789564990872"/>
      <point x="488.58364411041066" y="292.6751673977518" type="curve" smooth="yes"/>
      <point x="488.58364411041066" y="383.7419895430038"/>
      <point x="425.4474897041257" y="446.6231443779234"/>
      <point x="344.15068965821814" y="446.62314437792344" type="curve" smooth="yes"/>
      <point x="262.8538904633795" y="446.62314437792344"/>
      <point x="199.7177361318834" y="383.7419871368992"/>
    </contour>
  </outline>
</glyph>
<glyph name="uni0070" format="2">
  <advance width="683"/>
  <unicode hex="0070"/>
  <anchor x="341" y="589.4102025702601" name="top"/>
  <anchor x="341" y="-167" name="bottom"/>
  <outline>
    <contour>
      <point x="192.41414368098728" y="589.3725595935559" type="line"/>
      <point x="192.29086365569853" y="125.34438942966895" type="line"/>
      <point x="209.96307767763875" y="62.54823503432403" type="line"/>
      <point x="209.90732190400692" y="-118.76835740677636" type="line"/>
      <point x="50.529603524751884" y="-118.72601495772778" type="line"/>
      <point x="50.725321354308825" y="589.4102025702601" type="line"/>
    </contour>
    <contour>
      <point x="77.81643656445998" y="196.88606423458882" type="curve"/>
      <point x="168.84866476191405" y="501.5168222465092" type="line"/>
      <point x="191.02752144130505" y="548.5614317685721"/>
      <point x="249.33921345622747" y="609.6497470574924"/>
      <point x="356.77556944975385" y="609.6212040561502" type="curve" smooth="yes"/>
      <point x="523.6867394500001" y="609.5768601680383"/>
      <point x="649.17044884494" y="470.2456875007389"/>
      <point x="649.1247982844285" y="298.416179747507" type="curve" smooth="yes"/>
      <point x="649.0791318265501" y="126.52683402905708"/>
      <point x="505.9847116012054" y="-19.51411696905984"/>
      <point x="339.01541639932356" y="-19.46975763861756" type="curve" smooth="yes"/>
      <point x="187.29640807768163" y="-19.429449906489797"/>
      <point x="108.28224595412712" y="81.93209226790518"/>
    </contour>
    <contour>
      <point x="342.90210366616515" y="146.12020149951098" type="curve" smooth="yes"/>
      <point x="423.73325898296514" y="146.09872679708474"/>
      <point x="483.5097618517101" y="207.91495680602446"/>
      <point x="483.53381824399537" y="298.4601728960258" type="curve" smooth="yes"/>
      <point x="483.5578735626687" y="389.004812877159"/>
      <point x="423.8156620740806" y="450.853371959999"/>
      <point x="342.9850223485167" y="450.8748465254462" type="curve" smooth="yes"/>
      <point x="277.9533704965804" y="450.8921237172208"/>
      <point x="206.04117160343378" y="395.9521787011697"/>
      <point x="206.015290141147" y="298.5339022369648" type="curve" smooth="yes"/>
      <point x="205.99151273786978" y="209.03534066465687"/>
      <point x="262.09660462516996" y="146.14166938574266"/>
    </contour>
  </outline>
</glyph>
<glyph name="uni0071" format="2">
  <advance width="684"/>
  <unicode hex="0071"/>
  <anchor x="342" y="589.4102025702601" name="top"/>
  <anchor x="342" y="-167" name="bottom"/>
  <outline>
    <contour>
      <point x="633.2595111751618" y="-118.76835740677636" type="line"/>
      <point x="474.49212668125716" y="-118.76835740677636" type="line"/>
      <point x="474.49212668125716" y="180.2370332565787" type="line"/>
      <point x="505.7989553148317" y="180.2370332565787" type="line"/>
      <point x="505.7989553148317" y="589.4102025702601" type="line"/>
      <point x="633.2595111751618" y="589.4102025702601" type="line"/>
    </contour>
    <contour>
      <point x="605.8747482461703" y="393.94212993268724" type="curve"/>
      <point x="514.9234556026239" y="89.28719781443218" type="line"/>
      <point x="493.122441631774" y="43.01217868396029"/>
      <point x="432.6908837765716" y="-11.513215357852914"/>
      <point x="327.02527802409384" y="-11.513215357852904" type="curve"/>
      <point x="160.11400691961907" y="-11.51321535785324"/>
      <point x="34.592403844384194" y="127.78393291722209"/>
      <point x="34.59240384438417" y="299.61354475390027" type="curve" smooth="yes"/>
      <point x="34.592403844383966" y="471.50247084959295"/>
      <point x="177.64745659078068" y="617.5812750377513"/>
      <point x="344.6163441809182" y="617.5812750377513" type="curve" smooth="yes"/>
      <point x="498.4543203371901" y="617.5812750377513"/>
      <point x="574.952476693571" y="510.4933794264428"/>
    </contour>
    <contour>
      <point x="340.7736499269824" y="451.99028915341034" type="curve" smooth="yes"/>
      <point x="259.9429172448414" y="451.99028915341034"/>
      <point x="200.1833906492757" y="390.1582874184437"/>
      <point x="200.18338972872553" y="299.61354475390044" type="curve" smooth="yes"/>
      <point x="200.1833897287257" y="209.06879969704602"/>
      <point x="259.94291639865145" y="147.23680035439006"/>
      <point x="340.7736499269825" y="147.23680035439025" type="curve" smooth="yes"/>
      <point x="405.80495900659776" y="147.23680035439025"/>
      <point x="477.7019276255427" y="202.19578176717425"/>
      <point x="477.70192762554274" y="299.61354475389913" type="curve" smooth="yes"/>
      <point x="477.70192762554257" y="389.11220499903806"/>
      <point x="421.579238056642" y="451.9902891534102"/>
    </contour>
  </outline>
</glyph>
<glyph name="uni0072" format="2">
  <advance width="412"/>
  <unicode hex="0072"/>
  <anchor x="224" y="589" name="top"/>
  <outline>
    <contour>
      <point x="50.56617369335768" y="0.07739554720163708" type="line"/>
      <point x="50.56617369335768" y="589.5636361593833" type="line"/>
      <point x="209.33355818726272" y="589.5636361593833" type="line"/>
      <point x="209.33355818726272" y="0.07739554720163708" type="line"/>
    </contour>
    <contour>
      <point x="392.11264632447654" y="430.84636370192754" type="line"/>
      <point x="376.4754530479804" y="433.9798956850445"/>
      <point x="357.4144541929646" y="436.10262337935575"/>
      <point x="339.91391369773515" y="436.1026233793558" type="curve" smooth="yes"/>
      <point x="274.9506210298892" y="436.1026233793558"/>
      <point x="209.33355818726272" y="401.96908863054733"/>
      <point x="209.33355818726272" y="321.5973951218834" type="curve"/>
      <point x="85.74689905067048" y="340.6373856753829" type="line"/>
      <point x="115.13168752689765" y="432.76196427215046"/>
      <point x="201.7336280087997" y="598.101981294042"/>
      <point x="339.6796391669657" y="598.101981294042" type="curve" smooth="yes"/>
      <point x="359.9728865749419" y="598.101981294042"/>
      <point x="383.9638285784051" y="591.7937491625297"/>
      <point x="392.11264632447654" y="586.4512756645835" type="curve"/>
    </contour>
  </outline>
</glyph>
<glyph name="uni0073" format="2">
  <advance width="532"/>
  <unicode hex="0073"/>
  <anchor x="275" y="589" name="top"/>
  <anchor x="263" y="1" name="bottom"/>
  <outline>
    <contour>
      <point x="508.93217922868934" y="521.9449473565027" type="curve"/>
      <point x="411.7758027324749" y="406.2316145711562" type="line"/>
      <point x="371.20858638430735" y="439.1207178986225"/>
      <point x="327.17723312557433" y="460.1117703109721"/>
      <point x="275.563264866369" y="460.111770310972" type="curve"/>
      <point x="233.8074862517455" y="460.111770310972"/>
      <point x="209.52085587233017" y="450.862983283343"/>
      <point x="209.5208558723302" y="425.72614514413726" type="curve" smooth="yes"/>
      <point x="209.5208558723302" y="397.5282881149812"/>
      <point x="235.55077844782207" y="386.8605433274791"/>
      <point x="313.0577786893432" y="365.3385809638435" type="curve" smooth="yes"/>
      <point x="455.5821785665886" y="325.76273929148584"/>
      <point x="496.2638428257537" y="261.8295255037074"/>
      <point x="496.2638428257537" y="176.71398833180768" type="curve" smooth="yes"/>
      <point x="496.2638428257537" y="69.44674091381535"/>
      <point x="406.84219170217847" y="-15.391721874706121"/>
      <point x="269.40622243111983" y="-15.391721874706114" type="curve" smooth="yes"/>
      <point x="186.67488656906005" y="-15.391721874706114"/>
      <point x="103.0937074367578" y="-1.5564381997862338"/>
      <point x="15.859995790316653" y="81.41944010447624" type="curve"/>
      <point x="116.99473130515963" y="193.65534237606397" type="line"/>
      <point x="168.07565391040868" y="153.3877220327564"/>
      <point x="227.27226408761388" y="132.74672902835408"/>
      <point x="275.2733809268678" y="132.74672902835408" type="curve" smooth="yes"/>
      <point x="311.80329998608875" y="132.74672902835408"/>
      <point x="332.69080261294465" y="146.13666763604957"/>
      <point x="332.69080261294465" y="168.6663340713418" type="curve" smooth="yes"/>
      <point x="332.69080261294465" y="195.6833331683214"/>
      <point x="311.9948667957288" y="210.72927353119718"/>
      <point x="231.8067482869297" y="231.53004266456514" type="curve" smooth="yes"/>
      <point x="98.21098484797605" y="266.18473570596365"/>
      <point x="47.38121494752255" y="318.86488562536664"/>
      <point x="47.38121494752255" y="415.3108338626042" type="curve" smooth="yes"/>
      <point x="47.38121494752255" y="520.1404541903107"/>
      <point x="131.3736166082095" y="605.2619382961691"/>
      <point x="286.30481525677504" y="605.2619382961691" type="curve" smooth="yes"/>
      <point x="360.8390555362051" y="605.2619382961691"/>
      <point x="438.69509005921816" y="585.4683902456011"/>
    </contour>
  </outline>
</glyph>
<glyph name="uni0074" format="2">
  <advance width="487"/>
  <unicode hex="0074"/>
  <anchor x="292" y="1" name="bottom"/>
  <outline>
    <contour>
      <point x="308.2661918558078" y="750.3325980079253" type="line"/>
      <point x="308.2661918558078" y="192.80804424654735" type="line" smooth="yes"/>
      <point x="308.2661918558078" y="158.846411168989"/>
      <point x="318.9429423712625" y="152.2299652848721"/>
      <point x="371.88851547245997" y="152.22996528487207" type="curve" smooth="yes"/>
      <point x="385.9893288383631" y="152.22996528487207"/>
      <point x="419.68487488221325" y="151.63529321185038"/>
      <point x="433.8625902273332" y="153.06098234486274" type="curve"/>
      <point x="433.8625902273332" y="0.02182370620612569" type="line"/>
      <point x="403.3216679013847" y="-1.5882194996908945"/>
      <point x="311.93264122005974" y="-3.217475142636665"/>
      <point x="291.66998107664267" y="-3.217475142636665" type="curve" smooth="yes"/>
      <point x="191.81344909676926" y="-3.217475142636665"/>
      <point x="149.49880736190278" y="34.141601936146756"/>
      <point x="149.49880736190278" y="129.1985247187755" type="curve" smooth="yes"/>
      <point x="149.49880736190278" y="696.9272042220446" type="line"/>
    </contour>
    <contour>
      <point x="19.055538308425913" y="587.9450734946164" type="line"/>
      <point x="468.41740057251405" y="587.9450734946164" type="line"/>
      <point x="468.41740057251405" y="439.19951893934393" type="line"/>
      <point x="19.055538308425913" y="439.19951893934393" type="line"/>
    </contour>
  </outline>
</glyph>
<glyph name="uni0075" format="2">
  <advance width="616"/>
  <unicode hex="0075"/>
  <anchor x="308" y="589" name="top"/>
  <anchor x="487" y="-1" name="bottom"/>
  <outline>
    <contour>
      <point x="565.3308780242807" y="588.5272253337367" type="line"/>
      <point x="565.3308780242807" y="-0.9590152784450938" type="line"/>
      <point x="406.5634935303756" y="-0.9590152784450938" type="line"/>
      <point x="406.5634935303756" y="588.5272253337367" type="line"/>
    </contour>
    <contour>
      <point x="209.33355818726272" y="588.5272253337367" type="line"/>
      <point x="209.33355818726272" y="234.61558522601933" type="line" smooth="yes"/>
      <point x="209.33355818726272" y="169.88964991473813"/>
      <point x="256.7453335333426" y="130.45862128632498"/>
      <point x="304.91756687866365" y="130.45862128632498" type="curve" smooth="yes"/>
      <point x="354.55653594650477" y="130.45862128632498"/>
      <point x="406.5634935303756" y="165.36597896085527"/>
      <point x="406.5634935303756" y="242.81404632351882" type="curve"/>
      <point x="530.1501526669679" y="237.75523276804037" type="line"/>
      <point x="500.7653641907407" y="145.63065417127268"/>
      <point x="414.16342370883865" y="-19.70936285061893"/>
      <point x="276.21741255067263" y="-19.709362850618955" type="curve"/>
      <point x="147.3924388655836" y="-19.709362850618955"/>
      <point x="50.56617369335768" y="68.42209796737704"/>
      <point x="50.56617369335768" y="198.7592985801479" type="curve" smooth="yes"/>
      <point x="50.56617369335768" y="588.5272253337367" type="line"/>
    </contour>
  </outline>
</glyph>
<glyph name="uni0076" format="2">
  <advance width="620"/>
  <unicode hex="0076"/>
  <anchor x="310" y="589.4102025702601" name="top"/>
  <anchor x="310" y="-167" name="bottom"/>
  <outline>
    <contour>
      <point x="429.4788293386156" y="589.0259065442151" type="line"/>
      <point x="614.2093349882213" y="588.9814637338836" type="line"/>
      <point x="405.9545859776783" y="-0.4646633229338691" type="line"/>
      <point x="218.52214124661" y="-0.4646633229338691" type="line"/>
      <point x="8.999333582678846" y="589.832932853602" type="line"/>
      <point x="198.40300410739215" y="589.7884900432706" type="line"/>
      <point x="334.1013106543252" y="161.07205704242335" type="line"/>
      <point x="299.3702845850835" y="160.87182763039232" type="line"/>
    </contour>
  </outline>
</glyph>
<glyph name="uni0077" format="2">
  <advance width="861"/>
  <unicode hex="0077"/>
  <anchor x="426" y="589" name="top"/>
  <outline>
    <contour>
      <point x="355.49925973748435" y="-0.4646633229338691" type="line"/>
      <point x="175.68025616399444" y="-0.4646633229338691" type="line"/>
      <point x="11.19795992202689" y="589.832932853602" type="line"/>
      <point x="194.1805014291847" y="589.7884900432706" type="line"/>
      <point x="288.1739845536616" y="181.0870065158998" type="line"/>
      <point x="272.9632353018346" y="180.7302634228385" type="line"/>
      <point x="352.1515680972929" y="589.0259065442151" type="line"/>
      <point x="506.5384962121102" y="588.9814637338836" type="line"/>
      <point x="593.5232674338693" y="172.75618165221076" type="line"/>
      <point x="575.3385384833277" y="172.72510965244155" type="line"/>
      <point x="661.0289800488846" y="588.2188802348281" type="line"/>
      <point x="835.2719194196974" y="588.1744374244968" type="line"/>
      <point x="671.8438506400261" y="-1.2716896323207698" type="line"/>
      <point x="492.02484706653655" y="-1.2716896323207698" type="line"/>
      <point x="412.2632768285712" y="359.64365309256823" type="line"/>
      <point x="433.8570249096235" y="359.6800062365895" type="line"/>
    </contour>
  </outline>
</glyph>
<glyph name="uni0078" format="2">
  <advance width="621"/>
  <unicode hex="0078"/>
  <anchor x="310" y="589.4102025702601" name="top"/>
  <anchor x="310" y="-167" name="bottom"/>
  <outline>
    <contour>
      <point x="616.9553863020021" y="0.0" type="line"/>
      <point x="427.25207293542525" y="0.0" type="line"/>
      <point x="279.45633601999515" y="238.79940361879238" type="line"/>
      <point x="341.1518413173565" y="238.79940361879255" type="line"/>
      <point x="193.3561044019269" y="0.0" type="line"/>
      <point x="3.6527910353496216" y="0.0" type="line"/>
      <point x="235.78330077272778" y="365.71116093791863" type="line"/>
      <point x="237.6652493675244" y="267.98068856217355" type="line"/>
      <point x="15.83329337735653" y="589.4102025702601" type="line"/>
      <point x="210.74156191484778" y="589.4102025702601" type="line"/>
      <point x="347.8372577582934" y="372.45632490572825" type="line"/>
      <point x="286.93961504485304" y="371.40641613225694" type="line"/>
      <point x="414.40142349267745" y="589.4102025702601" type="line"/>
      <point x="609.3096920301689" y="589.4102025702601" type="line"/>
      <point x="389.15425826258974" y="261.0366761934782" type="line"/>
      <point x="390.5472224079611" y="359.3146698151773" type="line"/>
    </contour>
  </outline>
</glyph>
<glyph name="uni0079" format="2">
  <advance width="618"/>
  <unicode hex="0079"/>
  <anchor x="320" y="589" name="top"/>
  <outline>
    <contour>
      <point x="433.8861902663442" y="589.0259065442151" type="line"/>
      <point x="617.867018784293" y="588.9814637338836" type="line"/>
      <point x="327.2398557491919" y="-118.76835740677636" type="line"/>
      <point x="154.03637723095494" y="-118.76835740677636" type="line"/>
      <point x="259.98695563980345" y="138.73844229055084" type="line"/>
      <point x="262.12693349546277" y="31.255732230225256" type="line"/>
      <point x="5.849834741818765" y="589.832932853602" type="line"/>
      <point x="203.91045130323175" y="589.7884900432706" type="line"/>
      <point x="348.4620197130898" y="243.99517947840602" type="line"/>
      <point x="305.4514926039234" y="243.12574715064417" type="line"/>
    </contour>
  </outline>
</glyph>
<glyph name="uni007A" format="2">
  <advance width="549"/>
  <unicode hex="007A"/>
  <anchor x="283" y="589" name="top"/>
  <outline>
    <contour>
      <point x="298.2762075201966" y="450.74977672812327" type="line"/>
      <point x="307.8296403395932" y="430.69823284912695" type="line"/>
      <point x="40.95720128140776" y="430.69823284912695" type="line"/>
      <point x="40.95720128140776" y="589.4102025702601" type="line"/>
      <point x="501.5369132822416" y="589.4102025702601" type="line"/>
      <point x="501.5369132822416" y="446.4104016911674" type="line"/>
      <point x="265.2767984486086" y="144.0542483531485" type="line"/>
      <point x="257.04455737500496" y="160.93432184370704" type="line"/>
      <point x="511.0888032486818" y="160.93432184370704" type="line"/>
      <point x="511.0888032486818" y="0.0" type="line"/>
      <point x="37.12615358293879" y="0.0" type="line"/>
      <point x="37.12615358293879" y="128.82715198116804" type="line"/>
    </contour>
  </outline>
</glyph>
<glyph name="uni007B" format="2">
  <advance width="445"/>
  <unicode hex="007B"/>
  <outline>
    <contour>
      <point x="157.04175927223184" y="616.2812383574193" type="curve" smooth="yes"/>
      <point x="162.72120762095412" y="722.7690140197427"/>
      <point x="191.95355146901738" y="829.0605238967983"/>
      <point x="427.3541793722303" y="830.5669352110078" type="curve"/>
      <point x="427.3541793722304" y="664.2188046420079" type="line"/>
      <point x="277.5830089681913" y="651.9481456849611"/>
      <point x="307.05692491809657" y="552.3738419942408"/>
      <point x="307.0569249180965" y="466.50768124387656" type="curve" smooth="yes"/>
      <point x="307.0569249180965" y="400.18126495177415"/>
      <point x="283.3522949090153" y="328.1370938060669"/>
      <point x="147.50197267722444" y="296.4805174765146" type="curve"/>
      <point x="147.50197267722297" y="334.7404424096937" type="line"/>
      <point x="290.78581557592463" y="293.041091761447"/>
      <point x="316.78232853721187" y="222.66505914086292"/>
      <point x="316.78232853721187" y="154.55007798329143" type="curve" smooth="yes"/>
      <point x="316.78232853721187" y="68.82287449627412"/>
      <point x="280.98143466563647" y="-25.25650440533454"/>
      <point x="427.3541793722304" y="-43.082688847625576" type="curve"/>
      <point x="427.3541793722303" y="-199.34597532469965" type="line"/>
      <point x="184.28717734871742" y="-196.7319762311023"/>
      <point x="155.3965285219208" y="-93.5170736643227"/>
      <point x="154.17325834810072" y="11.804680056971668" type="curve" smooth="yes"/>
      <point x="152.88186227612553" y="122.99197290535072"/>
      <point x="182.4253390957575" y="236.52731933574182"/>
      <point x="23.36613299370036" y="236.5273193357418" type="curve"/>
      <point x="23.36613299370032" y="400.7803595888212" type="line"/>
      <point x="169.62876280555665" y="400.7803595888212"/>
      <point x="151.30031640025373" y="508.6310859149201"/>
    </contour>
  </outline>
</glyph>
<glyph name="uni007C" format="2">
  <advance width="258"/>
  <unicode hex="007C"/>
  <outline>
    <contour>
      <point x="207.68368891513333" y="-185.54066132405293" type="line"/>
      <point x="50.56617369335766" y="-185.54066132405293" type="line"/>
      <point x="50.56617369335766" y="824.1898064407325" type="line"/>
      <point x="207.68368891513333" y="824.1898064407325" type="line"/>
    </contour>
  </outline>
</glyph>
<glyph name="uni007D" format="2">
  <advance width="444"/>
  <unicode hex="007D"/>
  <outline>
    <contour>
      <point x="287.5608968809733" y="14.939721528888814" type="curve" smooth="yes"/>
      <point x="281.8814485322511" y="-91.54805413343458"/>
      <point x="252.64910468418788" y="-197.8395640104902"/>
      <point x="17.248476780974894" y="-199.34597532469965" type="curve"/>
      <point x="17.24847678097477" y="-32.99784475569968" type="line"/>
      <point x="167.01964718501392" y="-20.727185798653057"/>
      <point x="137.54573123510863" y="78.84711789206739"/>
      <point x="137.54573123510858" y="164.71327864243167" type="curve" smooth="yes"/>
      <point x="137.54573123510858" y="231.039694934534"/>
      <point x="161.25036124418978" y="303.08386608024125"/>
      <point x="297.1006834759807" y="334.74044240979356" type="curve"/>
      <point x="297.1006834759821" y="296.48051747661447" type="line"/>
      <point x="153.81684057728052" y="338.1798681248612"/>
      <point x="127.82032761599328" y="408.55590074544523"/>
      <point x="127.82032761599326" y="476.6708819030167" type="curve" smooth="yes"/>
      <point x="127.82032761599322" y="562.398085390034"/>
      <point x="163.62122148756862" y="656.4774642916427"/>
      <point x="17.248476780974684" y="674.3036487339338" type="curve"/>
      <point x="17.248476780974727" y="830.5669352110078" type="line"/>
      <point x="260.3154788044876" y="827.9529361174104"/>
      <point x="289.20612763128423" y="724.7380335506309"/>
      <point x="290.42939780510443" y="619.4162798293364" type="curve" smooth="yes"/>
      <point x="291.72079387707964" y="508.22898698095736"/>
      <point x="262.1773170574477" y="394.6936405505663"/>
      <point x="421.2365231595048" y="394.69364055056633" type="curve"/>
      <point x="421.2365231595048" y="230.4406002974869" type="line"/>
      <point x="274.9738933476485" y="230.4406002974869"/>
      <point x="293.3023397529515" y="122.58987397138803"/>
    </contour>
  </outline>
</glyph>
<glyph name="uni007E" format="2">
  <advance width="696"/>
  <unicode hex="007E"/>
  <outline>
    <contour>
      <point x="235.19224160478157" y="530.5015319335997" type="curve" smooth="yes"/>
      <point x="297.99532428912687" y="530.5015319335997"/>
      <point x="341.9470031843851" y="490.79004668437324"/>
      <point x="373.78581373054976" y="455.7602493617424" type="curve" smooth="yes"/>
      <point x="422.3987904935697" y="402.2751255758138"/>
      <point x="434.7630057769558" y="386.9302760364633"/>
      <point x="454.8213285879056" y="386.9302760364633" type="curve" smooth="yes"/>
      <point x="488.3330470266307" y="386.9302760364633"/>
      <point x="495.52622065781486" y="430.23898997334084"/>
      <point x="516.0117181142158" y="524.9121495082837" type="curve"/>
      <point x="653.1170098009676" y="501.5316231313771" type="line"/>
      <point x="623.6719059084656" y="325.02738916540443"/>
      <point x="573.6206806532048" y="234.61234734723007"/>
      <point x="465.93760638615805" y="234.6123473472301" type="curve" smooth="yes"/>
      <point x="389.99580041147846" y="234.6123473472301"/>
      <point x="344.0006657764144" y="283.1767974044865"/>
      <point x="312.734786750205" y="313.97073165690796" type="curve" smooth="yes"/>
      <point x="276.50788202652893" y="349.6508070929597"/>
      <point x="262.9413547657595" y="375.76974009609006"/>
      <point x="235.8190251635658" y="375.76974009609006" type="curve" smooth="yes"/>
      <point x="192.03299570985075" y="375.76974009609006"/>
      <point x="178.81203243110926" y="306.28498378676767"/>
      <point x="164.44433457297345" y="219.98848379174962" type="curve"/>
      <point x="30.706048497880342" y="250.75652527385438" type="line"/>
      <point x="52.625419036353904" y="413.239841854887"/>
      <point x="111.55941044221744" y="530.5015319335997"/>
    </contour>
  </outline>
</glyph>
<glyph name="uni00A1" format="2">
  <advance width="294"/>
  <unicode hex="00A1"/>
  <outline>
    <contour>
      <point x="229.84214059318074" y="-143.994778798283" type="line"/>
      <point x="64.25115470883915" y="-143.994778798283" type="line"/>
      <point x="64.25115470883907" y="336.6173305093319" type="line"/>
      <point x="229.84214059318066" y="336.6173305093319" type="line"/>
    </contour>
    <contour>
      <point x="147.04664765100983" y="403.82563735852455" type="curve" smooth="yes"/>
      <point x="91.71539253813452" y="403.82563735852455"/>
      <point x="48.87838313864724" y="443.60958133225364"/>
      <point x="48.87838313864722" y="501.46064154816963" type="curve" smooth="yes"/>
      <point x="48.87838313864722" y="559.3117017640853"/>
      <point x="91.71539253813441" y="599.0956457378142"/>
      <point x="147.04664765100975" y="599.0956457378142" type="curve" smooth="yes"/>
      <point x="202.37790276388506" y="599.0956457378142"/>
      <point x="245.21491216337245" y="559.3117017640853"/>
      <point x="245.21491216337242" y="501.46064154816963" type="curve" smooth="yes"/>
      <point x="245.21491216337242" y="443.60958133225364"/>
      <point x="202.37790276388515" y="403.82563735852455"/>
    </contour>
  </outline>
</glyph>
<glyph name="uni00A2" format="2">
  <advance width="577"/>
  <unicode hex="00A2"/>
  <outline>
    <contour>
      <point x="555.7640093651878" y="542.7230407543262" type="curve"/>
      <point x="481.5476741378995" y="400.448849335199" type="line"/>
      <point x="443.80304168367707" y="428.354370753609"/>
      <point x="406.46607577507405" y="447.6112941593259"/>
      <point x="359.9655589729909" y="447.6112941593259" type="curve" smooth="yes"/>
      <point x="272.1684673505205" y="447.6112941593259"/>
      <point x="206.06425748346268" y="385.91015654222275"/>
      <point x="206.0642569848959" y="292.55846336596477" type="curve" smooth="yes"/>
      <point x="206.06425648581234" y="199.10999858384884"/>
      <point x="289.0284463923813" y="142.38686648657887"/>
      <point x="377.6140550471438" y="142.38686648657884" type="curve" smooth="yes"/>
      <point x="417.47647614614306" y="142.38686648657884"/>
      <point x="458.6274987335104" y="161.3710233452567"/>
      <point x="493.4888786325308" y="185.69296572898293" type="curve"/>
      <point x="560.5440806476973" y="44.26021615473095" type="line"/>
      <point x="509.09931294697043" y="-0.4875226295576809"/>
      <point x="436.9990454959936" y="-23.927186810926308"/>
      <point x="371.7766593671329" y="-23.92718681092631" type="curve"/>
      <point x="172.97460997568177" y="-23.92718681092631"/>
      <point x="38.5239257187975" y="96.48742252716245"/>
      <point x="31.29631750235801" y="293.23670678993955" type="curve" smooth="yes"/>
      <point x="31.29631750235801" y="471.10008353628234"/>
      <point x="162.5001158701063" y="613.2022800436669"/>
      <point x="367.4101719550259" y="613.202280043667" type="curve" smooth="yes"/>
      <point x="427.36788434871016" y="613.202280043667"/>
      <point x="496.83735292777874" y="597.5584770699675"/>
    </contour>
    <contour>
      <point x="272.9557862390375" y="79.10442564543476" type="line"/>
      <point x="428.56517279125455" y="79.10442564543476" type="line"/>
      <point x="428.56517279125455" y="-129.77794313552337" type="line"/>
      <point x="272.9557862390375" y="-129.77794313552337" type="line"/>
    </contour>
    <contour>
      <point x="272.95578623903737" y="729.1099139456513" type="line"/>
      <point x="428.56517279125455" y="729.1099139456513" type="line"/>
      <point x="428.56517279125455" y="520.2275451646932" type="line"/>
      <point x="272.95578623903737" y="520.2275451646932" type="line"/>
    </contour>
  </outline>
</glyph>
<glyph name="uni00A3" format="2">
  <advance width="596"/>
  <unicode hex="00A3"/>
  <outline>
    <contour>
      <point x="102.98366670150031" y="520.7609978029086" type="line"/>
      <point x="128.79536380221603" y="537.5789541907991" type="line"/>
      <point x="266.9698347003673" y="512.4576233519455" type="line"/>
      <point x="266.9698347003673" y="-0.4629258721517405" type="line"/>
      <point x="102.98366670150031" y="-0.4629258721517405" type="line"/>
    </contour>
    <contour>
      <point x="29.220259400339454" y="153.14868902749487" type="line"/>
      <point x="565.639274317919" y="153.14868902749487" type="line"/>
      <point x="565.639274317919" y="-0.4629258721517405" type="line"/>
      <point x="29.220259400339454" y="-0.4629258721517405" type="line"/>
    </contour>
    <contour>
      <point x="29.220259400339454" y="442.28951362285324" type="line"/>
      <point x="413.414863331255" y="442.28951362285324" type="line"/>
      <point x="413.414863331255" y="287.11668347508845" type="line"/>
      <point x="29.220259400339454" y="287.11668347508845" type="line"/>
    </contour>
    <contour>
      <point x="343.44604154222077" y="750.4107932101696" type="curve" smooth="yes"/>
      <point x="432.35373436687894" y="750.4107932101696"/>
      <point x="496.3411272440328" y="720.3410701097899"/>
      <point x="572.7033010522446" y="663.4682843206577" type="curve"/>
      <point x="500.70747435555967" y="527.6942342514483" type="line"/>
      <point x="446.6644781794539" y="570.9420040105304"/>
      <point x="404.0994346552868" y="587.4516607206979"/>
      <point x="343.44604154222077" y="587.4516607206978" type="curve"/>
      <point x="297.3696770083917" y="587.4516607206978"/>
      <point x="266.9698347003673" y="559.9384576104961"/>
      <point x="266.9698347003673" y="512.4576233519455" type="curve"/>
      <point x="102.98366670150031" y="520.7609978029086" type="line"/>
      <point x="102.98366670150031" y="665.5438960305281"/>
      <point x="208.78233704465674" y="750.4107932101696"/>
    </contour>
  </outline>
</glyph>
<glyph name="uni00A5" format="2">
  <advance width="654"/>
  <unicode hex="00A5"/>
  <outline>
    <contour>
      <point x="412.6722327270137" y="-0.4629258721517405" type="line"/>
      <point x="247.0812468426721" y="-0.4629258721517405" type="line"/>
      <point x="247.0812468426721" y="333.5764359350783" type="line"/>
      <point x="266.27140021327995" y="254.464750973871" type="line"/>
      <point x="1.0771965341515015" y="737.0775149604559" type="line"/>
      <point x="206.34066129722058" y="737.0775149604559" type="line"/>
      <point x="354.4210378238691" y="445.07432014730773" type="line"/>
      <point x="316.8600371296279" y="444.29323445047737" type="line"/>
      <point x="450.5623841521742" y="736.7627532128251" type="line"/>
      <point x="653.0305796941002" y="736.7627532128251" type="line"/>
      <point x="393.50782616925716" y="264.29647878116003" type="line"/>
      <point x="412.6722327270137" y="343.4214242219252" type="line"/>
    </contour>
    <contour>
      <point x="70.13584055087216" y="428.63239244901473" type="line"/>
      <point x="583.9719356773795" y="428.63239244901473" type="line"/>
      <point x="583.9719356773795" y="294.4564985845622" type="line"/>
      <point x="70.13584055087216" y="294.4564985845622" type="line"/>
    </contour>
    <contour>
      <point x="70.13584055087216" y="247.73141409363393" type="line"/>
      <point x="583.9719356773794" y="247.73141409363393" type="line"/>
      <point x="583.9719356773794" y="113.55552022918154" type="line"/>
      <point x="70.13584055087216" y="113.55552022918154" type="line"/>
    </contour>
  </outline>
</glyph>
<glyph name="uni00A7" format="2">
  <advance width="607"/>
  <unicode hex="00A7"/>
  <outline>
    <contour>
      <point x="565.8657054030894" y="670.0748380381801" type="curve"/>
      <point x="471.4075751499371" y="550.2184092489475" type="line"/>
      <point x="423.58185781842735" y="585.1667246348043"/>
      <point x="373.09900748825777" y="610.1030618123372"/>
      <point x="312.2499949472782" y="610.1030618123372" type="curve" smooth="yes"/>
      <point x="260.0586396777131" y="610.1030618123372"/>
      <point x="233.02076052203034" y="596.3334323248333"/>
      <point x="233.02076052203037" y="576.0739294094822" type="curve" smooth="yes"/>
      <point x="233.02076052203037" y="549.3946696356577"/>
      <point x="249.31276611519706" y="533.2195785128303"/>
      <point x="336.64398818201045" y="511.36218330275193" type="curve" smooth="yes"/>
      <point x="506.1491152476258" y="468.9381742859858"/>
      <point x="565.724699120087" y="410.7170927405132"/>
      <point x="565.7246991200869" y="319.4760182905495" type="curve" smooth="yes"/>
      <point x="565.7246991200869" y="254.55209553694138"/>
      <point x="494.09207005174727" y="160.53748351927942"/>
      <point x="439.87389719713826" y="132.25878172333873" type="curve"/>
      <point x="303.48087818797734" y="210.42484333240972" type="line"/>
      <point x="355.79377353965594" y="235.78610057442876"/>
      <point x="406.2348706110503" y="263.3909289585529"/>
      <point x="406.2348706110503" y="305.8096823061255" type="curve" smooth="yes"/>
      <point x="406.2348706110503" y="333.609847492927"/>
      <point x="385.3614310751793" y="353.35885397311324"/>
      <point x="293.8169086860344" y="374.7625937387485" type="curve" smooth="yes"/>
      <point x="135.55498710830156" y="411.7653208911144"/>
      <point x="63.85822860712878" y="462.9831413738165"/>
      <point x="63.85822860712878" y="560.0306216269622" type="curve" smooth="yes"/>
      <point x="63.85822860712878" y="672.5654667263724"/>
      <point x="151.55031781810501" y="751.2295162402536"/>
      <point x="320.5937305001052" y="751.2295162402537" type="curve" smooth="yes"/>
      <point x="413.27505531266536" y="751.2295162402537"/>
      <point x="503.02188102140735" y="726.903642456641"/>
    </contour>
    <contour>
      <point x="295.6670820815167" y="413.8114552547944" type="line"/>
      <point x="241.21427249718693" y="388.74596848886756"/>
      <point x="197.53541893719904" y="360.698538287436"/>
      <point x="197.53541893719904" y="324.27108970704404" type="curve" smooth="yes"/>
      <point x="197.53541893719904" y="294.0832561144542"/>
      <point x="221.793464198376" y="276.48577241408924"/>
      <point x="318.29714756506377" y="253.24373302466657" type="curve" smooth="yes"/>
      <point x="476.5590691427966" y="215.12778048450554"/>
      <point x="548.2558276439693" y="162.36907416833225"/>
      <point x="548.2558276439693" y="62.40192482175741" type="curve" smooth="yes"/>
      <point x="548.2558276439693" y="-53.518526048287164"/>
      <point x="460.5637384329931" y="-134.54917996581258"/>
      <point x="291.52032575099315" y="-134.54917996581258" type="curve" smooth="yes"/>
      <point x="190.44852601957365" y="-134.54917996581258"/>
      <point x="92.37852751762907" y="-107.65900713095415"/>
      <point x="23.845428264810632" y="-43.82099875165484" type="curve"/>
      <point x="123.63212134054768" y="71.69767925473973" type="line"/>
      <point x="175.92671831344416" y="32.3340966503938"/>
      <point x="233.3292602683788" y="10.034157785852344"/>
      <point x="299.86406130382" y="10.034157785852347" type="curve" smooth="yes"/>
      <point x="350.3671191530274" y="10.034157785852347"/>
      <point x="375.85990662179" y="25.682020981700866"/>
      <point x="375.85990662179" y="45.87595484371401" type="curve" smooth="yes"/>
      <point x="375.85990662179" y="72.76866263316063"/>
      <point x="360.92895864252165" y="90.50228514125757"/>
      <point x="275.47006806908774" y="112.53455093147234" type="curve" smooth="yes"/>
      <point x="92.49874942358383" y="159.70662041814302"/>
      <point x="37.63562525565919" y="214.13238273676382"/>
      <point x="37.63562525565921" y="310.1936026170987" type="curve" smooth="yes"/>
      <point x="37.63562525565921" y="363.6826563987645"/>
      <point x="75.76470229650579" y="436.7988042014648"/>
      <point x="173.06559463648057" y="471.2047421084992" type="curve"/>
    </contour>
  </outline>
</glyph>
<glyph name="uni00A8" format="2">
  <advance width="549"/>
  <unicode hex="00A8"/>
  <outline>
    <contour>
      <point x="50.49553075442835" y="697.9759344271844" type="curve" smooth="yes"/>
      <point x="50.49553075442835" y="744.534939084131"/>
      <point x="84.89239363839135" y="772.500492732974"/>
      <point x="138.516475952633" y="772.500492732974" type="curve" smooth="yes"/>
      <point x="192.1405582668747" y="772.500492732974"/>
      <point x="226.53742115083725" y="744.5349390841311"/>
      <point x="226.53742115083728" y="697.9759344271844" type="curve" smooth="yes"/>
      <point x="226.53742115083728" y="651.4169297702375"/>
      <point x="192.1469093622828" y="623.4513761213948"/>
      <point x="138.516475952633" y="623.4513761213949" type="curve" smooth="yes"/>
      <point x="84.89239363839135" y="623.4513761213949"/>
      <point x="50.495530754428344" y="651.4169297702376"/>
    </contour>
    <contour>
      <point x="322.49367741725985" y="697.9759344271844" type="curve" smooth="yes"/>
      <point x="322.49367741725985" y="744.534939084131"/>
      <point x="356.8905403012225" y="772.500492732974"/>
      <point x="410.51462261546413" y="772.500492732974" type="curve" smooth="yes"/>
      <point x="464.1387049297058" y="772.500492732974"/>
      <point x="498.53556781366916" y="744.5349390841311"/>
      <point x="498.53556781366916" y="697.9759344271844" type="curve" smooth="yes"/>
      <point x="498.53556781366916" y="651.4169297702375"/>
      <point x="464.14505602511394" y="623.4513761213948"/>
      <point x="410.51462261546413" y="623.4513761213949" type="curve" smooth="yes"/>
      <point x="356.8905403012225" y="623.4513761213949"/>
      <point x="322.49367741725985" y="651.4169297702376"/>
    </contour>
  </outline>
</glyph>
<glyph name="uni00A9" format="2">
  <advance width="833"/>
  <unicode hex="00A9"/>
  <outline>
    <contour>
      <point x="32.376989064406665" y="368.29162583816276" type="curve" smooth="yes"/>
      <point x="32.37698906440658" y="582.7444179940401"/>
      <point x="198.7103112453381" y="748.0019766383874"/>
      <point x="416.3339926034908" y="748.0019766383874" type="curve" smooth="yes"/>
      <point x="638.3768620248788" y="748.0019766383875"/>
      <point x="800.2909961425753" y="582.7444179940403"/>
      <point x="800.2909961425753" y="368.2916258381621" type="curve" smooth="yes"/>
      <point x="800.2909961425753" y="153.83883368228447"/>
      <point x="633.9576739616439" y="-11.418724962062925"/>
      <point x="416.33399260349074" y="-11.41872496206292" type="curve" smooth="yes"/>
      <point x="193.9307152854713" y="-11.41872496206292"/>
      <point x="32.3769890644067" y="153.8388336822845"/>
    </contour>
    <contour>
      <point x="571.3304563815252" y="554.0651585712415" type="curve"/>
      <point x="530.2731661230886" y="464.2371624237143" type="line"/>
      <point x="507.4466949707335" y="484.471730296396"/>
      <point x="465.97676691256487" y="493.87765836350343"/>
      <point x="439.22950988041055" y="493.8776583635034" type="curve"/>
      <point x="363.6137941172391" y="493.8776583635034"/>
      <point x="321.8377953516645" y="441.3384104600629"/>
      <point x="321.8377950098298" y="374.0931031223888" type="curve" smooth="yes"/>
      <point x="321.8377946631973" y="305.9040511254085"/>
      <point x="370.63516081496573" y="260.25682068115174"/>
      <point x="439.51941518759736" y="260.25682068115174" type="curve" smooth="yes"/>
      <point x="470.45417430933156" y="260.25682068115174"/>
      <point x="501.9321683859003" y="271.81047837701624"/>
      <point x="523.6617348907082" y="285.76949709406904" type="curve"/>
      <point x="566.8715036921992" y="184.71419918189605" type="line"/>
      <point x="521.970846078072" y="152.8380569986927"/>
      <point x="476.6725726525308" y="146.07491936255911"/>
      <point x="438.4193258613898" y="146.0749193625591" type="curve"/>
      <point x="293.82132191621326" y="146.0749193625591"/>
      <point x="207.40556006121042" y="250.90766867243082"/>
      <point x="207.40556006121042" y="374.01984158713384" type="curve" smooth="yes"/>
      <point x="207.40556006121042" y="498.1078089481832"/>
      <point x="294.26675745221064" y="598.7584749690936"/>
      <point x="444.0994974475014" y="598.7584749690936" type="curve" smooth="yes"/>
      <point x="487.3902697048526" y="598.7584749690936"/>
      <point x="541.560027319425" y="583.5725020475147"/>
    </contour>
    <contour>
      <point x="125.56560692073785" y="368.2916258381624" type="curve" smooth="yes"/>
      <point x="125.56560692073785" y="194.30133261887565"/>
      <point x="255.52593609387048" y="78.838662831936"/>
      <point x="416.3339926034911" y="78.83866283193603" type="curve" smooth="yes"/>
      <point x="577.1420474296663" y="78.83866283193603"/>
      <point x="707.1023764548627" y="194.3013372159269"/>
      <point x="707.102378286244" y="368.29162583816174" type="curve" smooth="yes"/>
      <point x="707.102378286244" y="542.2819190574485"/>
      <point x="577.1420491131116" y="657.7445888443883"/>
      <point x="416.3339926034911" y="657.7445888443883" type="curve" smooth="yes"/>
      <point x="255.52593777731622" y="657.7445888443883"/>
      <point x="125.56560875211937" y="542.2819144603973"/>
    </contour>
  </outline>
</glyph>
<glyph name="uni00AA" format="2">
  <advance width="429"/>
  <unicode hex="00AA"/>
  <outline>
    <contour>
      <point x="273.14108219903875" y="333.65027024134986" type="line"/>
      <point x="273.14108219903875" y="567.0110999494783" type="line" smooth="yes"/>
      <point x="273.14108219903875" y="607.6373408838673"/>
      <point x="246.74934000270738" y="630.811044690879"/>
      <point x="191.47297362961942" y="630.811044690879" type="curve" smooth="yes"/>
      <point x="152.28052527757603" y="630.811044690879"/>
      <point x="115.05590007882698" y="615.419224658971"/>
      <point x="78.50027185899259" y="595.6444028849534" type="curve"/>
      <point x="37.61892327565291" y="690.3193207848029" type="line"/>
      <point x="82.72507493811477" y="716.5894268997108"/>
      <point x="132.49131442721517" y="735.241699235098"/>
      <point x="198.5710537028059" y="735.241699235098" type="curve" smooth="yes"/>
      <point x="298.77712031829276" y="735.241699235098"/>
      <point x="378.83074274753847" y="692.878293854036"/>
      <point x="378.83074274753847" y="574.8780210468135" type="curve" smooth="yes"/>
      <point x="378.83074274753847" y="333.65027024134986" type="line"/>
    </contour>
    <contour>
      <point x="286.3525954831261" y="536.4189846190418" type="curve"/>
      <point x="286.3525954831261" y="370.4760456300493" type="line"/>
      <point x="269.77108642824913" y="341.9636078435968"/>
      <point x="233.49451915328706" y="324.3462371972059"/>
      <point x="181.01357052997324" y="324.3462371972059" type="curve" smooth="yes"/>
      <point x="95.76727018446432" y="324.3462371972059"/>
      <point x="41.55195482674873" y="373.9987126002564"/>
      <point x="41.551954826748734" y="448.0089897506492" type="curve" smooth="yes"/>
      <point x="41.551954826748734" y="528.7392316809567"/>
      <point x="116.07716668989877" y="570.846776816305"/>
      <point x="206.41292697455478" y="570.8467768163051" type="curve" smooth="yes"/>
      <point x="246.3067105888829" y="570.8467768163051"/>
      <point x="281.052735755831" y="558.1154346035642"/>
    </contour>
    <contour>
      <point x="219.9801085393764" y="494.8296764381717" type="curve" smooth="yes"/>
      <point x="184.6656005139931" y="494.8296764381717"/>
      <point x="157.15605572944244" y="477.54294502827906"/>
      <point x="157.15605561810733" y="451.22321151390844" type="curve" smooth="yes"/>
      <point x="157.15605561810733" y="423.46952145911337"/>
      <point x="180.71823686778671" y="409.6713493227374"/>
      <point x="213.03409690672927" y="409.6713493227374" type="curve" smooth="yes"/>
      <point x="245.68628364539543" y="409.6713493227374"/>
      <point x="273.14108219903875" y="434.6691511168456"/>
      <point x="273.14108219903875" y="457.9686748784997" type="curve" smooth="yes"/>
      <point x="273.14108219903875" y="480.8726491388026"/>
      <point x="247.5211304413204" y="494.8296764381717"/>
    </contour>
  </outline>
</glyph>
<glyph name="uni00AB" format="2">
  <advance width="647"/>
  <unicode hex="00AB"/>
  <outline>
    <contour>
      <point x="174.69360480784772" y="95.70843094877367" type="line"/>
      <point x="19.60463396216903" y="312.1050605589871" type="line"/>
      <point x="19.60463396216903" y="355.7217192561736" type="line"/>
      <point x="175.72851881117893" y="559.7366936964961" type="line"/>
      <point x="364.9302790728007" y="559.7366936964961" type="line"/>
      <point x="189.78555799290288" y="322.4880963172927" type="line"/>
      <point x="189.90777764824637" y="350.0319982543114" type="line"/>
      <point x="364.2221815552507" y="95.70843094877367" type="line"/>
    </contour>
    <contour>
      <point x="448.93942875207847" y="95.70843094877367" type="line"/>
      <point x="293.8504579063996" y="312.1050605589871" type="line"/>
      <point x="293.8504579063996" y="355.7217192561736" type="line"/>
      <point x="449.9743427554096" y="559.7366936964961" type="line"/>
      <point x="639.1761030170313" y="559.7366936964961" type="line"/>
      <point x="464.03138193713346" y="322.4880963172927" type="line"/>
      <point x="464.15360159247706" y="350.0319982543114" type="line"/>
      <point x="638.4680054994813" y="95.70843094877367" type="line"/>
    </contour>
  </outline>
</glyph>
<glyph name="uni00AE" format="2">
  <advance width="833"/>
  <unicode hex="00AE"/>
  <outline>
    <contour>
      <point x="32.376989064406665" y="368.29162583816276" type="curve" smooth="yes"/>
      <point x="32.37698906440658" y="582.7444179940401"/>
      <point x="198.7103112453381" y="748.0019766383874"/>
      <point x="416.3339926034908" y="748.0019766383874" type="curve" smooth="yes"/>
      <point x="638.3768620248788" y="748.0019766383875"/>
      <point x="800.2909961425753" y="582.7444179940403"/>
      <point x="800.2909961425753" y="368.2916258381621" type="curve" smooth="yes"/>
      <point x="800.2909961425753" y="153.83883368228447"/>
      <point x="633.9576739616439" y="-11.418724962062925"/>
      <point x="416.33399260349074" y="-11.41872496206292" type="curve" smooth="yes"/>
      <point x="193.9307152854713" y="-11.41872496206292"/>
      <point x="32.3769890644067" y="153.8388336822845"/>
    </contour>
    <contour>
      <point x="259.41007602057607" y="583.5568056756545" type="line"/>
      <point x="357.0631018231062" y="583.5568056756545" type="line"/>
      <point x="357.0631018231062" y="172.73686067060157" type="line"/>
      <point x="259.41007602057607" y="172.73686067060157" type="line"/>
    </contour>
    <contour>
      <point x="453.68680786258517" y="320.0522375138894" type="curve" smooth="yes"/>
      <point x="307.5637275070889" y="320.0522375138894" type="line"/>
      <point x="307.5637275070889" y="405.81948867212964" type="line"/>
      <point x="443.67533744266484" y="405.81948867212964" type="line" smooth="yes"/>
      <point x="471.6062165016136" y="405.81948867212964"/>
      <point x="488.5473048716428" y="423.0766134598748"/>
      <point x="488.5473050029357" y="449.7772294258753" type="curve" smooth="yes"/>
      <point x="488.54730512906065" y="475.4267931863085"/>
      <point x="468.3592901757758" y="490.01887198789194"/>
      <point x="446.2100386842525" y="490.01887198789194" type="curve" smooth="yes"/>
      <point x="307.5637275070889" y="490.01887198789194" type="line"/>
      <point x="307.5637275070889" y="583.5568056756545" type="line"/>
      <point x="457.8695627957248" y="583.5568056756545" type="line" smooth="yes"/>
      <point x="535.3996141678833" y="583.5568056756545"/>
      <point x="586.598093267035" y="529.0769936105918"/>
      <point x="586.598093267035" y="457.7921718688164" type="curve" smooth="yes"/>
      <point x="586.598093267035" y="367.6272993912181"/>
      <point x="527.7764604906818" y="320.0522375138894"/>
    </contour>
    <contour>
      <point x="349.49555611050636" y="335.76714798920443" type="line"/>
      <point x="481.81442134406626" y="335.76714798920443" type="line"/>
      <point x="610.9226637645726" y="170.97113148992162" type="line"/>
      <point x="491.28629601509874" y="170.97113148992162" type="line"/>
    </contour>
    <contour>
      <point x="125.56560692073785" y="368.2916258381624" type="curve" smooth="yes"/>
      <point x="125.56560692073785" y="194.30133261887565"/>
      <point x="255.52593609387048" y="78.838662831936"/>
      <point x="416.3339926034911" y="78.83866283193603" type="curve" smooth="yes"/>
      <point x="577.1420474296663" y="78.83866283193603"/>
      <point x="707.1023764548627" y="194.3013372159269"/>
      <point x="707.102378286244" y="368.29162583816174" type="curve" smooth="yes"/>
      <point x="707.102378286244" y="542.2819190574485"/>
      <point x="577.1420491131116" y="657.7445888443883"/>
      <point x="416.3339926034911" y="657.7445888443883" type="curve" smooth="yes"/>
      <point x="255.52593777731622" y="657.7445888443883"/>
      <point x="125.56560875211937" y="542.2819144603973"/>
    </contour>
  </outline>
</glyph>
<glyph name="uni00AF" format="2">
  <advance width="577"/>
  <unicode hex="00AF"/>
  <outline>
    <contour>
      <point x="50.56617369335777" y="727.3047239705434" type="line"/>
      <point x="526.2243236339137" y="727.3047239705434" type="line"/>
      <point x="526.2243236339137" y="586.6435625445438" type="line"/>
      <point x="50.56617369335777" y="586.6435625445438" type="line"/>
    </contour>
  </outline>
</glyph>
<glyph name="uni00B0" format="2">
  <advance width="401"/>
  <unicode hex="00B0"/>
  <outline>
    <contour>
      <point x="40.01830681057277" y="580.2823579399563" type="curve" smooth="yes"/>
      <point x="40.01830681057277" y="667.6798935217155"/>
      <point x="106.88052156133905" y="735.779408711862"/>
      <point x="200.6692584610515" y="735.779408711862" type="curve" smooth="yes"/>
      <point x="294.45799536076396" y="735.779408711862"/>
      <point x="361.32021011153006" y="667.6798935217156"/>
      <point x="361.32021011153006" y="580.2823579399563" type="curve" smooth="yes"/>
      <point x="361.32021011153006" y="493.05696123769167"/>
      <point x="294.2715332822866" y="425.48718607246315"/>
      <point x="200.6692584610515" y="425.48718607246315" type="curve" smooth="yes"/>
      <point x="107.07888843401535" y="425.48718607246315"/>
      <point x="40.01830681057277" y="493.0569612376916"/>
    </contour>
    <contour>
      <point x="200.66925846105133" y="518.8072223661618" type="curve" smooth="yes"/>
      <point x="234.86901488362918" y="518.8072223661618"/>
      <point x="262.3149670142342" y="542.4651554464717"/>
      <point x="262.3149670142342" y="580.4182757702499" type="curve" smooth="yes"/>
      <point x="262.3149670142342" y="618.4831105153569"/>
      <point x="234.97678669625722" y="642.459372418163"/>
      <point x="200.66925846105133" y="642.459372418163" type="curve" smooth="yes"/>
      <point x="166.36173022584543" y="642.459372418163"/>
      <point x="139.02354990786864" y="618.4831105153569"/>
      <point x="139.02354990786864" y="580.4182757702499" type="curve" smooth="yes"/>
      <point x="139.02354990786864" y="542.4651554464717"/>
      <point x="166.4740202676363" y="518.8072223661618"/>
    </contour>
  </outline>
</glyph>
<glyph name="uni00B4" format="2">
  <advance width="307"/>
  <unicode hex="00B4"/>
  <outline>
    <contour>
      <point x="165.06468498319788" y="629.0977078228415" type="line"/>
      <point x="20.24201819854277" y="629.0977078228415" type="line"/>
      <point x="137.5555379775374" y="761.368494277024" type="line"/>
      <point x="312.62853211199564" y="761.368494277024" type="line"/>
    </contour>
  </outline>
</glyph>
<glyph name="uni00B6" format="2">
  <advance width="718"/>
  <unicode hex="00B6"/>
  <outline>
    <contour>
      <point x="306.23805669385223" y="736.7627532128251" type="line"/>
      <point x="455.8558906617531" y="736.7627532128251" type="line"/>
      <point x="455.8558906617532" y="-118.76835740677636" type="line"/>
      <point x="306.2380566938524" y="-118.76835740677636" type="line"/>
    </contour>
    <contour>
      <point x="293.54611242152515" y="736.7627532128251" type="curve" smooth="yes"/>
      <point x="623.3986397442518" y="736.7627532128251" type="line"/>
      <point x="623.3986397442518" y="587.8652424897392" type="line"/>
      <point x="295.1023116318806" y="587.8652424897392" type="line" smooth="yes"/>
      <point x="232.16211942992317" y="587.8652424897392"/>
      <point x="195.83118528215954" y="548.3390240900072"/>
      <point x="195.8311849863008" y="490.13801128133935" type="curve" smooth="yes"/>
      <point x="195.83118470436426" y="434.6758306539744"/>
      <point x="240.94837251797748" y="403.111695445467"/>
      <point x="290.4603429849074" y="403.111695445467" type="curve" smooth="yes"/>
      <point x="411.04636049948544" y="403.111695445467" type="line"/>
      <point x="411.04636049948556" y="255.92743297214403" type="line"/>
      <point x="285.88595234465356" y="255.92743297214403" type="line" smooth="yes"/>
      <point x="128.37412013549354" y="255.92743297214403"/>
      <point x="30.004018229649375" y="341.02256124751597"/>
      <point x="30.00401822964939" y="481.1080158468649" type="curve" smooth="yes"/>
      <point x="30.00401822964937" y="651.2693580283285"/>
      <point x="148.9970474088947" y="736.7627532128251"/>
    </contour>
    <contour>
      <point x="517.4026815863089" y="736.7627532128251" type="line"/>
      <point x="667.0205155542095" y="736.7627532128251" type="line"/>
      <point x="667.0205155542095" y="-118.76835740677636" type="line"/>
      <point x="517.4026815863091" y="-118.76835740677636" type="line"/>
    </contour>
  </outline>
</glyph>
<glyph name="uni00B7" format="2">
  <advance width="290"/>
  <unicode hex="00B7"/>
  <outline>
    <contour>
      <point x="144.89617050175593" y="443.44795710233217" type="curve" smooth="yes"/>
      <point x="200.22742561463124" y="443.44795710233217"/>
      <point x="243.06443501411854" y="403.6640131286033"/>
      <point x="243.06443501411854" y="345.8129529126873" type="curve" smooth="yes"/>
      <point x="243.06443501411854" y="287.96189269677166"/>
      <point x="200.22742561463127" y="248.1779487230428"/>
      <point x="144.89617050175593" y="248.1779487230428" type="curve" smooth="yes"/>
      <point x="89.56491538888062" y="248.1779487230428"/>
      <point x="46.727905989393335" y="287.96189269677166"/>
      <point x="46.727905989393335" y="345.8129529126873" type="curve" smooth="yes"/>
      <point x="46.727905989393335" y="403.6640131286033"/>
      <point x="89.56491538888062" y="443.44795710233217"/>
    </contour>
  </outline>
</glyph>
<glyph name="uni00B8" format="2">
  <advance width="272"/>
  <unicode hex="00B8"/>
  <outline>
    <contour>
      <point x="123.08818708454001" y="-132.27078645418243" type="line"/>
      <point x="-21.51983169146902" y="-132.27078645418243" type="line"/>
      <point x="64.91566247968139" y="27.078560318100156" type="line"/>
      <point x="221.36829732464196" y="27.078560318100156" type="line"/>
    </contour>
  </outline>
</glyph>
<glyph name="uni00BA" format="2">
  <advance width="489"/>
  <unicode hex="00BA"/>
  <outline>
    <contour>
      <point x="37.07110261974198" y="528.3981324595883" type="curve" smooth="yes"/>
      <point x="37.07110261974198" y="639.7525320689123"/>
      <point x="132.37122883346126" y="735.1226717807074"/>
      <point x="244.51937161180035" y="735.1226717807073" type="curve" smooth="yes"/>
      <point x="370.1134898540065" y="735.1226717807073"/>
      <point x="451.96764060385857" y="639.7525320689123"/>
      <point x="451.9676406038585" y="528.3981324595877" type="curve" smooth="yes"/>
      <point x="451.9676406038585" y="417.008747829551"/>
      <point x="356.7027487869098" y="321.54782081963697"/>
      <point x="244.51937161180027" y="321.54782081963697" type="curve" smooth="yes"/>
      <point x="118.88579455302748" y="321.54782081963697"/>
      <point x="37.071102619741964" y="417.008747829551"/>
    </contour>
    <contour>
      <point x="149.74274908213894" y="528.3988852950168" type="curve" smooth="yes"/>
      <point x="149.74274908213894" y="470.6205228040414"/>
      <point x="190.303242104234" y="429.3410466551677"/>
      <point x="244.51937161180035" y="429.34104665516764" type="curve" smooth="yes"/>
      <point x="298.7355005517962" y="429.34104665516764"/>
      <point x="339.2959935240149" y="470.6205243306215"/>
      <point x="339.2959941414617" y="528.3988852950166" type="curve" smooth="yes"/>
      <point x="339.2959941414617" y="586.1366692978047"/>
      <point x="298.69742443328687" y="627.3294459451768"/>
      <point x="244.51937161180035" y="627.3294459451769" type="curve" smooth="yes"/>
      <point x="189.9348745545072" y="627.3294459451769"/>
      <point x="149.7427496492445" y="581.4665199396454"/>
    </contour>
  </outline>
</glyph>
<glyph name="uni00BB" format="2">
  <advance width="649"/>
  <unicode hex="00BB"/>
  <outline>
    <contour>
      <point x="478.57858287442406" y="559.7366936964962" type="line"/>
      <point x="629.6963607824943" y="351.17379883602035" type="line"/>
      <point x="629.6963607824943" y="307.5571401388338" type="line"/>
      <point x="469.6012829958758" y="95.70843094877384" type="line"/>
      <point x="280.39952273425405" y="95.70843094877384" type="line"/>
      <point x="459.5154367517604" y="340.7907630777147" type="line"/>
      <point x="459.3932170964169" y="313.246861140696" type="line"/>
      <point x="289.05000612702105" y="559.7366936964962" type="line"/>
    </contour>
    <contour>
      <point x="204.3327589301933" y="559.7366936964962" type="line"/>
      <point x="355.4505368382637" y="351.17379883602035" type="line"/>
      <point x="355.4505368382637" y="307.5571401388338" type="line"/>
      <point x="195.35545905164517" y="95.70843094877384" type="line"/>
      <point x="6.153698790023535" y="95.70843094877384" type="line"/>
      <point x="185.2696128075298" y="340.7907630777147" type="line"/>
      <point x="185.14739315218623" y="313.246861140696" type="line"/>
      <point x="14.804182182790555" y="559.7366936964962" type="line"/>
    </contour>
  </outline>
</glyph>
<glyph name="uni00BF" format="2">
  <advance width="441"/>
  <unicode hex="00BF"/>
  <outline>
    <contour>
      <point x="347.4809772106221" y="333.8028319372006" type="line"/>
      <point x="357.10083141316096" y="277.63967283614795"/>
      <point x="344.70960248698015" y="233.22008225714774"/>
      <point x="285.6844067780179" y="176.71484690856835" type="curve" smooth="yes"/>
      <point x="211.19813412706162" y="105.40861376817277"/>
      <point x="195.4884791449204" y="85.00692950394968"/>
      <point x="195.48847914492038" y="53.27290866247241" type="curve" smooth="yes"/>
      <point x="195.48847896742106" y="15.45326083042616"/>
      <point x="228.08936241136962" y="-0.4037652214776841"/>
      <point x="272.75984512753485" y="-0.4037652214776878" type="curve" smooth="yes"/>
      <point x="323.4589529782005" y="-0.4037652214776878"/>
      <point x="369.24593646483515" y="16.452582164615624"/>
      <point x="406.97079862208756" y="43.224318651938006" type="curve"/>
      <point x="485.0402721845707" y="-87.374520646364" type="line"/>
      <point x="431.9689985476952" y="-133.23907683879196"/>
      <point x="341.5406669842706" y="-157.1824025542034"/>
      <point x="266.97132557873687" y="-157.1824025542034" type="curve" smooth="yes"/>
      <point x="118.36662177346369" y="-157.1824025542034"/>
      <point x="25.100212902768646" y="-92.96194407036705"/>
      <point x="25.10021290276864" y="32.52707204792961" type="curve" smooth="yes"/>
      <point x="25.100212902768597" y="117.79354100233212"/>
      <point x="71.19756494116535" y="168.35724402902244"/>
      <point x="137.8009980145825" y="224.31385878060254" type="curve" smooth="yes"/>
      <point x="175.51186436831387" y="255.99649619327192"/>
      <point x="203.65768051047056" y="286.97862533851753"/>
      <point x="203.65768051047056" y="333.8028319372006" type="curve"/>
    </contour>
    <contour>
      <point x="274.915371183318" y="399.39289733216674" type="curve" smooth="yes"/>
      <point x="219.58411607044266" y="399.39289733216674"/>
      <point x="176.74710667095536" y="439.1768413058956"/>
      <point x="176.74710667095536" y="497.0279015218116" type="curve" smooth="yes"/>
      <point x="176.74710667095536" y="554.8789617377273"/>
      <point x="219.58411607044255" y="594.6629057114561"/>
      <point x="274.9153711833179" y="594.6629057114561" type="curve" smooth="yes"/>
      <point x="330.24662629619326" y="594.6629057114561"/>
      <point x="373.0836356956806" y="554.8789617377273"/>
      <point x="373.0836356956806" y="497.0279015218116" type="curve" smooth="yes"/>
      <point x="373.0836356956806" y="439.1768413058956"/>
      <point x="330.2466262961933" y="399.39289733216674"/>
    </contour>
  </outline>
</glyph>
<glyph name="uni00C1" format="2">
  <advance width="780"/>
  <unicode hex="00C1"/>
  <anchor x="390" y="736.7627532128251" name="top"/>
  <anchor x="390" y="-167" name="bottom"/>
  <outline>
    <contour>
      <point x="269.24759203755747" y="737.0387701843846" type="line"/>
      <point x="445.3738486622445" y="737.0387701843846" type="line"/>
      <point x="198.14668351528528" y="0.0" type="line"/>
      <point x="7.372562762240572" y="0.0" type="line"/>
    </contour>
    <contour>
      <point x="269.24759203755747" y="307.1334368595896" type="line"/>
      <point x="516.6281747638319" y="307.1334368595896" type="line"/>
      <point x="584.4186458908694" y="144.51258662377137" type="line"/>
      <point x="198.14668351528528" y="144.51258662377137" type="line"/>
    </contour>
    <contour>
      <point x="333.75996803779014" y="737.0387701843846" type="line"/>
      <point x="520.882967751007" y="737.0387701843846" type="line"/>
      <point x="771.5416456040859" y="-0.5520339431186836" type="line"/>
      <point x="584.4186458908694" y="-0.5520339431186836" type="line"/>
    </contour>
    <contour>
      <point x="453.60489970593204" y="763.2427416052013" type="line"/>
      <point x="308.78223292127694" y="763.2427416052013" type="line"/>
      <point x="426.0957527002716" y="895.5135280593837" type="line"/>
      <point x="601.1687468347297" y="895.5135280593837" type="line"/>
    </contour>
  </outline>
</glyph>
<glyph name="uni00C2" format="2">
  <advance width="780"/>
  <unicode hex="00C2"/>
  <anchor x="390" y="736.7627532128251" name="top"/>
  <anchor x="390" y="-167" name="bottom"/>
  <outline>
    <contour>
      <point x="269.24759203755747" y="737.0387701843846" type="line"/>
      <point x="445.3738486622445" y="737.0387701843846" type="line"/>
      <point x="198.14668351528528" y="0.0" type="line"/>
      <point x="7.372562762240572" y="0.0" type="line"/>
    </contour>
    <contour>
      <point x="269.24759203755747" y="307.1334368595896" type="line"/>
      <point x="516.6281747638319" y="307.1334368595896" type="line"/>
      <point x="584.4186458908694" y="144.51258662377137" type="line"/>
      <point x="198.14668351528528" y="144.51258662377137" type="line"/>
    </contour>
    <contour>
      <point x="333.75996803779014" y="737.0387701843846" type="line"/>
      <point x="520.882967751007" y="737.0387701843846" type="line"/>
      <point x="771.5416456040859" y="-0.5520339431186836" type="line"/>
      <point x="584.4186458908694" y="-0.5520339431186836" type="line"/>
    </contour>
    <contour>
      <point x="452.8327994316316" y="871.8730906162525" type="line"/>
      <point x="316.8877097639977" y="763.2427416052013" type="line"/>
      <point x="177.26167011461635" y="763.2427416052013" type="line"/>
      <point x="301.4612140975774" y="895.5135280593837" type="line"/>
      <point x="496.7386086192487" y="895.5135280593837" type="line"/>
      <point x="618.5920432917311" y="763.2427416052013" type="line"/>
      <point x="473.6340013026157" y="763.2427416052013" type="line"/>
      <point x="342.8771732995915" y="871.8730906162525" type="line"/>
    </contour>
  </outline>
</glyph>
<glyph name="uni00C3" format="2">
  <advance width="780"/>
  <unicode hex="00C3"/>
  <anchor x="390" y="736.7627532128251" name="top"/>
  <anchor x="390" y="-167" name="bottom"/>
  <outline>
    <contour>
      <point x="269.24759203755747" y="737.0387701843846" type="line"/>
      <point x="445.3738486622445" y="737.0387701843846" type="line"/>
      <point x="198.14668351528528" y="0.0" type="line"/>
      <point x="7.372562762240572" y="0.0" type="line"/>
    </contour>
    <contour>
      <point x="269.24759203755747" y="307.1334368595896" type="line"/>
      <point x="516.6281747638319" y="307.1334368595896" type="line"/>
      <point x="584.4186458908694" y="144.51258662377137" type="line"/>
      <point x="198.14668351528528" y="144.51258662377137" type="line"/>
    </contour>
    <contour>
      <point x="333.75996803779014" y="737.0387701843846" type="line"/>
      <point x="520.882967751007" y="737.0387701843846" type="line"/>
      <point x="771.5416456040859" y="-0.5520339431186836" type="line"/>
      <point x="584.4186458908694" y="-0.5520339431186836" type="line"/>
    </contour>
    <contour>
      <point x="336.42742480654925" y="905.3919921141663" type="curve" smooth="yes"/>
      <point x="369.471036901545" y="905.3919921141663"/>
      <point x="393.0430427907129" y="891.8446974322616"/>
      <point x="415.8860709875337" y="877.3602894972581" type="curve" smooth="yes"/>
      <point x="437.1258826826214" y="863.8924561433106"/>
      <point x="454.25618741016456" y="854.1761433382937"/>
      <point x="475.54650895210654" y="854.1761433382937" type="curve" smooth="yes"/>
      <point x="497.4026771526695" y="854.1761433382937"/>
      <point x="516.9435100721105" y="869.6924122807844"/>
      <point x="527.2794650053729" y="904.0773648135979" type="curve"/>
      <point x="598.7116409711035" y="873.6521814910338" type="line"/>
      <point x="589.4349405083738" y="793.6697608742858"/>
      <point x="526.1973358367358" y="762.5295492437739"/>
      <point x="480.9612302239193" y="762.5295492437739" type="curve" smooth="yes"/>
      <point x="445.86080055488395" y="762.5295492437739"/>
      <point x="417.3111439236997" y="777.6757092149418"/>
      <point x="396.47173604050516" y="790.6117135505523" type="curve" smooth="yes"/>
      <point x="377.2817820280055" y="802.5238239952092"/>
      <point x="360.00747760922826" y="811.3859606771903"/>
      <point x="337.37092320789225" y="811.3859606771904" type="curve" smooth="yes"/>
      <point x="305.64384317118424" y="811.3859606771904"/>
      <point x="287.92810237602316" y="785.1670941986974"/>
      <point x="279.54273365935455" y="756.7267485955606" type="curve"/>
      <point x="207.27895296845853" y="790.8595541280756" type="line"/>
      <point x="216.3328380456952" y="857.9739483444062"/>
      <point x="274.3300726541085" y="905.3919921141662"/>
    </contour>
  </outline>
</glyph>
<glyph name="uni00C4" format="2">
  <advance width="780"/>
  <unicode hex="00C4"/>
  <anchor x="390" y="736.7627532128251" name="top"/>
  <anchor x="390" y="-167" name="bottom"/>
  <outline>
    <contour>
      <point x="269.24759203755747" y="737.0387701843846" type="line"/>
      <point x="445.3738486622445" y="737.0387701843846" type="line"/>
      <point x="198.14668351528528" y="0.0" type="line"/>
      <point x="7.372562762240572" y="0.0" type="line"/>
    </contour>
    <contour>
      <point x="269.24759203755747" y="307.1334368595896" type="line"/>
      <point x="516.6281747638319" y="307.1334368595896" type="line"/>
      <point x="584.4186458908694" y="144.51258662377137" type="line"/>
      <point x="198.14668351528528" y="144.51258662377137" type="line"/>
    </contour>
    <contour>
      <point x="333.75996803779014" y="737.0387701843846" type="line"/>
      <point x="520.882967751007" y="737.0387701843846" type="line"/>
      <point x="771.5416456040859" y="-0.5520339431186836" type="line"/>
      <point x="584.4186458908694" y="-0.5520339431186836" type="line"/>
    </contour>
    <contour>
      <point x="171.82187326450284" y="832.1209682095442" type="curve" smooth="yes"/>
      <point x="171.82187326450284" y="878.6799728664909"/>
      <point x="206.2187361484659" y="906.6455265153338"/>
      <point x="259.8428184627075" y="906.6455265153338" type="curve" smooth="yes"/>
      <point x="313.4669007769492" y="906.6455265153338"/>
      <point x="347.8637636609118" y="878.679972866491"/>
      <point x="347.8637636609118" y="832.1209682095442" type="curve" smooth="yes"/>
      <point x="347.8637636609118" y="785.5619635525974"/>
      <point x="313.4732518723573" y="757.5964099037546"/>
      <point x="259.8428184627075" y="757.5964099037546" type="curve" smooth="yes"/>
      <point x="206.21873614846587" y="757.5964099037546"/>
      <point x="171.8218732645028" y="785.5619635525974"/>
    </contour>
    <contour>
      <point x="443.8200199273344" y="832.1209682095442" type="curve" smooth="yes"/>
      <point x="443.8200199273344" y="878.6799728664909"/>
      <point x="478.216882811297" y="906.6455265153338"/>
      <point x="531.8409651255386" y="906.6455265153338" type="curve" smooth="yes"/>
      <point x="585.4650474397803" y="906.6455265153338"/>
      <point x="619.8619103237438" y="878.679972866491"/>
      <point x="619.8619103237438" y="832.1209682095442" type="curve" smooth="yes"/>
      <point x="619.8619103237438" y="785.5619635525974"/>
      <point x="585.4713985351885" y="757.5964099037546"/>
      <point x="531.8409651255386" y="757.5964099037546" type="curve" smooth="yes"/>
      <point x="478.216882811297" y="757.5964099037546"/>
      <point x="443.8200199273344" y="785.5619635525974"/>
    </contour>
  </outline>
</glyph>
<glyph name="uni00C5" format="2">
  <advance width="780"/>
  <unicode hex="00C5"/>
  <anchor x="390" y="736.7627532128251" name="top"/>
  <anchor x="390" y="-167" name="bottom"/>
  <outline>
    <contour>
      <point x="269.24759203755747" y="737.0387701843846" type="line"/>
      <point x="445.3738486622445" y="737.0387701843846" type="line"/>
      <point x="198.14668351528528" y="0.0" type="line"/>
      <point x="7.372562762240572" y="0.0" type="line"/>
    </contour>
    <contour>
      <point x="269.24759203755747" y="307.1334368595896" type="line"/>
      <point x="516.6281747638319" y="307.1334368595896" type="line"/>
      <point x="584.4186458908694" y="144.51258662377137" type="line"/>
      <point x="198.14668351528528" y="144.51258662377137" type="line"/>
    </contour>
    <contour>
      <point x="333.75996803779014" y="737.0387701843846" type="line"/>
      <point x="520.882967751007" y="737.0387701843846" type="line"/>
      <point x="771.5416456040859" y="-0.5520339431186836" type="line"/>
      <point x="584.4186458908694" y="-0.5520339431186836" type="line"/>
    </contour>
    <contour>
      <point x="238.21500300183217" y="818.6870038829903" type="curve" smooth="yes"/>
      <point x="238.21500300183217" y="885.3871674586702"/>
      <point x="302.89282579530897" y="927.6061346623667"/>
      <point x="396.16393600150525" y="927.6061346623668" type="curve" smooth="yes"/>
      <point x="488.658571036084" y="927.6061346623668"/>
      <point x="552.1687910979331" y="884.8318934746375"/>
      <point x="552.1687910979331" y="818.6870038829903" type="curve" smooth="yes"/>
      <point x="552.1687910979331" y="752.5421142913432"/>
      <point x="488.66952585762124" y="709.767873103614"/>
      <point x="396.16393600150525" y="709.7678731036141" type="curve" smooth="yes"/>
      <point x="302.89282579530897" y="709.7678731036141"/>
      <point x="238.21500300183217" y="751.9868403073103"/>
    </contour>
    <contour>
      <point x="396.16393600150525" y="778.5194018696076" type="curve" smooth="yes"/>
      <point x="441.22842215105743" y="778.5194018696076"/>
      <point x="474.900727908597" y="790.8979906758614"/>
      <point x="474.900727908597" y="818.6870038829903" type="curve" smooth="yes"/>
      <point x="474.900727908597" y="846.4760170901194"/>
      <point x="441.2230854637913" y="858.8546058963733"/>
      <point x="396.16393600150525" y="858.8546058963734" type="curve" smooth="yes"/>
      <point x="350.2197817581102" y="858.8546058963734"/>
      <point x="315.48306619116784" y="847.0218198814305"/>
      <point x="315.4830661911679" y="818.6870038829903" type="curve" smooth="yes"/>
      <point x="315.4830661911679" y="790.3521878845505"/>
      <point x="350.21978175811023" y="778.5194018696075"/>
    </contour>
  </outline>
</glyph>
<glyph name="uni00C6" format="2">
  <advance width="1008"/>
  <unicode hex="00C6"/>
  <anchor x="504" y="736.7627532128251" name="top"/>
  <anchor x="504" y="-167" name="bottom"/>
  <outline>
    <contour>
      <point x="337.3979404519936" y="736.7627532128251" type="line"/>
      <point x="516.3683175713398" y="736.7627532128251" type="line"/>
      <point x="196.41166643038915" y="-0.2760169715594255" type="line"/>
      <point x="5.637545677344466" y="-0.2760169715594255" type="line"/>
    </contour>
    <contour>
      <point x="277.9402529611002" y="306.85741988803017" type="line"/>
      <point x="525.3208356873746" y="306.85741988803017" type="line"/>
      <point x="570.6201699447058" y="144.23656965221195" type="line"/>
      <point x="184.34820756912177" y="144.23656965221195" type="line"/>
    </contour>
    <contour>
      <point x="401.9103164522262" y="736.7627532128251" type="line"/>
      <point x="589.0333161654431" y="736.7627532128251" type="line"/>
      <point x="737.68013203765" y="-0.8280509146781091" type="line"/>
      <point x="550.5571323244333" y="-0.8280509146781091" type="line"/>
    </contour>
    <contour>
      <point x="579.3903218716955" y="584.7448894350161" type="line"/>
      <point x="579.3903218716955" y="736.7627532128251" type="line"/>
      <point x="938.883650012912" y="736.7627532128251" type="line"/>
      <point x="938.883650012912" y="584.7448894350161" type="line"/>
    </contour>
    <contour>
      <point x="579.3903218716955" y="154.3961844891713" type="line"/>
      <point x="979.1860612379064" y="154.3961844891713" type="line"/>
      <point x="979.1860612379064" y="-1.0149598152705916" type="line"/>
      <point x="579.3903218716955" y="-1.0149598152705916" type="line"/>
    </contour>
    <contour>
      <point x="603.0426160228336" y="455.4876006081299" type="line"/>
      <point x="832.015236827472" y="455.4876006081299" type="line"/>
      <point x="832.015236827472" y="299.010634781969" type="line"/>
      <point x="603.0426160228336" y="299.010634781969" type="line"/>
    </contour>
  </outline>
</glyph>
<glyph name="uni00C8" format="2">
  <advance width="575"/>
  <unicode hex="00C8"/>
  <anchor x="287" y="736.7627532128251" name="top"/>
  <anchor x="287" y="-167" name="bottom"/>
  <outline>
    <contour>
      <point x="50.5661736933576" y="737.3147871559439" type="line"/>
      <point x="216.1571595776992" y="737.3147871559439" type="line"/>
      <point x="216.1571595776992" y="-0.4629258721517405" type="line"/>
      <point x="50.5661736933576" y="-0.4629258721517405" type="line"/>
    </contour>
    <contour>
      <point x="146.3437617477811" y="585.2969233781349" type="line"/>
      <point x="146.3437617477811" y="737.3147871559439" type="line"/>
      <point x="546.1395011139921" y="737.3147871559439" type="line"/>
      <point x="546.1395011139921" y="585.2969233781349" type="line"/>
    </contour>
    <contour>
      <point x="146.3437617477811" y="154.94821843229013" type="line"/>
      <point x="546.1395011139921" y="154.94821843229013" type="line"/>
      <point x="546.1395011139921" y="-0.4629258721517405" type="line"/>
      <point x="146.3437617477811" y="-0.4629258721517405" type="line"/>
    </contour>
    <contour>
      <point x="169.99605589891925" y="456.0396345512487" type="line"/>
      <point x="398.9686767035576" y="456.0396345512487" type="line"/>
      <point x="398.9686767035576" y="299.56266872508763" type="line"/>
      <point x="169.99605589891925" y="299.56266872508763" type="line"/>
    </contour>
    <contour>
      <point x="108.62335148984121" y="897.3061638941821" type="line"/>
      <point x="283.69634562429934" y="897.3061638941821" type="line"/>
      <point x="401.0098654032937" y="765.0353774399996" type="line"/>
      <point x="256.1871986186389" y="765.0353774399996" type="line"/>
    </contour>
  </outline>
</glyph>
<glyph name="uni00CA" format="2">
  <advance width="575"/>
  <unicode hex="00CA"/>
  <anchor x="287" y="736.7627532128251" name="top"/>
  <anchor x="287" y="-167" name="bottom"/>
  <outline>
    <contour>
      <point x="50.5661736933576" y="737.3147871559439" type="line"/>
      <point x="216.1571595776992" y="737.3147871559439" type="line"/>
      <point x="216.1571595776992" y="-0.4629258721517405" type="line"/>
      <point x="50.5661736933576" y="-0.4629258721517405" type="line"/>
    </contour>
    <contour>
      <point x="146.3437617477811" y="585.2969233781349" type="line"/>
      <point x="146.3437617477811" y="737.3147871559439" type="line"/>
      <point x="546.1395011139921" y="737.3147871559439" type="line"/>
      <point x="546.1395011139921" y="585.2969233781349" type="line"/>
    </contour>
    <contour>
      <point x="146.3437617477811" y="154.94821843229013" type="line"/>
      <point x="546.1395011139921" y="154.94821843229013" type="line"/>
      <point x="546.1395011139921" y="-0.4629258721517405" type="line"/>
      <point x="146.3437617477811" y="-0.4629258721517405" type="line"/>
    </contour>
    <contour>
      <point x="169.99605589891925" y="456.0396345512487" type="line"/>
      <point x="398.9686767035576" y="456.0396345512487" type="line"/>
      <point x="398.9686767035576" y="299.56266872508763" type="line"/>
      <point x="169.99605589891925" y="299.56266872508763" type="line"/>
    </contour>
    <contour>
      <point x="364.4784532639698" y="873.6657264510509" type="line"/>
      <point x="228.53336359633587" y="765.0353774399996" type="line"/>
      <point x="88.90732394695456" y="765.0353774399996" type="line"/>
      <point x="213.10686792991558" y="897.3061638941821" type="line"/>
      <point x="408.3842624515869" y="897.3061638941821" type="line"/>
      <point x="530.2376971240693" y="765.0353774399996" type="line"/>
      <point x="385.2796551349539" y="765.0353774399996" type="line"/>
      <point x="254.52282713192972" y="873.6657264510509" type="line"/>
    </contour>
  </outline>
</glyph>
<glyph name="uni00CB" format="2">
  <advance width="575"/>
  <unicode hex="00CB"/>
  <anchor x="287" y="736.7627532128251" name="top"/>
  <anchor x="287" y="-167" name="bottom"/>
  <outline>
    <contour>
      <point x="50.5661736933576" y="737.3147871559439" type="line"/>
      <point x="216.1571595776992" y="737.3147871559439" type="line"/>
      <point x="216.1571595776992" y="-0.4629258721517405" type="line"/>
      <point x="50.5661736933576" y="-0.4629258721517405" type="line"/>
    </contour>
    <contour>
      <point x="146.3437617477811" y="585.2969233781349" type="line"/>
      <point x="146.3437617477811" y="737.3147871559439" type="line"/>
      <point x="546.1395011139921" y="737.3147871559439" type="line"/>
      <point x="546.1395011139921" y="585.2969233781349" type="line"/>
    </contour>
    <contour>
      <point x="146.3437617477811" y="154.94821843229013" type="line"/>
      <point x="546.1395011139921" y="154.94821843229013" type="line"/>
      <point x="546.1395011139921" y="-0.4629258721517405" type="line"/>
      <point x="146.3437617477811" y="-0.4629258721517405" type="line"/>
    </contour>
    <contour>
      <point x="169.99605589891925" y="456.0396345512487" type="line"/>
      <point x="398.9686767035576" y="456.0396345512487" type="line"/>
      <point x="398.9686767035576" y="299.56266872508763" type="line"/>
      <point x="169.99605589891925" y="299.56266872508763" type="line"/>
    </contour>
    <contour>
      <point x="83.46752709684105" y="833.9136040443425" type="curve" smooth="yes"/>
      <point x="83.46752709684105" y="880.4726087012891"/>
      <point x="117.8643899808041" y="908.4381623501321"/>
      <point x="171.48847229504574" y="908.4381623501321" type="curve" smooth="yes"/>
      <point x="225.11255460928746" y="908.4381623501321"/>
      <point x="259.50941749325" y="880.4726087012892"/>
      <point x="259.50941749325" y="833.9136040443425" type="curve" smooth="yes"/>
      <point x="259.50941749325" y="787.3545993873956"/>
      <point x="225.11890570469552" y="759.3890457385529"/>
      <point x="171.48847229504574" y="759.389045738553" type="curve" smooth="yes"/>
      <point x="117.8643899808041" y="759.389045738553"/>
      <point x="83.46752709684105" y="787.3545993873958"/>
    </contour>
    <contour>
      <point x="355.4656737596726" y="833.9136040443425" type="curve" smooth="yes"/>
      <point x="355.4656737596726" y="880.4726087012891"/>
      <point x="389.8625366436352" y="908.4381623501321"/>
      <point x="443.48661895787683" y="908.4381623501321" type="curve" smooth="yes"/>
      <point x="497.11070127211855" y="908.4381623501321"/>
      <point x="531.507564156082" y="880.4726087012892"/>
      <point x="531.507564156082" y="833.9136040443425" type="curve" smooth="yes"/>
      <point x="531.507564156082" y="787.3545993873956"/>
      <point x="497.1170523675267" y="759.3890457385529"/>
      <point x="443.48661895787683" y="759.389045738553" type="curve" smooth="yes"/>
      <point x="389.8625366436353" y="759.389045738553"/>
      <point x="355.46567375967265" y="787.3545993873958"/>
    </contour>
  </outline>
</glyph>
<glyph name="uni00CC" format="2">
  <advance width="267"/>
  <unicode hex="00CC"/>
  <anchor x="133" y="736.7627532128251" name="top"/>
  <anchor x="133" y="-167" name="bottom"/>
  <outline>
    <contour>
      <point x="50.5661736933576" y="737.3147871559439" type="line"/>
      <point x="216.1571595776992" y="737.3147871559439" type="line"/>
      <point x="216.1571595776992" y="-0.4629258721517405" type="line"/>
      <point x="50.5661736933576" y="-0.4629258721517405" type="line"/>
    </contour>
    <contour>
      <point x="-66.10067059717886" y="896.8751150594335" type="line"/>
      <point x="108.9723235372793" y="896.8751150594335" type="line"/>
      <point x="226.28584331627368" y="764.604328605251" type="line"/>
      <point x="81.46317653161884" y="764.604328605251" type="line"/>
    </contour>
  </outline>
</glyph>
<glyph name="uni00CD" format="2">
  <advance width="267"/>
  <unicode hex="00CD"/>
  <anchor x="133" y="736.7627532128251" name="top"/>
  <anchor x="133" y="-167" name="bottom"/>
  <outline>
    <contour>
      <point x="50.5661736933576" y="737.3147871559439" type="line"/>
      <point x="216.1571595776992" y="737.3147871559439" type="line"/>
      <point x="216.1571595776992" y="-0.4629258721517405" type="line"/>
      <point x="50.5661736933576" y="-0.4629258721517405" type="line"/>
    </contour>
    <contour>
      <point x="190.52653145125024" y="764.604328605251" type="line"/>
      <point x="45.70386466659513" y="764.604328605251" type="line"/>
      <point x="163.01738444558978" y="896.8751150594335" type="line"/>
      <point x="338.09037858004797" y="896.8751150594335" type="line"/>
    </contour>
  </outline>
</glyph>
<glyph name="uni00CE" format="2">
  <advance width="267"/>
  <unicode hex="00CE"/>
  <anchor x="133" y="736.7627532128251" name="top"/>
  <anchor x="133" y="-167" name="bottom"/>
  <outline>
    <contour>
      <point x="50.5661736933576" y="737.3147871559439" type="line"/>
      <point x="216.1571595776992" y="737.3147871559439" type="line"/>
      <point x="216.1571595776992" y="-0.4629258721517405" type="line"/>
      <point x="50.5661736933576" y="-0.4629258721517405" type="line"/>
    </contour>
    <contour>
      <point x="189.7544311769498" y="873.2346776163024" type="line"/>
      <point x="53.809341509315864" y="764.604328605251" type="line"/>
      <point x="-85.81669814006545" y="764.604328605251" type="line"/>
      <point x="38.38284584289557" y="896.8751150594335" type="line"/>
      <point x="233.66024036456685" y="896.8751150594335" type="line"/>
      <point x="355.5136750370494" y="764.604328605251" type="line"/>
      <point x="210.55563304793387" y="764.604328605251" type="line"/>
      <point x="79.79880504490968" y="873.2346776163024" type="line"/>
    </contour>
  </outline>
</glyph>
<glyph name="uni00CF" format="2">
  <advance width="267"/>
  <unicode hex="00CF"/>
  <anchor x="133" y="736.7627532128251" name="top"/>
  <anchor x="133" y="-167" name="bottom"/>
  <outline>
    <contour>
      <point x="50.5661736933576" y="737.3147871559439" type="line"/>
      <point x="216.1571595776992" y="737.3147871559439" type="line"/>
      <point x="216.1571595776992" y="-0.4629258721517405" type="line"/>
      <point x="50.5661736933576" y="-0.4629258721517405" type="line"/>
    </contour>
    <contour>
      <point x="-91.25649499017894" y="833.482555209594" type="curve" smooth="yes"/>
      <point x="-91.25649499017894" y="880.0415598665406"/>
      <point x="-56.859632106215926" y="908.0071135153836"/>
      <point x="-3.235549791974289" y="908.0071135153835" type="curve" smooth="yes"/>
      <point x="50.38853252226743" y="908.0071135153835"/>
      <point x="84.78539540622998" y="880.0415598665406"/>
      <point x="84.78539540622998" y="833.482555209594" type="curve" smooth="yes"/>
      <point x="84.78539540622998" y="786.9235505526472"/>
      <point x="50.394883617675504" y="758.9579969038044"/>
      <point x="-3.235549791974289" y="758.9579969038044" type="curve" smooth="yes"/>
      <point x="-56.85963210621592" y="758.9579969038044"/>
      <point x="-91.25649499017894" y="786.9235505526472"/>
    </contour>
    <contour>
      <point x="180.74165167265258" y="833.482555209594" type="curve" smooth="yes"/>
      <point x="180.74165167265258" y="880.0415598665406"/>
      <point x="215.1385145566152" y="908.0071135153836"/>
      <point x="268.76259687085684" y="908.0071135153835" type="curve" smooth="yes"/>
      <point x="322.3866791850985" y="908.0071135153835"/>
      <point x="356.78354206906187" y="880.0415598665406"/>
      <point x="356.78354206906187" y="833.482555209594" type="curve" smooth="yes"/>
      <point x="356.78354206906187" y="786.9235505526472"/>
      <point x="322.39303028050665" y="758.9579969038044"/>
      <point x="268.76259687085684" y="758.9579969038044" type="curve" smooth="yes"/>
      <point x="215.1385145566152" y="758.9579969038044"/>
      <point x="180.74165167265255" y="786.9235505526472"/>
    </contour>
  </outline>
</glyph>
